{"glyphs":{"0":{"ha":550,"x_min":64,"x_max":488,"o":"m 275 -11 q 132 26 175 -11 q 76 158 89 63 q 64 478 64 254 q 76 797 64 701 q 132 930 89 893 q 275 967 175 967 q 424 931 381 967 q 477 803 467 894 q 488 478 488 711 q 475 158 488 254 q 419 26 463 63 q 275 -11 376 -11 m 275 60 q 367 83 342 60 q 402 188 393 106 q 411 478 411 269 q 402 768 411 686 q 367 873 393 850 q 275 896 342 896 q 183 873 208 896 q 148 768 157 850 q 139 478 139 686 q 148 188 139 269 q 183 83 157 106 q 275 60 208 60 z "},"1":{"ha":310,"x_min":38,"x_max":221,"o":"m 144 0 l 144 854 l 38 796 l 38 874 l 163 956 l 221 956 l 221 0 l 144 0 z "},"2":{"ha":490,"x_min":51,"x_max":439,"o":"m 128 71 l 439 71 l 439 0 l 51 0 l 51 101 q 56 276 51 226 q 78 359 60 326 q 143 424 97 392 l 296 535 q 349 601 336 563 q 363 718 363 639 q 352 831 363 793 q 314 882 342 868 q 232 896 286 896 q 63 882 171 896 l 63 949 q 147 962 94 957 q 247 967 199 967 q 351 951 311 967 q 415 885 392 936 q 439 731 439 833 q 428 604 439 651 q 397 529 418 557 q 339 474 376 501 l 175 357 q 138 310 149 336 q 129 258 131 290 q 128 147 128 225 l 128 71 z "},"3":{"ha":469,"x_min":25,"x_max":413,"o":"m 197 -11 q 110 -6 158 -11 q 25 10 63 0 l 25 75 q 186 60 132 60 q 272 74 240 60 q 319 130 303 89 q 336 251 336 171 q 310 404 336 360 q 224 449 285 449 l 118 449 l 118 519 l 224 519 q 300 560 271 519 q 329 707 329 601 q 314 828 329 788 q 267 882 299 868 q 179 896 236 896 q 29 881 114 896 l 29 947 q 113 961 67 956 q 197 967 160 967 q 320 942 275 967 q 385 864 365 918 q 406 717 406 810 q 379 562 406 615 q 301 492 353 508 l 301 486 q 384 419 356 472 q 413 254 413 365 q 394 104 413 161 q 330 18 376 47 q 197 -11 283 -11 z "},"4":{"ha":531,"x_min":38,"x_max":490,"o":"m 329 0 l 329 233 l 38 233 l 38 296 l 236 956 l 314 956 l 113 304 l 331 304 l 340 685 l 406 685 l 406 304 l 490 304 l 490 233 l 406 233 l 406 0 l 329 0 z "},"5":{"ha":490,"x_min":60,"x_max":446,"o":"m 60 75 q 218 60 161 60 q 314 79 282 60 q 358 144 346 99 q 369 278 369 190 q 358 416 369 374 q 313 473 346 458 q 204 488 279 488 q 67 469 149 488 l 67 956 l 406 956 l 406 885 l 140 885 l 140 547 q 251 560 185 560 q 376 531 335 560 q 432 446 418 501 q 446 290 446 390 q 428 110 446 174 q 364 17 410 46 q 231 -11 318 -11 q 144 -6 192 -11 q 60 10 96 0 l 60 75 z "},"6":{"ha":538,"x_min":64,"x_max":488,"o":"m 283 -11 q 183 1 222 -11 q 119 46 144 14 q 76 139 93 78 q 66 240 68 169 q 64 467 64 311 q 67 681 64 604 q 82 800 71 757 q 158 928 107 890 q 306 967 208 967 q 382 961 339 967 q 458 946 425 956 l 458 879 q 388 891 428 886 q 318 896 349 896 q 198 865 235 896 q 149 753 161 835 q 138 492 138 672 l 146 492 q 193 543 160 524 q 296 563 226 563 q 413 545 374 563 q 469 472 451 528 q 488 299 488 417 q 472 110 488 175 q 413 17 456 46 q 283 -11 369 -11 m 278 60 q 363 75 336 60 q 401 134 390 90 q 413 272 413 178 q 402 422 413 378 q 366 479 392 467 q 278 492 340 492 q 187 476 215 492 q 149 424 158 460 q 140 315 140 389 q 152 150 140 203 q 192 78 164 97 q 278 60 221 60 z "},"7":{"ha":450,"x_min":26,"x_max":421,"o":"m 99 0 l 342 885 l 26 885 l 26 956 l 421 956 l 421 894 l 176 0 l 99 0 z "},"8":{"ha":551,"x_min":57,"x_max":494,"o":"m 276 -11 q 140 17 188 -11 q 75 101 93 44 q 57 254 57 157 q 69 381 57 335 q 103 450 81 428 q 163 485 125 472 l 163 490 q 87 560 111 506 q 63 717 63 614 q 82 864 63 810 q 148 942 101 918 q 276 967 194 967 q 404 942 358 967 q 469 864 450 918 q 489 717 489 810 q 465 560 489 614 q 389 490 440 506 l 389 485 q 449 450 426 472 q 483 381 471 428 q 494 254 494 335 q 477 101 494 157 q 413 17 460 44 q 276 -11 365 -11 m 276 518 q 362 534 333 518 q 401 590 390 550 q 413 707 413 629 q 402 826 413 786 q 363 881 392 865 q 276 897 335 897 q 188 881 217 897 q 149 826 160 865 q 139 707 139 786 q 150 590 139 629 q 190 534 161 550 q 276 518 218 518 m 276 58 q 363 74 333 58 q 406 130 393 89 q 418 251 418 171 q 407 380 418 339 q 367 435 396 421 q 276 449 338 449 q 186 435 215 449 q 145 380 157 421 q 133 251 133 339 q 146 129 133 169 q 189 74 158 89 q 276 58 219 58 z "},"9":{"ha":538,"x_min":50,"x_max":474,"o":"m 232 -11 q 153 -6 196 -11 q 79 10 111 0 l 79 76 q 148 65 108 69 q 219 60 188 60 q 338 90 301 60 q 387 202 375 121 q 399 464 399 283 l 392 464 q 344 412 378 431 q 242 393 310 393 q 125 410 164 393 q 68 483 86 428 q 50 657 50 539 q 65 845 50 781 q 124 938 81 910 q 253 967 167 967 q 392 935 347 967 q 458 819 438 904 q 471 703 468 778 q 474 489 474 628 q 469 257 474 338 q 450 133 465 176 q 373 22 424 54 q 232 -11 322 -11 m 260 464 q 351 480 322 464 q 388 531 379 496 q 397 640 397 567 q 385 805 397 751 q 345 877 374 858 q 260 896 317 896 q 174 881 201 896 q 136 822 147 865 q 125 683 125 778 q 135 533 125 578 q 171 476 144 489 q 260 464 197 464 z "},"\u0000":{"ha":0,"x_min":0,"x_max":0,"o":""},"\r":{"ha":228,"x_min":0,"x_max":0,"o":""}," ":{"ha":228,"x_min":0,"x_max":0,"o":""},"A":{"ha":561,"x_min":24,"x_max":538,"o":"m 458 0 l 399 281 l 160 281 l 101 0 l 24 0 l 231 956 l 331 956 l 538 0 l 458 0 m 283 840 l 275 840 l 172 350 l 386 350 l 283 840 z "},"Á":{"ha":561,"x_min":24,"x_max":538,"o":"m 458 0 l 399 281 l 160 281 l 101 0 l 24 0 l 231 956 l 331 956 l 538 0 l 458 0 m 283 840 l 275 840 l 172 350 l 386 350 l 283 840 m 247 1042 l 247 1049 l 293 1236 l 371 1236 l 371 1229 l 301 1042 l 247 1042 z "},"Ă":{"ha":561,"x_min":24,"x_max":538,"o":"m 458 0 l 399 281 l 160 281 l 101 0 l 24 0 l 231 956 l 331 956 l 538 0 l 458 0 m 283 840 l 275 840 l 172 350 l 386 350 l 283 840 m 415 1233 q 408 1126 415 1165 q 371 1064 400 1088 q 279 1040 342 1040 q 188 1064 217 1040 q 152 1126 160 1088 q 144 1233 144 1164 l 203 1233 q 207 1150 203 1178 q 227 1107 211 1122 q 279 1092 243 1092 q 332 1107 315 1092 q 353 1150 349 1122 q 357 1233 357 1178 l 415 1233 z "},"Ắ":{"ha":561,"x_min":24,"x_max":538,"o":"m 458 0 l 399 281 l 160 281 l 101 0 l 24 0 l 231 956 l 331 956 l 538 0 l 458 0 m 283 840 l 275 840 l 172 350 l 386 350 l 283 840 m 415 1233 q 408 1126 415 1165 q 371 1064 400 1088 q 279 1040 342 1040 q 188 1064 217 1040 q 152 1126 160 1088 q 144 1233 144 1164 l 203 1233 q 207 1150 203 1178 q 227 1107 211 1122 q 279 1092 243 1092 q 332 1107 315 1092 q 353 1150 349 1122 q 357 1233 357 1178 l 415 1233 m 253 1279 l 253 1286 l 299 1474 l 376 1474 l 376 1467 l 307 1279 l 253 1279 z "},"Ặ":{"ha":561,"x_min":24,"x_max":538,"o":"m 458 0 l 399 281 l 160 281 l 101 0 l 24 0 l 231 956 l 331 956 l 538 0 l 458 0 m 283 840 l 275 840 l 172 350 l 386 350 l 283 840 m 238 -194 l 238 -86 l 325 -86 l 325 -194 l 238 -194 m 415 1233 q 408 1126 415 1165 q 371 1064 400 1088 q 279 1040 342 1040 q 188 1064 217 1040 q 152 1126 160 1088 q 144 1233 144 1164 l 203 1233 q 207 1150 203 1178 q 227 1107 211 1122 q 279 1092 243 1092 q 332 1107 315 1092 q 353 1150 349 1122 q 357 1233 357 1178 l 415 1233 z "},"Ằ":{"ha":561,"x_min":24,"x_max":538,"o":"m 458 0 l 399 281 l 160 281 l 101 0 l 24 0 l 231 956 l 331 956 l 538 0 l 458 0 m 283 840 l 275 840 l 172 350 l 386 350 l 283 840 m 415 1233 q 408 1126 415 1165 q 371 1064 400 1088 q 279 1040 342 1040 q 188 1064 217 1040 q 152 1126 160 1088 q 144 1233 144 1164 l 203 1233 q 207 1150 203 1178 q 227 1107 211 1122 q 279 1092 243 1092 q 332 1107 315 1092 q 353 1150 349 1122 q 357 1233 357 1178 l 415 1233 m 254 1279 l 185 1467 l 185 1474 l 263 1474 l 308 1286 l 308 1279 l 254 1279 z "},"Ẳ":{"ha":561,"x_min":24,"x_max":538,"o":"m 458 0 l 399 281 l 160 281 l 101 0 l 24 0 l 231 956 l 331 956 l 538 0 l 458 0 m 283 840 l 275 840 l 172 350 l 386 350 l 283 840 m 413 1233 q 405 1126 413 1165 q 368 1064 397 1088 q 276 1040 339 1040 q 185 1064 214 1040 q 149 1126 157 1088 q 142 1233 142 1164 l 200 1233 q 204 1150 200 1178 q 224 1107 208 1122 q 276 1092 240 1092 q 329 1107 313 1092 q 350 1150 346 1122 q 354 1233 354 1178 l 413 1233 m 231 1250 q 241 1289 231 1278 q 278 1310 251 1300 l 293 1313 q 338 1334 325 1324 q 350 1371 350 1344 q 346 1401 350 1392 q 325 1414 342 1410 q 271 1418 308 1418 l 217 1417 q 164 1414 183 1414 l 164 1461 q 281 1472 247 1472 q 381 1452 354 1472 q 408 1383 408 1432 q 399 1321 408 1340 q 353 1288 390 1301 l 340 1283 q 301 1267 313 1272 q 288 1256 290 1263 q 285 1235 285 1249 l 231 1235 l 231 1250 z "},"Ẵ":{"ha":561,"x_min":24,"x_max":538,"o":"m 458 0 l 399 281 l 160 281 l 101 0 l 24 0 l 231 956 l 331 956 l 538 0 l 458 0 m 283 840 l 275 840 l 172 350 l 386 350 l 283 840 m 413 1233 q 405 1126 413 1165 q 368 1064 397 1088 q 276 1040 339 1040 q 185 1064 214 1040 q 149 1126 157 1088 q 142 1233 142 1164 l 200 1233 q 204 1150 200 1178 q 224 1107 208 1122 q 276 1092 240 1092 q 329 1107 313 1092 q 350 1150 346 1122 q 354 1233 354 1178 l 413 1233 m 444 1474 q 431 1363 444 1394 q 372 1332 417 1332 q 329 1340 350 1332 q 274 1365 308 1349 q 230 1388 249 1381 q 193 1396 211 1396 q 172 1380 176 1396 q 167 1317 167 1364 l 115 1317 q 129 1428 115 1397 q 188 1458 143 1458 q 235 1449 211 1458 q 290 1422 258 1440 q 333 1401 317 1408 q 365 1394 350 1394 q 388 1412 382 1394 q 393 1474 393 1429 l 444 1474 z "},"Ǎ":{"ha":561,"x_min":24,"x_max":538,"o":"m 458 0 l 399 281 l 160 281 l 101 0 l 24 0 l 231 956 l 331 956 l 538 0 l 458 0 m 283 840 l 275 840 l 172 350 l 386 350 l 283 840 m 238 1046 l 144 1225 l 144 1233 l 199 1233 l 279 1096 l 363 1233 l 415 1233 l 415 1225 l 322 1046 l 238 1046 z "},"Â":{"ha":561,"x_min":24,"x_max":538,"o":"m 458 0 l 399 281 l 160 281 l 101 0 l 24 0 l 231 956 l 331 956 l 538 0 l 458 0 m 283 840 l 275 840 l 172 350 l 386 350 l 283 840 m 144 1042 l 144 1049 l 238 1229 l 322 1229 l 415 1049 l 415 1042 l 363 1042 l 279 1179 l 199 1042 l 144 1042 z "},"Ấ":{"ha":561,"x_min":24,"x_max":538,"o":"m 458 0 l 399 281 l 160 281 l 101 0 l 24 0 l 231 956 l 331 956 l 538 0 l 458 0 m 283 840 l 275 840 l 172 350 l 386 350 l 283 840 m 144 1026 l 144 1033 l 238 1214 l 322 1214 l 415 1033 l 415 1026 l 363 1026 l 279 1164 l 199 1026 l 144 1026 m 354 1219 l 354 1226 l 400 1414 l 478 1414 l 478 1407 l 408 1219 l 354 1219 z "},"Ậ":{"ha":561,"x_min":24,"x_max":538,"o":"m 458 0 l 399 281 l 160 281 l 101 0 l 24 0 l 231 956 l 331 956 l 538 0 l 458 0 m 283 840 l 275 840 l 172 350 l 386 350 l 283 840 m 238 -194 l 238 -86 l 325 -86 l 325 -194 l 238 -194 m 144 1046 l 144 1053 l 238 1233 l 322 1233 l 415 1053 l 415 1046 l 363 1046 l 279 1183 l 199 1046 l 144 1046 z "},"Ầ":{"ha":561,"x_min":24,"x_max":538,"o":"m 458 0 l 399 281 l 160 281 l 101 0 l 24 0 l 231 956 l 331 956 l 538 0 l 458 0 m 283 840 l 275 840 l 172 350 l 386 350 l 283 840 m 142 1026 l 142 1033 l 235 1214 l 319 1214 l 413 1033 l 413 1026 l 360 1026 l 276 1164 l 196 1026 l 142 1026 m 354 1219 l 285 1407 l 285 1414 l 363 1414 l 408 1226 l 408 1219 l 354 1219 z "},"Ẩ":{"ha":561,"x_min":24,"x_max":538,"o":"m 458 0 l 399 281 l 160 281 l 101 0 l 24 0 l 231 956 l 331 956 l 538 0 l 458 0 m 283 840 l 275 840 l 172 350 l 386 350 l 283 840 m 144 1028 l 144 1035 l 238 1215 l 322 1215 l 415 1035 l 415 1028 l 363 1028 l 279 1165 l 199 1028 l 144 1028 m 338 1235 q 348 1274 338 1263 q 385 1294 358 1285 l 400 1297 q 444 1319 432 1308 q 457 1356 457 1329 q 453 1385 457 1376 q 432 1399 449 1394 q 378 1403 415 1403 l 324 1401 q 271 1399 290 1399 l 271 1446 q 388 1457 354 1457 q 488 1437 461 1457 q 515 1368 515 1417 q 506 1306 515 1325 q 460 1272 497 1286 l 447 1268 q 408 1252 419 1257 q 394 1240 397 1247 q 392 1219 392 1233 l 338 1219 l 338 1235 z "},"Ẫ":{"ha":561,"x_min":24,"x_max":538,"o":"m 458 0 l 399 281 l 160 281 l 101 0 l 24 0 l 231 956 l 331 956 l 538 0 l 458 0 m 283 840 l 275 840 l 172 350 l 386 350 l 283 840 m 142 1028 l 142 1035 l 235 1215 l 319 1215 l 413 1035 l 413 1028 l 360 1028 l 276 1165 l 196 1028 l 142 1028 m 444 1456 q 431 1345 444 1376 q 372 1314 417 1314 q 329 1322 350 1314 q 274 1347 308 1331 q 230 1370 249 1363 q 193 1378 211 1378 q 172 1362 176 1378 q 167 1299 167 1346 l 115 1299 q 129 1410 115 1379 q 188 1440 143 1440 q 235 1431 211 1440 q 290 1404 258 1422 q 333 1383 317 1390 q 365 1376 350 1376 q 388 1394 382 1376 q 393 1456 393 1411 l 444 1456 z "},"Ȁ":{"ha":561,"x_min":24,"x_max":538,"o":"m 458 0 l 399 281 l 160 281 l 101 0 l 24 0 l 231 956 l 331 956 l 538 0 l 458 0 m 283 840 l 275 840 l 172 350 l 386 350 l 283 840 m 232 1050 l 183 1050 l 118 1208 l 118 1215 l 190 1215 l 232 1057 l 232 1050 m 378 1050 l 329 1050 l 264 1208 l 264 1215 l 336 1215 l 378 1057 l 378 1050 z "},"Ä":{"ha":561,"x_min":24,"x_max":538,"o":"m 458 0 l 399 281 l 160 281 l 101 0 l 24 0 l 231 956 l 331 956 l 538 0 l 458 0 m 283 840 l 275 840 l 172 350 l 386 350 l 283 840 m 126 1071 l 126 1167 l 201 1167 l 201 1071 l 126 1071 m 360 1071 l 360 1167 l 436 1167 l 436 1071 l 360 1071 z "},"Ạ":{"ha":561,"x_min":24,"x_max":538,"o":"m 458 0 l 399 281 l 160 281 l 101 0 l 24 0 l 231 956 l 331 956 l 538 0 l 458 0 m 283 840 l 275 840 l 172 350 l 386 350 l 283 840 m 238 -194 l 238 -86 l 325 -86 l 325 -194 l 238 -194 z "},"À":{"ha":561,"x_min":24,"x_max":538,"o":"m 458 0 l 399 281 l 160 281 l 101 0 l 24 0 l 231 956 l 331 956 l 538 0 l 458 0 m 283 840 l 275 840 l 172 350 l 386 350 l 283 840 m 258 1040 l 189 1228 l 189 1235 l 267 1235 l 313 1047 l 313 1040 l 258 1040 z "},"Ả":{"ha":561,"x_min":24,"x_max":538,"o":"m 458 0 l 399 281 l 160 281 l 101 0 l 24 0 l 231 956 l 331 956 l 538 0 l 458 0 m 283 840 l 275 840 l 172 350 l 386 350 l 283 840 m 224 1044 q 234 1084 224 1072 q 271 1104 244 1096 l 286 1108 q 331 1128 318 1118 q 343 1167 343 1139 q 339 1196 343 1188 q 318 1208 335 1204 q 264 1213 301 1213 q 157 1208 221 1213 l 157 1256 q 274 1267 240 1267 q 374 1247 347 1267 q 401 1178 401 1226 q 392 1115 401 1135 q 346 1082 383 1096 l 333 1078 q 286 1057 294 1064 q 278 1029 278 1050 l 224 1029 l 224 1044 z "},"Ȃ":{"ha":561,"x_min":24,"x_max":538,"o":"m 458 0 l 399 281 l 160 281 l 101 0 l 24 0 l 231 956 l 331 956 l 538 0 l 458 0 m 283 840 l 275 840 l 172 350 l 386 350 l 283 840 m 144 1049 q 152 1156 144 1117 q 189 1218 160 1194 q 281 1242 218 1242 q 372 1218 343 1242 q 408 1156 400 1194 q 415 1049 415 1118 l 357 1049 q 353 1132 357 1104 q 333 1175 349 1160 q 281 1190 317 1190 q 228 1175 244 1190 q 207 1132 211 1160 q 203 1049 203 1104 l 144 1049 z "},"Ā":{"ha":561,"x_min":24,"x_max":538,"o":"m 458 0 l 399 281 l 160 281 l 101 0 l 24 0 l 231 956 l 331 956 l 538 0 l 458 0 m 283 840 l 275 840 l 172 350 l 386 350 l 283 840 m 164 1161 l 164 1233 l 396 1233 l 396 1161 l 164 1161 z "},"Ą":{"ha":561,"x_min":24,"x_max":538,"o":"m 439 -156 q 501 -217 439 -217 l 524 -215 l 524 -269 q 486 -272 510 -272 q 402 -244 429 -272 q 375 -168 375 -215 q 398 -81 375 -128 q 457 4 421 -33 l 399 281 l 160 281 l 101 0 l 24 0 l 231 956 l 331 956 l 538 0 l 517 0 q 463 -74 488 -29 q 439 -156 439 -119 m 172 350 l 386 350 l 283 840 l 275 840 l 172 350 z "},"Å":{"ha":561,"x_min":24,"x_max":538,"o":"m 538 0 l 458 0 l 399 281 l 160 281 l 101 0 l 24 0 l 228 951 q 171 984 183 960 q 158 1069 158 1008 q 166 1146 158 1121 q 199 1183 174 1171 q 281 1194 225 1194 q 362 1183 336 1194 q 395 1145 388 1171 q 403 1069 403 1119 q 390 984 403 1010 q 333 951 376 958 l 538 0 m 281 1146 q 238 1140 251 1146 q 222 1118 225 1133 q 218 1069 218 1103 q 222 1023 218 1038 q 238 1002 225 1008 q 281 996 251 996 q 333 1010 322 996 q 343 1069 343 1024 q 333 1131 343 1117 q 281 1146 322 1146 m 172 350 l 386 350 l 283 840 l 275 840 l 172 350 z "},"Ǻ":{"ha":561,"x_min":24,"x_max":538,"o":"m 538 0 l 458 0 l 399 281 l 160 281 l 101 0 l 24 0 l 228 951 q 171 984 183 960 q 158 1069 158 1008 q 166 1146 158 1121 q 199 1183 174 1171 q 281 1194 225 1194 q 362 1183 336 1194 q 395 1145 388 1171 q 403 1069 403 1119 q 390 984 403 1010 q 333 951 376 958 l 538 0 m 281 1146 q 238 1140 251 1146 q 222 1118 225 1133 q 218 1069 218 1103 q 222 1023 218 1038 q 238 1002 225 1008 q 281 996 251 996 q 333 1010 322 996 q 343 1069 343 1024 q 333 1131 343 1117 q 281 1146 322 1146 m 172 350 l 386 350 l 283 840 l 275 840 l 172 350 m 253 1278 l 253 1285 l 299 1472 l 376 1472 l 376 1465 l 307 1278 l 253 1278 z "},"Ã":{"ha":561,"x_min":24,"x_max":538,"o":"m 458 0 l 399 281 l 160 281 l 101 0 l 24 0 l 231 956 l 331 956 l 538 0 l 458 0 m 283 840 l 275 840 l 172 350 l 386 350 l 283 840 m 446 1199 q 432 1088 446 1119 q 374 1057 418 1057 q 331 1065 351 1057 q 275 1090 310 1074 q 231 1113 250 1106 q 194 1121 213 1121 q 173 1105 178 1121 q 168 1042 168 1089 l 117 1042 q 131 1153 117 1122 q 189 1183 144 1183 q 236 1174 213 1183 q 292 1147 260 1165 q 335 1126 318 1133 q 367 1119 351 1119 q 389 1137 383 1119 q 394 1199 394 1154 l 446 1199 z "},"Æ":{"ha":756,"x_min":-3,"x_max":715,"o":"m 432 0 l 392 281 l 154 281 l 74 0 l -3 0 l 271 956 l 715 956 l 715 885 l 385 885 l 438 519 l 679 519 l 679 447 l 446 447 l 503 71 l 715 71 l 715 0 l 432 0 m 318 840 l 310 840 l 169 350 l 385 350 l 318 840 z "},"Ǽ":{"ha":756,"x_min":-3,"x_max":715,"o":"m 432 0 l 392 281 l 154 281 l 74 0 l -3 0 l 271 956 l 715 956 l 715 885 l 385 885 l 438 519 l 679 519 l 679 447 l 446 447 l 503 71 l 715 71 l 715 0 l 432 0 m 318 840 l 310 840 l 169 350 l 385 350 l 318 840 m 351 1039 l 351 1046 l 397 1233 l 475 1233 l 475 1226 l 406 1039 l 351 1039 z "},"B":{"ha":558,"x_min":83,"x_max":503,"o":"m 83 956 l 296 956 q 451 894 406 956 q 496 717 496 833 q 465 564 496 619 q 368 492 435 508 l 368 486 q 475 410 447 469 q 503 251 503 350 q 458 67 503 135 q 290 0 414 0 l 83 0 l 83 956 m 283 519 q 385 565 350 519 q 421 701 421 610 q 392 844 421 803 q 283 885 364 885 l 160 885 l 160 519 l 283 519 m 285 71 q 396 114 365 71 q 426 261 426 157 q 394 406 426 363 q 285 449 361 449 l 160 449 l 160 71 l 285 71 z "},"C":{"ha":440,"x_min":63,"x_max":407,"o":"m 407 4 q 351 -7 383 -3 q 290 -11 318 -11 q 142 25 189 -11 q 79 160 96 61 q 63 478 63 260 q 79 794 63 694 q 142 930 96 893 q 290 967 189 967 q 353 962 321 967 q 404 949 386 957 l 404 882 q 303 896 356 896 q 192 869 225 896 q 150 760 160 842 q 140 478 140 678 q 150 196 140 278 q 192 87 160 114 q 303 60 225 60 q 358 64 328 60 q 407 74 388 68 l 407 4 z "},"Ć":{"ha":440,"x_min":63,"x_max":407,"o":"m 407 4 q 351 -7 383 -3 q 290 -11 318 -11 q 142 25 189 -11 q 79 160 96 61 q 63 478 63 260 q 79 794 63 694 q 142 930 96 893 q 290 967 189 967 q 353 962 321 967 q 404 949 386 957 l 404 882 q 303 896 356 896 q 192 869 225 896 q 150 760 160 842 q 140 478 140 678 q 150 196 140 278 q 192 87 160 114 q 303 60 225 60 q 358 64 328 60 q 407 74 388 68 l 407 4 m 193 1039 l 193 1046 l 239 1233 l 317 1233 l 317 1226 l 247 1039 l 193 1039 z "},"Č":{"ha":440,"x_min":63,"x_max":407,"o":"m 407 4 q 351 -7 383 -3 q 290 -11 318 -11 q 142 25 189 -11 q 79 160 96 61 q 63 478 63 260 q 79 794 63 694 q 142 930 96 893 q 290 967 189 967 q 353 962 321 967 q 404 949 386 957 l 404 882 q 303 896 356 896 q 192 869 225 896 q 150 760 160 842 q 140 478 140 678 q 150 196 140 278 q 192 87 160 114 q 303 60 225 60 q 358 64 328 60 q 407 74 388 68 l 407 4 m 178 1046 l 85 1225 l 85 1233 l 139 1233 l 219 1096 l 303 1233 l 356 1233 l 356 1225 l 263 1046 l 178 1046 z "},"Ç":{"ha":440,"x_min":63,"x_max":407,"o":"m 303 60 q 358 64 328 60 q 407 74 388 68 l 407 4 q 351 -7 383 -3 q 290 -11 318 -11 q 243 -10 257 -11 l 188 -264 l 114 -264 l 114 -257 l 192 0 q 110 63 138 15 q 72 206 82 111 q 63 478 63 301 q 79 794 63 694 q 142 930 96 893 q 290 967 189 967 q 353 962 321 967 q 404 949 386 957 l 404 882 q 303 896 356 896 q 192 869 225 896 q 150 760 160 842 q 140 478 140 678 q 150 196 140 278 q 192 87 160 114 q 303 60 225 60 z "},"Ĉ":{"ha":440,"x_min":63,"x_max":407,"o":"m 407 4 q 351 -7 383 -3 q 290 -11 318 -11 q 142 25 189 -11 q 79 160 96 61 q 63 478 63 260 q 79 794 63 694 q 142 930 96 893 q 290 967 189 967 q 353 962 321 967 q 404 949 386 957 l 404 882 q 303 896 356 896 q 192 869 225 896 q 150 760 160 842 q 140 478 140 678 q 150 196 140 278 q 192 87 160 114 q 303 60 225 60 q 358 64 328 60 q 407 74 388 68 l 407 4 m 85 1046 l 85 1053 l 178 1233 l 263 1233 l 356 1053 l 356 1046 l 303 1046 l 219 1183 l 139 1046 l 85 1046 z "},"Ċ":{"ha":440,"x_min":63,"x_max":407,"o":"m 407 4 q 351 -7 383 -3 q 290 -11 318 -11 q 142 25 189 -11 q 79 160 96 61 q 63 478 63 260 q 79 794 63 694 q 142 930 96 893 q 290 967 189 967 q 353 962 321 967 q 404 949 386 957 l 404 882 q 303 896 356 896 q 192 869 225 896 q 150 760 160 842 q 140 478 140 678 q 150 196 140 278 q 192 87 160 114 q 303 60 225 60 q 358 64 328 60 q 407 74 388 68 l 407 4 m 182 1119 l 182 1215 l 257 1215 l 257 1119 l 182 1119 z "},"D":{"ha":565,"x_min":83,"x_max":501,"o":"m 83 956 l 271 956 q 426 920 379 956 q 487 790 472 885 q 501 478 501 694 q 487 166 501 261 q 426 35 472 71 q 271 0 379 0 l 83 0 l 83 956 m 271 71 q 374 93 344 71 q 414 197 403 115 q 425 478 425 278 q 414 759 425 678 q 374 863 403 840 q 271 885 344 885 l 160 885 l 160 71 l 271 71 z "},"Ǳ":{"ha":1033,"x_min":83,"x_max":1004,"o":"m 83 956 l 271 956 q 426 920 379 956 q 487 790 472 885 q 501 478 501 694 q 487 166 501 261 q 426 35 472 71 q 271 0 379 0 l 83 0 l 83 956 m 271 71 q 374 93 344 71 q 414 197 403 115 q 425 478 425 278 q 414 759 425 678 q 374 863 403 840 q 271 885 344 885 l 160 885 l 160 71 l 271 71 m 594 0 l 594 67 l 915 885 l 603 885 l 603 956 l 999 956 l 999 889 l 678 71 l 1004 71 l 1004 0 l 594 0 z "},"Ǆ":{"ha":1033,"x_min":83,"x_max":1004,"o":"m 83 956 l 271 956 q 426 920 379 956 q 487 790 472 885 q 501 478 501 694 q 487 166 501 261 q 426 35 472 71 q 271 0 379 0 l 83 0 l 83 956 m 271 71 q 374 93 344 71 q 414 197 403 115 q 425 478 425 278 q 414 759 425 678 q 374 863 403 840 q 271 885 344 885 l 160 885 l 160 71 l 271 71 m 594 0 l 594 67 l 915 885 l 603 885 l 603 956 l 999 956 l 999 889 l 678 71 l 1004 71 l 1004 0 l 594 0 m 760 1046 l 667 1225 l 667 1233 l 721 1233 l 801 1096 l 885 1233 l 938 1233 l 938 1225 l 844 1046 l 760 1046 z "},"Ð":{"ha":565,"x_min":13,"x_max":501,"o":"m 83 447 l 13 447 l 13 521 l 83 521 l 83 956 l 271 956 q 426 920 379 956 q 487 790 472 885 q 501 478 501 694 q 487 166 501 261 q 426 35 472 71 q 271 0 379 0 l 83 0 l 83 447 m 271 71 q 374 93 344 71 q 414 197 403 115 q 425 478 425 278 q 414 759 425 678 q 374 863 403 840 q 271 885 344 885 l 160 885 l 160 521 l 300 521 l 300 447 l 160 447 l 160 71 l 271 71 z "},"Ď":{"ha":565,"x_min":83,"x_max":501,"o":"m 83 956 l 271 956 q 426 920 379 956 q 487 790 472 885 q 501 478 501 694 q 487 166 501 261 q 426 35 472 71 q 271 0 379 0 l 83 0 l 83 956 m 271 71 q 374 93 344 71 q 414 197 403 115 q 425 478 425 278 q 414 759 425 678 q 374 863 403 840 q 271 885 344 885 l 160 885 l 160 71 l 271 71 m 240 1046 l 147 1225 l 147 1233 l 201 1233 l 282 1096 l 365 1233 l 418 1233 l 418 1225 l 325 1046 l 240 1046 z "},"Đ":{"ha":565,"x_min":13,"x_max":501,"o":"m 83 447 l 13 447 l 13 521 l 83 521 l 83 956 l 271 956 q 426 920 379 956 q 487 790 472 885 q 501 478 501 694 q 487 166 501 261 q 426 35 472 71 q 271 0 379 0 l 83 0 l 83 447 m 271 71 q 374 93 344 71 q 414 197 403 115 q 425 478 425 278 q 414 759 425 678 q 374 863 403 840 q 271 885 344 885 l 160 885 l 160 521 l 300 521 l 300 447 l 160 447 l 160 71 l 271 71 z "},"Ḍ":{"ha":565,"x_min":83,"x_max":501,"o":"m 83 956 l 271 956 q 426 920 379 956 q 487 790 472 885 q 501 478 501 694 q 487 166 501 261 q 426 35 472 71 q 271 0 379 0 l 83 0 l 83 956 m 271 71 q 374 93 344 71 q 414 197 403 115 q 425 478 425 278 q 414 759 425 678 q 374 863 403 840 q 271 885 344 885 l 160 885 l 160 71 l 271 71 m 240 -194 l 240 -86 l 328 -86 l 328 -194 l 240 -194 z "},"ǲ":{"ha":989,"x_min":83,"x_max":953,"o":"m 83 956 l 271 956 q 426 920 379 956 q 487 790 472 885 q 501 478 501 694 q 487 166 501 261 q 426 35 472 71 q 271 0 379 0 l 83 0 l 83 956 m 271 71 q 374 93 344 71 q 414 197 403 115 q 425 478 425 278 q 414 759 425 678 q 374 863 403 840 q 271 885 344 885 l 160 885 l 160 71 l 271 71 m 601 0 l 601 58 l 869 643 l 610 643 l 610 708 l 951 708 l 951 650 l 685 65 l 953 65 l 953 0 l 601 0 z "},"ǅ":{"ha":989,"x_min":83,"x_max":953,"o":"m 83 956 l 271 956 q 426 920 379 956 q 487 790 472 885 q 501 478 501 694 q 487 166 501 261 q 426 35 472 71 q 271 0 379 0 l 83 0 l 83 956 m 271 71 q 374 93 344 71 q 414 197 403 115 q 425 478 425 278 q 414 759 425 678 q 374 863 403 840 q 271 885 344 885 l 160 885 l 160 71 l 271 71 m 601 0 l 601 58 l 869 643 l 610 643 l 610 708 l 951 708 l 951 650 l 685 65 l 953 65 l 953 0 l 601 0 m 743 844 l 650 1024 l 650 1032 l 704 1032 l 785 894 l 868 1032 l 921 1032 l 921 1024 l 828 844 l 743 844 z "},"E":{"ha":482,"x_min":83,"x_max":442,"o":"m 83 0 l 83 956 l 442 956 l 442 885 l 161 885 l 161 519 l 407 519 l 407 447 l 161 447 l 161 71 l 442 71 l 442 0 l 83 0 z "},"É":{"ha":482,"x_min":83,"x_max":442,"o":"m 83 0 l 83 956 l 442 956 l 442 885 l 161 885 l 161 519 l 407 519 l 407 447 l 161 447 l 161 71 l 442 71 l 442 0 l 83 0 m 240 1042 l 240 1049 l 286 1236 l 364 1236 l 364 1229 l 294 1042 l 240 1042 z "},"Ĕ":{"ha":482,"x_min":83,"x_max":442,"o":"m 83 0 l 83 956 l 442 956 l 442 885 l 161 885 l 161 519 l 407 519 l 407 447 l 161 447 l 161 71 l 442 71 l 442 0 l 83 0 m 397 1233 q 390 1126 397 1165 q 353 1064 382 1088 q 261 1040 324 1040 q 170 1064 199 1040 q 134 1126 142 1088 q 126 1233 126 1164 l 185 1233 q 189 1150 185 1178 q 209 1107 193 1122 q 261 1092 225 1092 q 314 1107 297 1092 q 335 1150 331 1122 q 339 1233 339 1178 l 397 1233 z "},"Ě":{"ha":482,"x_min":83,"x_max":442,"o":"m 83 0 l 83 956 l 442 956 l 442 885 l 161 885 l 161 519 l 407 519 l 407 447 l 161 447 l 161 71 l 442 71 l 442 0 l 83 0 m 219 1046 l 126 1225 l 126 1233 l 181 1233 l 261 1096 l 344 1233 l 397 1233 l 397 1225 l 304 1046 l 219 1046 z "},"Ê":{"ha":482,"x_min":83,"x_max":442,"o":"m 83 0 l 83 956 l 442 956 l 442 885 l 161 885 l 161 519 l 407 519 l 407 447 l 161 447 l 161 71 l 442 71 l 442 0 l 83 0 m 126 1042 l 126 1049 l 219 1229 l 304 1229 l 397 1049 l 397 1042 l 344 1042 l 261 1179 l 181 1042 l 126 1042 z "},"Ế":{"ha":482,"x_min":83,"x_max":460,"o":"m 83 0 l 83 956 l 442 956 l 442 885 l 161 885 l 161 519 l 407 519 l 407 447 l 161 447 l 161 71 l 442 71 l 442 0 l 83 0 m 126 1026 l 126 1033 l 219 1214 l 304 1214 l 397 1033 l 397 1026 l 344 1026 l 261 1164 l 181 1026 l 126 1026 m 336 1219 l 336 1226 l 382 1414 l 460 1414 l 460 1407 l 390 1219 l 336 1219 z "},"Ệ":{"ha":482,"x_min":83,"x_max":442,"o":"m 83 0 l 83 956 l 442 956 l 442 885 l 161 885 l 161 519 l 407 519 l 407 447 l 161 447 l 161 71 l 442 71 l 442 0 l 83 0 m 219 -194 l 219 -86 l 307 -86 l 307 -194 l 219 -194 m 126 1046 l 126 1053 l 219 1233 l 304 1233 l 397 1053 l 397 1046 l 344 1046 l 261 1183 l 181 1046 l 126 1046 z "},"Ề":{"ha":482,"x_min":83,"x_max":442,"o":"m 83 0 l 83 956 l 442 956 l 442 885 l 161 885 l 161 519 l 407 519 l 407 447 l 161 447 l 161 71 l 442 71 l 442 0 l 83 0 m 124 1026 l 124 1033 l 217 1214 l 301 1214 l 394 1033 l 394 1026 l 342 1026 l 258 1164 l 178 1026 l 124 1026 m 336 1219 l 267 1407 l 267 1414 l 344 1414 l 390 1226 l 390 1219 l 336 1219 z "},"Ể":{"ha":482,"x_min":83,"x_max":497,"o":"m 83 0 l 83 956 l 442 956 l 442 885 l 161 885 l 161 519 l 407 519 l 407 447 l 161 447 l 161 71 l 442 71 l 442 0 l 83 0 m 126 1028 l 126 1035 l 219 1215 l 304 1215 l 397 1035 l 397 1028 l 344 1028 l 261 1165 l 181 1028 l 126 1028 m 319 1235 q 330 1274 319 1263 q 367 1294 340 1285 l 382 1297 q 426 1319 414 1308 q 439 1356 439 1329 q 435 1385 439 1376 q 414 1399 431 1394 q 360 1403 397 1403 l 306 1401 q 253 1399 272 1399 l 253 1446 q 369 1457 336 1457 q 470 1437 443 1457 q 497 1368 497 1417 q 488 1306 497 1325 q 442 1272 479 1286 l 429 1268 q 390 1252 401 1257 q 376 1240 379 1247 q 374 1219 374 1233 l 319 1219 l 319 1235 z "},"Ễ":{"ha":482,"x_min":83,"x_max":442,"o":"m 83 0 l 83 956 l 442 956 l 442 885 l 161 885 l 161 519 l 407 519 l 407 447 l 161 447 l 161 71 l 442 71 l 442 0 l 83 0 m 124 1028 l 124 1035 l 217 1215 l 301 1215 l 394 1035 l 394 1028 l 342 1028 l 258 1165 l 178 1028 l 124 1028 m 426 1456 q 413 1345 426 1376 q 354 1314 399 1314 q 311 1322 332 1314 q 256 1347 290 1331 q 212 1370 231 1363 q 175 1378 193 1378 q 153 1362 158 1378 q 149 1299 149 1346 l 97 1299 q 111 1410 97 1379 q 169 1440 125 1440 q 217 1431 193 1440 q 272 1404 240 1422 q 315 1383 299 1390 q 347 1376 332 1376 q 369 1394 364 1376 q 375 1456 375 1411 l 426 1456 z "},"Ȅ":{"ha":482,"x_min":83,"x_max":442,"o":"m 83 0 l 83 956 l 442 956 l 442 885 l 161 885 l 161 519 l 407 519 l 407 447 l 161 447 l 161 71 l 442 71 l 442 0 l 83 0 m 214 1050 l 165 1050 l 100 1208 l 100 1215 l 172 1215 l 214 1057 l 214 1050 m 360 1050 l 311 1050 l 246 1208 l 246 1215 l 318 1215 l 360 1057 l 360 1050 z "},"Ë":{"ha":482,"x_min":83,"x_max":442,"o":"m 83 0 l 83 956 l 442 956 l 442 885 l 161 885 l 161 519 l 407 519 l 407 447 l 161 447 l 161 71 l 442 71 l 442 0 l 83 0 m 110 1071 l 110 1167 l 185 1167 l 185 1071 l 110 1071 m 343 1071 l 343 1167 l 419 1167 l 419 1071 l 343 1071 z "},"Ė":{"ha":482,"x_min":83,"x_max":442,"o":"m 83 0 l 83 956 l 442 956 l 442 885 l 161 885 l 161 519 l 407 519 l 407 447 l 161 447 l 161 71 l 442 71 l 442 0 l 83 0 m 224 1119 l 224 1215 l 299 1215 l 299 1119 l 224 1119 z "},"Ẹ":{"ha":482,"x_min":83,"x_max":442,"o":"m 83 0 l 83 956 l 442 956 l 442 885 l 161 885 l 161 519 l 407 519 l 407 447 l 161 447 l 161 71 l 442 71 l 442 0 l 83 0 m 219 -194 l 219 -86 l 307 -86 l 307 -194 l 219 -194 z "},"È":{"ha":482,"x_min":83,"x_max":442,"o":"m 83 0 l 83 956 l 442 956 l 442 885 l 161 885 l 161 519 l 407 519 l 407 447 l 161 447 l 161 71 l 442 71 l 442 0 l 83 0 m 250 1042 l 181 1229 l 181 1236 l 258 1236 l 304 1049 l 304 1042 l 250 1042 z "},"Ẻ":{"ha":482,"x_min":83,"x_max":442,"o":"m 83 0 l 83 956 l 442 956 l 442 885 l 161 885 l 161 519 l 407 519 l 407 447 l 161 447 l 161 71 l 442 71 l 442 0 l 83 0 m 206 1044 q 216 1084 206 1072 q 253 1104 226 1096 l 268 1108 q 313 1128 300 1118 q 325 1167 325 1139 q 321 1196 325 1188 q 300 1208 317 1204 q 246 1213 283 1213 q 139 1208 203 1213 l 139 1256 q 256 1267 222 1267 q 356 1247 329 1267 q 383 1178 383 1226 q 374 1115 383 1135 q 328 1082 365 1096 l 315 1078 q 268 1057 276 1064 q 260 1029 260 1050 l 206 1029 l 206 1044 z "},"Ȇ":{"ha":482,"x_min":83,"x_max":442,"o":"m 83 0 l 83 956 l 442 956 l 442 885 l 161 885 l 161 519 l 407 519 l 407 447 l 161 447 l 161 71 l 442 71 l 442 0 l 83 0 m 126 1049 q 134 1156 126 1117 q 171 1218 142 1194 q 263 1242 200 1242 q 353 1218 325 1242 q 390 1156 382 1194 q 397 1049 397 1118 l 339 1049 q 335 1132 339 1104 q 315 1175 331 1160 q 263 1190 299 1190 q 210 1175 226 1190 q 189 1132 193 1160 q 185 1049 185 1104 l 126 1049 z "},"Ē":{"ha":482,"x_min":83,"x_max":442,"o":"m 83 0 l 83 956 l 442 956 l 442 885 l 161 885 l 161 519 l 407 519 l 407 447 l 161 447 l 161 71 l 442 71 l 442 0 l 83 0 m 146 1161 l 146 1233 l 378 1233 l 378 1161 l 146 1161 z "},"Ę":{"ha":482,"x_min":83,"x_max":442,"o":"m 397 -272 q 313 -244 340 -272 q 286 -172 286 -215 q 312 -83 286 -128 q 379 0 338 -37 l 83 0 l 83 956 l 442 956 l 442 885 l 161 885 l 161 519 l 407 519 l 407 447 l 161 447 l 161 71 l 442 71 l 442 0 q 379 -72 408 -26 q 350 -157 350 -118 q 365 -200 350 -183 q 413 -217 379 -217 l 435 -215 l 435 -269 q 397 -272 421 -272 z "},"Ẽ":{"ha":482,"x_min":83,"x_max":442,"o":"m 83 0 l 83 956 l 442 956 l 442 885 l 161 885 l 161 519 l 407 519 l 407 447 l 161 447 l 161 71 l 442 71 l 442 0 l 83 0 m 426 1233 q 413 1123 426 1154 q 354 1092 399 1092 q 311 1100 332 1092 q 256 1125 290 1108 q 212 1148 231 1140 q 175 1156 193 1156 q 153 1140 158 1156 q 149 1076 149 1124 l 97 1076 q 111 1188 97 1157 q 169 1218 125 1218 q 217 1209 193 1218 q 272 1182 240 1200 q 315 1161 299 1168 q 347 1154 332 1154 q 369 1172 364 1154 q 375 1233 375 1189 l 426 1233 z "},"F":{"ha":457,"x_min":83,"x_max":425,"o":"m 83 0 l 83 956 l 425 956 l 425 885 l 161 885 l 161 500 l 397 500 l 397 428 l 161 428 l 161 0 l 83 0 z "},"G":{"ha":547,"x_min":63,"x_max":486,"o":"m 288 429 l 288 499 l 486 499 l 486 14 q 395 -4 446 3 q 303 -11 344 -11 q 152 25 201 -11 q 83 163 103 61 q 63 478 63 265 q 81 791 63 690 q 151 929 100 892 q 307 967 201 967 q 400 960 350 967 q 485 942 450 953 l 485 875 q 336 896 390 896 q 207 874 244 896 q 155 767 169 851 q 140 478 140 683 q 151 204 140 288 q 194 90 161 121 q 303 60 228 60 q 363 64 332 60 q 413 74 394 68 l 413 429 l 288 429 z "},"Ǵ":{"ha":547,"x_min":63,"x_max":486,"o":"m 288 429 l 288 499 l 486 499 l 486 14 q 395 -4 446 3 q 303 -11 344 -11 q 152 25 201 -11 q 83 163 103 61 q 63 478 63 265 q 81 791 63 690 q 151 929 100 892 q 307 967 201 967 q 400 960 350 967 q 485 942 450 953 l 485 875 q 336 896 390 896 q 207 874 244 896 q 155 767 169 851 q 140 478 140 683 q 151 204 140 288 q 194 90 161 121 q 303 60 228 60 q 363 64 332 60 q 413 74 394 68 l 413 429 l 288 429 m 246 1039 l 246 1046 l 292 1233 l 369 1233 l 369 1226 l 300 1039 l 246 1039 z "},"Ğ":{"ha":547,"x_min":63,"x_max":486,"o":"m 288 429 l 288 499 l 486 499 l 486 14 q 395 -4 446 3 q 303 -11 344 -11 q 152 25 201 -11 q 83 163 103 61 q 63 478 63 265 q 81 791 63 690 q 151 929 100 892 q 307 967 201 967 q 400 960 350 967 q 485 942 450 953 l 485 875 q 336 896 390 896 q 207 874 244 896 q 155 767 169 851 q 140 478 140 683 q 151 204 140 288 q 194 90 161 121 q 303 60 228 60 q 363 64 332 60 q 413 74 394 68 l 413 429 l 288 429 m 408 1233 q 401 1126 408 1165 q 364 1064 393 1088 q 272 1040 335 1040 q 181 1064 210 1040 q 145 1126 153 1088 q 138 1233 138 1164 l 196 1233 q 200 1150 196 1178 q 220 1107 204 1122 q 272 1092 236 1092 q 325 1107 308 1092 q 346 1150 342 1122 q 350 1233 350 1178 l 408 1233 z "},"Ǧ":{"ha":547,"x_min":63,"x_max":486,"o":"m 288 429 l 288 499 l 486 499 l 486 14 q 395 -4 446 3 q 303 -11 344 -11 q 152 25 201 -11 q 83 163 103 61 q 63 478 63 265 q 81 791 63 690 q 151 929 100 892 q 307 967 201 967 q 400 960 350 967 q 485 942 450 953 l 485 875 q 336 896 390 896 q 207 874 244 896 q 155 767 169 851 q 140 478 140 683 q 151 204 140 288 q 194 90 161 121 q 303 60 228 60 q 363 64 332 60 q 413 74 394 68 l 413 429 l 288 429 m 231 1046 l 138 1225 l 138 1233 l 192 1233 l 272 1096 l 356 1233 l 408 1233 l 408 1225 l 315 1046 l 231 1046 z "},"Ĝ":{"ha":547,"x_min":63,"x_max":486,"o":"m 288 429 l 288 499 l 486 499 l 486 14 q 395 -4 446 3 q 303 -11 344 -11 q 152 25 201 -11 q 83 163 103 61 q 63 478 63 265 q 81 791 63 690 q 151 929 100 892 q 307 967 201 967 q 400 960 350 967 q 485 942 450 953 l 485 875 q 336 896 390 896 q 207 874 244 896 q 155 767 169 851 q 140 478 140 683 q 151 204 140 288 q 194 90 161 121 q 303 60 228 60 q 363 64 332 60 q 413 74 394 68 l 413 429 l 288 429 m 138 1046 l 138 1053 l 231 1233 l 315 1233 l 408 1053 l 408 1046 l 356 1046 l 272 1183 l 192 1046 l 138 1046 z "},"Ģ":{"ha":547,"x_min":63,"x_max":486,"o":"m 288 429 l 288 499 l 486 499 l 486 14 q 395 -4 446 3 q 303 -11 344 -11 q 152 25 201 -11 q 83 163 103 61 q 63 478 63 265 q 81 791 63 690 q 151 929 100 892 q 307 967 201 967 q 400 960 350 967 q 485 942 450 953 l 485 875 q 336 896 390 896 q 207 874 244 896 q 155 767 169 851 q 140 478 140 683 q 151 204 140 288 q 194 90 161 121 q 303 60 228 60 q 363 64 332 60 q 413 74 394 68 l 413 429 l 288 429 m 218 -292 q 260 -284 247 -292 q 277 -260 274 -276 q 281 -207 281 -243 l 281 -185 l 244 -185 l 244 -86 l 332 -86 l 332 -186 q 323 -276 332 -246 q 290 -318 314 -306 q 218 -331 267 -331 l 218 -292 z "},"Ġ":{"ha":547,"x_min":63,"x_max":486,"o":"m 288 429 l 288 499 l 486 499 l 486 14 q 395 -4 446 3 q 303 -11 344 -11 q 152 25 201 -11 q 83 163 103 61 q 63 478 63 265 q 81 791 63 690 q 151 929 100 892 q 307 967 201 967 q 400 960 350 967 q 485 942 450 953 l 485 875 q 336 896 390 896 q 207 874 244 896 q 155 767 169 851 q 140 478 140 683 q 151 204 140 288 q 194 90 161 121 q 303 60 228 60 q 363 64 332 60 q 413 74 394 68 l 413 429 l 288 429 m 235 1119 l 235 1215 l 310 1215 l 310 1119 l 235 1119 z "},"H":{"ha":600,"x_min":83,"x_max":517,"o":"m 440 0 l 440 446 l 160 446 l 160 0 l 83 0 l 83 956 l 160 956 l 160 519 l 440 519 l 440 956 l 517 956 l 517 0 l 440 0 z "},"Ħ":{"ha":600,"x_min":83,"x_max":517,"o":"m 440 956 l 517 956 l 517 0 l 440 0 l 440 414 l 160 414 l 160 0 l 83 0 l 83 956 l 160 956 l 160 756 l 440 756 l 440 956 m 160 488 l 440 488 l 440 682 l 160 682 l 160 488 z "},"Ĥ":{"ha":600,"x_min":83,"x_max":517,"o":"m 440 0 l 440 446 l 160 446 l 160 0 l 83 0 l 83 956 l 160 956 l 160 519 l 440 519 l 440 956 l 517 956 l 517 0 l 440 0 m 164 1046 l 164 1053 l 257 1233 l 342 1233 l 435 1053 l 435 1046 l 382 1046 l 299 1183 l 218 1046 l 164 1046 z "},"Ḥ":{"ha":600,"x_min":83,"x_max":517,"o":"m 440 0 l 440 446 l 160 446 l 160 0 l 83 0 l 83 956 l 160 956 l 160 519 l 440 519 l 440 956 l 517 956 l 517 0 l 440 0 m 257 -194 l 257 -86 l 344 -86 l 344 -194 l 257 -194 z "},"I":{"ha":254,"x_min":89,"x_max":165,"o":"m 89 0 l 89 956 l 165 956 l 165 0 l 89 0 z "},"Ĳ":{"ha":521,"x_min":89,"x_max":444,"o":"m 89 0 l 89 956 l 165 956 l 165 0 l 89 0 m 267 69 q 338 85 319 72 q 362 142 357 97 q 367 317 367 188 l 367 956 l 444 956 l 444 335 q 435 103 444 165 q 392 22 425 40 q 267 0 358 3 l 267 69 z "},"Í":{"ha":254,"x_min":89,"x_max":213,"o":"m 89 0 l 89 956 l 165 956 l 165 0 l 89 0 m 89 1042 l 89 1049 l 135 1236 l 213 1236 l 213 1229 l 143 1042 l 89 1042 z "},"Ĭ":{"ha":254,"x_min":-8,"x_max":263,"o":"m 89 0 l 89 956 l 165 956 l 165 0 l 89 0 m 263 1233 q 255 1126 263 1165 q 218 1064 247 1088 q 126 1040 189 1040 q 35 1064 64 1040 q -1 1126 7 1088 q -8 1233 -8 1164 l 50 1233 q 54 1150 50 1178 q 74 1107 58 1122 q 126 1092 90 1092 q 179 1107 163 1092 q 200 1150 196 1122 q 204 1233 204 1178 l 263 1233 z "},"Ǐ":{"ha":254,"x_min":-8,"x_max":263,"o":"m 89 0 l 89 956 l 165 956 l 165 0 l 89 0 m 85 1046 l -8 1225 l -8 1233 l 46 1233 l 126 1096 l 210 1233 l 263 1233 l 263 1225 l 169 1046 l 85 1046 z "},"Î":{"ha":254,"x_min":-8,"x_max":263,"o":"m 89 0 l 89 956 l 165 956 l 165 0 l 89 0 m -8 1042 l -8 1049 l 85 1229 l 169 1229 l 263 1049 l 263 1042 l 210 1042 l 126 1179 l 46 1042 l -8 1042 z "},"Ȉ":{"ha":254,"x_min":-35,"x_max":225,"o":"m 89 0 l 89 956 l 165 956 l 165 0 l 89 0 m 79 1050 l 31 1050 l -35 1208 l -35 1215 l 38 1215 l 79 1057 l 79 1050 m 225 1050 l 176 1050 l 111 1208 l 111 1215 l 183 1215 l 225 1057 l 225 1050 z "},"Ï":{"ha":254,"x_min":-26,"x_max":283,"o":"m 89 0 l 89 956 l 165 956 l 165 0 l 89 0 m -26 1071 l -26 1167 l 49 1167 l 49 1071 l -26 1071 m 207 1071 l 207 1167 l 283 1167 l 283 1071 l 207 1071 z "},"İ":{"ha":254,"x_min":89,"x_max":165,"o":"m 89 0 l 89 956 l 165 956 l 165 0 l 89 0 m 89 1119 l 89 1215 l 164 1215 l 164 1119 l 89 1119 z "},"Ị":{"ha":254,"x_min":85,"x_max":172,"o":"m 89 0 l 89 956 l 165 956 l 165 0 l 89 0 m 85 -194 l 85 -86 l 172 -86 l 172 -194 l 85 -194 z "},"Ì":{"ha":254,"x_min":42,"x_max":165,"o":"m 89 0 l 89 956 l 165 956 l 165 0 l 89 0 m 111 1042 l 42 1229 l 42 1236 l 119 1236 l 165 1049 l 165 1042 l 111 1042 z "},"Ỉ":{"ha":254,"x_min":4,"x_max":249,"o":"m 89 0 l 89 956 l 165 956 l 165 0 l 89 0 m 71 1044 q 81 1084 71 1072 q 118 1104 92 1096 l 133 1108 q 178 1128 165 1118 q 190 1167 190 1139 q 186 1196 190 1188 q 165 1208 182 1204 q 111 1213 149 1213 q 4 1208 68 1213 l 4 1256 q 121 1267 88 1267 q 222 1247 194 1267 q 249 1178 249 1226 q 240 1115 249 1135 q 193 1082 231 1096 l 181 1078 q 133 1057 142 1064 q 125 1029 125 1050 l 71 1029 l 71 1044 z "},"Ȋ":{"ha":254,"x_min":-8,"x_max":263,"o":"m 89 0 l 89 956 l 165 956 l 165 0 l 89 0 m -8 1049 q -1 1156 -8 1117 q 36 1218 7 1194 q 128 1242 65 1242 q 219 1218 190 1242 q 255 1156 247 1194 q 263 1049 263 1118 l 204 1049 q 200 1132 204 1104 q 180 1175 196 1160 q 128 1190 164 1190 q 75 1175 92 1190 q 54 1132 58 1160 q 50 1049 50 1104 l -8 1049 z "},"Ī":{"ha":254,"x_min":11,"x_max":243,"o":"m 89 0 l 89 956 l 165 956 l 165 0 l 89 0 m 11 1161 l 11 1233 l 243 1233 l 243 1161 l 11 1161 z "},"Į":{"ha":254,"x_min":19,"x_max":167,"o":"m 129 -272 q 46 -244 72 -272 q 19 -168 19 -215 q 42 -82 19 -128 q 103 0 65 -36 l 89 0 l 89 956 l 165 956 l 165 0 q 110 -72 136 -26 q 83 -156 83 -118 q 144 -217 83 -217 l 167 -215 l 167 -269 q 129 -272 154 -272 z "},"Ĩ":{"ha":254,"x_min":-37,"x_max":292,"o":"m 89 0 l 89 956 l 165 956 l 165 0 l 89 0 m 292 1233 q 278 1123 292 1154 q 219 1092 264 1092 q 176 1100 197 1092 q 121 1125 156 1108 q 77 1148 96 1140 q 40 1156 58 1156 q 19 1140 24 1156 q 14 1076 14 1124 l -37 1076 q -24 1188 -37 1157 q 35 1218 -10 1218 q 82 1209 58 1218 q 138 1182 106 1200 q 181 1161 164 1168 q 213 1154 197 1154 q 235 1172 229 1154 q 240 1233 240 1189 l 292 1233 z "},"J":{"ha":267,"x_min":13,"x_max":190,"o":"m 13 69 q 84 85 65 72 q 108 142 103 97 q 113 317 113 188 l 113 956 l 190 956 l 190 335 q 181 103 190 165 q 138 22 171 40 q 13 0 104 3 l 13 69 z "},"Ĵ":{"ha":267,"x_min":13,"x_max":286,"o":"m 13 69 q 84 85 65 72 q 108 142 103 97 q 113 317 113 188 l 113 956 l 190 956 l 190 335 q 181 103 190 165 q 138 22 171 40 q 13 0 104 3 l 13 69 m 15 1046 l 15 1053 l 108 1233 l 193 1233 l 286 1053 l 286 1046 l 233 1046 l 150 1183 l 69 1046 l 15 1046 z "},"K":{"ha":542,"x_min":83,"x_max":524,"o":"m 442 0 l 260 449 l 160 449 l 160 0 l 83 0 l 83 956 l 160 956 l 160 521 l 260 521 l 440 956 l 521 956 l 324 486 l 524 0 l 442 0 z "},"Ķ":{"ha":542,"x_min":83,"x_max":524,"o":"m 442 0 l 260 449 l 160 449 l 160 0 l 83 0 l 83 956 l 160 956 l 160 521 l 260 521 l 440 956 l 521 956 l 324 486 l 524 0 l 442 0 m 215 -292 q 258 -284 244 -292 q 274 -260 271 -276 q 278 -207 278 -243 l 278 -185 l 242 -185 l 242 -86 l 329 -86 l 329 -186 q 320 -276 329 -246 q 288 -318 311 -306 q 215 -331 264 -331 l 215 -292 z "},"L":{"ha":419,"x_min":83,"x_max":413,"o":"m 83 0 l 83 956 l 161 956 l 161 72 l 413 72 l 413 0 l 83 0 z "},"Ǉ":{"ha":686,"x_min":83,"x_max":610,"o":"m 83 0 l 83 956 l 161 956 l 161 72 l 413 72 l 413 0 l 83 0 m 432 69 q 503 85 485 72 q 527 142 522 97 q 532 317 532 188 l 532 956 l 610 956 l 610 335 q 600 103 610 165 q 557 22 590 40 q 432 0 524 3 l 432 69 z "},"Ĺ":{"ha":419,"x_min":83,"x_max":413,"o":"m 83 0 l 83 956 l 161 956 l 161 72 l 413 72 l 413 0 l 83 0 m 94 1039 l 94 1046 l 140 1233 l 218 1233 l 218 1226 l 149 1039 l 94 1039 z "},"Ľ":{"ha":419,"x_min":83,"x_max":413,"o":"m 83 0 l 83 956 l 161 956 l 161 72 l 413 72 l 413 0 l 83 0 m 260 622 l 278 843 l 278 956 l 354 956 l 354 843 l 311 622 l 260 622 z "},"Ļ":{"ha":419,"x_min":83,"x_max":413,"o":"m 83 0 l 83 956 l 161 956 l 161 72 l 413 72 l 413 0 l 83 0 m 167 -292 q 209 -284 196 -292 q 226 -260 222 -276 q 229 -207 229 -243 l 229 -185 l 193 -185 l 193 -86 l 281 -86 l 281 -186 q 272 -276 281 -246 q 239 -318 263 -306 q 167 -331 215 -331 l 167 -292 z "},"Ŀ":{"ha":433,"x_min":83,"x_max":413,"o":"m 83 0 l 83 956 l 161 956 l 161 72 l 413 72 l 413 0 l 83 0 m 314 450 l 314 558 l 401 558 l 401 450 l 314 450 z "},"ǈ":{"ha":646,"x_min":83,"x_max":571,"o":"m 83 0 l 83 956 l 161 956 l 161 72 l 413 72 l 413 0 l 83 0 m 493 931 l 493 1032 l 571 1032 l 571 931 l 493 931 m 415 -206 q 469 -199 453 -206 q 491 -178 486 -193 q 496 -129 496 -162 l 496 708 l 569 708 l 569 -100 q 555 -211 569 -176 q 509 -256 540 -246 q 415 -265 478 -265 l 415 -206 z "},"Ł":{"ha":419,"x_min":24,"x_max":413,"o":"m 161 72 l 413 72 l 413 0 l 83 0 l 83 393 l 24 371 l 24 440 l 83 463 l 83 956 l 161 956 l 161 490 l 329 553 l 329 485 l 161 422 l 161 72 z "},"M":{"ha":771,"x_min":83,"x_max":688,"o":"m 613 0 l 613 807 l 606 807 l 425 0 l 342 0 l 164 807 l 157 807 l 157 0 l 83 0 l 83 956 l 199 956 l 382 136 l 390 136 l 575 956 l 688 956 l 688 0 l 613 0 z "},"N":{"ha":601,"x_min":83,"x_max":518,"o":"m 439 0 l 163 758 l 157 758 l 157 0 l 83 0 l 83 956 l 165 956 l 439 206 l 444 206 l 444 956 l 518 956 l 518 0 l 439 0 z "},"Ǌ":{"ha":868,"x_min":83,"x_max":792,"o":"m 439 0 l 163 758 l 157 758 l 157 0 l 83 0 l 83 956 l 165 956 l 439 206 l 444 206 l 444 956 l 518 956 l 518 0 l 439 0 m 614 69 q 685 85 667 72 q 709 142 704 97 q 714 317 714 188 l 714 956 l 792 956 l 792 335 q 782 103 792 165 q 739 22 772 40 q 614 0 706 3 l 614 69 z "},"Ń":{"ha":601,"x_min":83,"x_max":518,"o":"m 439 0 l 163 758 l 157 758 l 157 0 l 83 0 l 83 956 l 165 956 l 439 206 l 444 206 l 444 956 l 518 956 l 518 0 l 439 0 m 274 1039 l 274 1046 l 319 1233 l 397 1233 l 397 1226 l 328 1039 l 274 1039 z "},"Ň":{"ha":601,"x_min":83,"x_max":518,"o":"m 439 0 l 163 758 l 157 758 l 157 0 l 83 0 l 83 956 l 165 956 l 439 206 l 444 206 l 444 956 l 518 956 l 518 0 l 439 0 m 258 1046 l 165 1225 l 165 1233 l 219 1233 l 300 1096 l 383 1233 l 436 1233 l 436 1225 l 343 1046 l 258 1046 z "},"Ņ":{"ha":601,"x_min":83,"x_max":518,"o":"m 439 0 l 163 758 l 157 758 l 157 0 l 83 0 l 83 956 l 165 956 l 439 206 l 444 206 l 444 956 l 518 956 l 518 0 l 439 0 m 246 -292 q 288 -284 275 -292 q 305 -260 301 -276 q 308 -207 308 -243 l 308 -185 l 272 -185 l 272 -86 l 360 -86 l 360 -186 q 351 -276 360 -246 q 318 -318 342 -306 q 246 -331 294 -331 l 246 -292 z "},"Ṅ":{"ha":601,"x_min":83,"x_max":518,"o":"m 439 0 l 163 758 l 157 758 l 157 0 l 83 0 l 83 956 l 165 956 l 439 206 l 444 206 l 444 956 l 518 956 l 518 0 l 439 0 m 263 1119 l 263 1215 l 338 1215 l 338 1119 l 263 1119 z "},"Ŋ":{"ha":601,"x_min":83,"x_max":518,"o":"m 518 956 l 518 -108 q 503 -214 518 -181 q 457 -256 488 -247 q 364 -265 426 -265 l 364 -206 q 418 -199 401 -206 q 440 -178 435 -193 q 444 -129 444 -162 l 444 11 l 163 758 l 157 758 l 157 0 l 83 0 l 83 956 l 165 956 l 439 215 l 444 215 l 444 956 l 518 956 z "},"Ɲ":{"ha":601,"x_min":1,"x_max":518,"o":"m 518 956 l 518 0 l 439 0 l 163 758 l 157 758 l 157 -100 q 142 -211 157 -176 q 96 -256 126 -246 q 1 -265 65 -265 l 1 -206 q 56 -199 39 -206 q 78 -178 74 -193 q 83 -129 83 -162 l 83 956 l 165 956 l 439 206 l 444 206 l 444 956 l 518 956 z "},"ǋ":{"ha":828,"x_min":83,"x_max":753,"o":"m 439 0 l 163 758 l 157 758 l 157 0 l 83 0 l 83 956 l 165 956 l 439 206 l 444 206 l 444 956 l 518 956 l 518 0 l 439 0 m 675 931 l 675 1032 l 753 1032 l 753 931 l 675 931 m 597 -206 q 651 -199 635 -206 q 673 -178 668 -193 q 678 -129 678 -162 l 678 708 l 751 708 l 751 -100 q 737 -211 751 -176 q 691 -256 722 -246 q 597 -265 660 -265 l 597 -206 z "},"Ñ":{"ha":601,"x_min":83,"x_max":518,"o":"m 439 0 l 163 758 l 157 758 l 157 0 l 83 0 l 83 956 l 165 956 l 439 206 l 444 206 l 444 956 l 518 956 l 518 0 l 439 0 m 467 1199 q 453 1088 467 1119 q 394 1057 439 1057 q 351 1065 372 1057 q 296 1090 331 1074 q 252 1113 271 1106 q 215 1121 233 1121 q 194 1105 199 1121 q 189 1042 189 1089 l 138 1042 q 151 1153 138 1122 q 210 1183 165 1183 q 257 1174 233 1183 q 313 1147 281 1165 q 356 1126 339 1133 q 388 1119 372 1119 q 410 1137 404 1119 q 415 1199 415 1154 l 467 1199 z "},"O":{"ha":589,"x_min":63,"x_max":526,"o":"m 294 -11 q 139 25 186 -11 q 77 158 92 61 q 63 478 63 256 q 77 797 63 700 q 139 931 92 894 q 294 967 186 967 q 450 931 403 967 q 512 797 497 894 q 526 478 526 700 q 512 158 526 256 q 450 25 497 61 q 294 -11 403 -11 m 294 60 q 397 82 368 60 q 438 188 426 104 q 449 478 449 271 q 438 768 449 685 q 397 874 426 851 q 294 896 368 896 q 192 874 221 896 q 151 767 163 851 q 140 478 140 683 q 151 188 140 272 q 192 82 163 104 q 294 60 221 60 z "},"Ó":{"ha":589,"x_min":63,"x_max":526,"o":"m 294 -11 q 139 25 186 -11 q 77 158 92 61 q 63 478 63 256 q 77 797 63 700 q 139 931 92 894 q 294 967 186 967 q 450 931 403 967 q 512 797 497 894 q 526 478 526 700 q 512 158 526 256 q 450 25 497 61 q 294 -11 403 -11 m 294 60 q 397 82 368 60 q 438 188 426 104 q 449 478 449 271 q 438 768 449 685 q 397 874 426 851 q 294 896 368 896 q 192 874 221 896 q 151 767 163 851 q 140 478 140 683 q 151 188 140 272 q 192 82 163 104 q 294 60 221 60 m 263 1042 l 263 1049 l 308 1236 l 386 1236 l 386 1229 l 317 1042 l 263 1042 z "},"Ŏ":{"ha":589,"x_min":63,"x_max":526,"o":"m 294 -11 q 139 25 186 -11 q 77 158 92 61 q 63 478 63 256 q 77 797 63 700 q 139 931 92 894 q 294 967 186 967 q 450 931 403 967 q 512 797 497 894 q 526 478 526 700 q 512 158 526 256 q 450 25 497 61 q 294 -11 403 -11 m 294 60 q 397 82 368 60 q 438 188 426 104 q 449 478 449 271 q 438 768 449 685 q 397 874 426 851 q 294 896 368 896 q 192 874 221 896 q 151 767 163 851 q 140 478 140 683 q 151 188 140 272 q 192 82 163 104 q 294 60 221 60 m 429 1233 q 422 1126 429 1165 q 385 1064 414 1088 q 293 1040 356 1040 q 202 1064 231 1040 q 166 1126 174 1088 q 158 1233 158 1164 l 217 1233 q 221 1150 217 1178 q 241 1107 225 1122 q 293 1092 257 1092 q 346 1107 329 1092 q 367 1150 363 1122 q 371 1233 371 1178 l 429 1233 z "},"Ǒ":{"ha":589,"x_min":63,"x_max":526,"o":"m 294 -11 q 139 25 186 -11 q 77 158 92 61 q 63 478 63 256 q 77 797 63 700 q 139 931 92 894 q 294 967 186 967 q 450 931 403 967 q 512 797 497 894 q 526 478 526 700 q 512 158 526 256 q 450 25 497 61 q 294 -11 403 -11 m 294 60 q 397 82 368 60 q 438 188 426 104 q 449 478 449 271 q 438 768 449 685 q 397 874 426 851 q 294 896 368 896 q 192 874 221 896 q 151 767 163 851 q 140 478 140 683 q 151 188 140 272 q 192 82 163 104 q 294 60 221 60 m 251 1046 l 158 1225 l 158 1233 l 213 1233 l 293 1096 l 376 1233 l 429 1233 l 429 1225 l 336 1046 l 251 1046 z "},"Ô":{"ha":589,"x_min":63,"x_max":526,"o":"m 294 -11 q 139 25 186 -11 q 77 158 92 61 q 63 478 63 256 q 77 797 63 700 q 139 931 92 894 q 294 967 186 967 q 450 931 403 967 q 512 797 497 894 q 526 478 526 700 q 512 158 526 256 q 450 25 497 61 q 294 -11 403 -11 m 294 60 q 397 82 368 60 q 438 188 426 104 q 449 478 449 271 q 438 768 449 685 q 397 874 426 851 q 294 896 368 896 q 192 874 221 896 q 151 767 163 851 q 140 478 140 683 q 151 188 140 272 q 192 82 163 104 q 294 60 221 60 m 160 1042 l 160 1049 l 253 1229 l 338 1229 l 431 1049 l 431 1042 l 378 1042 l 294 1179 l 214 1042 l 160 1042 z "},"Ố":{"ha":589,"x_min":63,"x_max":526,"o":"m 294 -11 q 139 25 186 -11 q 77 158 92 61 q 63 478 63 256 q 77 797 63 700 q 139 931 92 894 q 294 967 186 967 q 450 931 403 967 q 512 797 497 894 q 526 478 526 700 q 512 158 526 256 q 450 25 497 61 q 294 -11 403 -11 m 294 60 q 397 82 368 60 q 438 188 426 104 q 449 478 449 271 q 438 768 449 685 q 397 874 426 851 q 294 896 368 896 q 192 874 221 896 q 151 767 163 851 q 140 478 140 683 q 151 188 140 272 q 192 82 163 104 q 294 60 221 60 m 158 1026 l 158 1033 l 251 1214 l 336 1214 l 429 1033 l 429 1026 l 376 1026 l 293 1164 l 213 1026 l 158 1026 m 368 1219 l 368 1226 l 414 1414 l 492 1414 l 492 1407 l 422 1219 l 368 1219 z "},"Ộ":{"ha":589,"x_min":63,"x_max":526,"o":"m 294 -11 q 139 25 186 -11 q 77 158 92 61 q 63 478 63 256 q 77 797 63 700 q 139 931 92 894 q 294 967 186 967 q 450 931 403 967 q 512 797 497 894 q 526 478 526 700 q 512 158 526 256 q 450 25 497 61 q 294 -11 403 -11 m 294 60 q 397 82 368 60 q 438 188 426 104 q 449 478 449 271 q 438 768 449 685 q 397 874 426 851 q 294 896 368 896 q 192 874 221 896 q 151 767 163 851 q 140 478 140 683 q 151 188 140 272 q 192 82 163 104 q 294 60 221 60 m 251 -194 l 251 -86 l 339 -86 l 339 -194 l 251 -194 m 158 1046 l 158 1053 l 251 1233 l 336 1233 l 429 1053 l 429 1046 l 376 1046 l 293 1183 l 213 1046 l 158 1046 z "},"Ồ":{"ha":589,"x_min":63,"x_max":526,"o":"m 294 -11 q 139 25 186 -11 q 77 158 92 61 q 63 478 63 256 q 77 797 63 700 q 139 931 92 894 q 294 967 186 967 q 450 931 403 967 q 512 797 497 894 q 526 478 526 700 q 512 158 526 256 q 450 25 497 61 q 294 -11 403 -11 m 294 60 q 397 82 368 60 q 438 188 426 104 q 449 478 449 271 q 438 768 449 685 q 397 874 426 851 q 294 896 368 896 q 192 874 221 896 q 151 767 163 851 q 140 478 140 683 q 151 188 140 272 q 192 82 163 104 q 294 60 221 60 m 156 1026 l 156 1033 l 249 1214 l 333 1214 l 426 1033 l 426 1026 l 374 1026 l 290 1164 l 210 1026 l 156 1026 m 368 1219 l 299 1407 l 299 1414 l 376 1414 l 422 1226 l 422 1219 l 368 1219 z "},"Ổ":{"ha":589,"x_min":63,"x_max":529,"o":"m 294 -11 q 139 25 186 -11 q 77 158 92 61 q 63 478 63 256 q 77 797 63 700 q 139 931 92 894 q 294 967 186 967 q 450 931 403 967 q 512 797 497 894 q 526 478 526 700 q 512 158 526 256 q 450 25 497 61 q 294 -11 403 -11 m 294 60 q 397 82 368 60 q 438 188 426 104 q 449 478 449 271 q 438 768 449 685 q 397 874 426 851 q 294 896 368 896 q 192 874 221 896 q 151 767 163 851 q 140 478 140 683 q 151 188 140 272 q 192 82 163 104 q 294 60 221 60 m 158 1028 l 158 1035 l 251 1215 l 336 1215 l 429 1035 l 429 1028 l 376 1028 l 293 1165 l 213 1028 l 158 1028 m 351 1235 q 362 1274 351 1263 q 399 1294 372 1285 l 414 1297 q 458 1319 446 1308 q 471 1356 471 1329 q 467 1385 471 1376 q 446 1399 463 1394 q 392 1403 429 1403 l 338 1401 q 285 1399 304 1399 l 285 1446 q 401 1457 368 1457 q 502 1437 475 1457 q 529 1368 529 1417 q 520 1306 529 1325 q 474 1272 511 1286 l 461 1268 q 422 1252 433 1257 q 408 1240 411 1247 q 406 1219 406 1233 l 351 1219 l 351 1235 z "},"Ỗ":{"ha":589,"x_min":63,"x_max":526,"o":"m 294 -11 q 139 25 186 -11 q 77 158 92 61 q 63 478 63 256 q 77 797 63 700 q 139 931 92 894 q 294 967 186 967 q 450 931 403 967 q 512 797 497 894 q 526 478 526 700 q 512 158 526 256 q 450 25 497 61 q 294 -11 403 -11 m 294 60 q 397 82 368 60 q 438 188 426 104 q 449 478 449 271 q 438 768 449 685 q 397 874 426 851 q 294 896 368 896 q 192 874 221 896 q 151 767 163 851 q 140 478 140 683 q 151 188 140 272 q 192 82 163 104 q 294 60 221 60 m 156 1028 l 156 1035 l 249 1215 l 333 1215 l 426 1035 l 426 1028 l 374 1028 l 290 1165 l 210 1028 l 156 1028 m 458 1456 q 444 1345 458 1376 q 386 1314 431 1314 q 343 1322 364 1314 q 288 1347 322 1331 q 244 1370 263 1363 q 207 1378 225 1378 q 185 1362 190 1378 q 181 1299 181 1346 l 129 1299 q 143 1410 129 1379 q 201 1440 157 1440 q 249 1431 225 1440 q 304 1404 272 1422 q 347 1383 331 1390 q 379 1376 364 1376 q 401 1394 396 1376 q 407 1456 407 1411 l 458 1456 z "},"Ȍ":{"ha":589,"x_min":63,"x_max":526,"o":"m 294 -11 q 139 25 186 -11 q 77 158 92 61 q 63 478 63 256 q 77 797 63 700 q 139 931 92 894 q 294 967 186 967 q 450 931 403 967 q 512 797 497 894 q 526 478 526 700 q 512 158 526 256 q 450 25 497 61 q 294 -11 403 -11 m 294 60 q 397 82 368 60 q 438 188 426 104 q 449 478 449 271 q 438 768 449 685 q 397 874 426 851 q 294 896 368 896 q 192 874 221 896 q 151 767 163 851 q 140 478 140 683 q 151 188 140 272 q 192 82 163 104 q 294 60 221 60 m 246 1050 l 197 1050 l 132 1208 l 132 1215 l 204 1215 l 246 1057 l 246 1050 m 392 1050 l 343 1050 l 278 1208 l 278 1215 l 350 1215 l 392 1057 l 392 1050 z "},"Ö":{"ha":589,"x_min":63,"x_max":526,"o":"m 294 -11 q 139 25 186 -11 q 77 158 92 61 q 63 478 63 256 q 77 797 63 700 q 139 931 92 894 q 294 967 186 967 q 450 931 403 967 q 512 797 497 894 q 526 478 526 700 q 512 158 526 256 q 450 25 497 61 q 294 -11 403 -11 m 294 60 q 397 82 368 60 q 438 188 426 104 q 449 478 449 271 q 438 768 449 685 q 397 874 426 851 q 294 896 368 896 q 192 874 221 896 q 151 767 163 851 q 140 478 140 683 q 151 188 140 272 q 192 82 163 104 q 294 60 221 60 m 140 1071 l 140 1167 l 215 1167 l 215 1071 l 140 1071 m 374 1071 l 374 1167 l 450 1167 l 450 1071 l 374 1071 z "},"Ọ":{"ha":589,"x_min":63,"x_max":526,"o":"m 294 -11 q 139 25 186 -11 q 77 158 92 61 q 63 478 63 256 q 77 797 63 700 q 139 931 92 894 q 294 967 186 967 q 450 931 403 967 q 512 797 497 894 q 526 478 526 700 q 512 158 526 256 q 450 25 497 61 q 294 -11 403 -11 m 294 60 q 397 82 368 60 q 438 188 426 104 q 449 478 449 271 q 438 768 449 685 q 397 874 426 851 q 294 896 368 896 q 192 874 221 896 q 151 767 163 851 q 140 478 140 683 q 151 188 140 272 q 192 82 163 104 q 294 60 221 60 m 251 -194 l 251 -86 l 339 -86 l 339 -194 l 251 -194 z "},"Ò":{"ha":589,"x_min":63,"x_max":526,"o":"m 294 -11 q 139 25 186 -11 q 77 158 92 61 q 63 478 63 256 q 77 797 63 700 q 139 931 92 894 q 294 967 186 967 q 450 931 403 967 q 512 797 497 894 q 526 478 526 700 q 512 158 526 256 q 450 25 497 61 q 294 -11 403 -11 m 294 60 q 397 82 368 60 q 438 188 426 104 q 449 478 449 271 q 438 768 449 685 q 397 874 426 851 q 294 896 368 896 q 192 874 221 896 q 151 767 163 851 q 140 478 140 683 q 151 188 140 272 q 192 82 163 104 q 294 60 221 60 m 272 1042 l 203 1229 l 203 1236 l 281 1236 l 326 1049 l 326 1042 l 272 1042 z "},"Ỏ":{"ha":589,"x_min":63,"x_max":526,"o":"m 294 -11 q 139 25 186 -11 q 77 158 92 61 q 63 478 63 256 q 77 797 63 700 q 139 931 92 894 q 294 967 186 967 q 450 931 403 967 q 512 797 497 894 q 526 478 526 700 q 512 158 526 256 q 450 25 497 61 q 294 -11 403 -11 m 294 60 q 397 82 368 60 q 438 188 426 104 q 449 478 449 271 q 438 768 449 685 q 397 874 426 851 q 294 896 368 896 q 192 874 221 896 q 151 767 163 851 q 140 478 140 683 q 151 188 140 272 q 192 82 163 104 q 294 60 221 60 m 238 1044 q 248 1084 238 1072 q 285 1104 258 1096 l 300 1108 q 344 1128 332 1118 q 357 1167 357 1139 q 353 1196 357 1188 q 332 1208 349 1204 q 278 1213 315 1213 q 171 1208 235 1213 l 171 1256 q 288 1267 254 1267 q 388 1247 361 1267 q 415 1178 415 1226 q 406 1115 415 1135 q 360 1082 397 1096 l 347 1078 q 300 1057 308 1064 q 292 1029 292 1050 l 238 1029 l 238 1044 z "},"Ơ":{"ha":589,"x_min":63,"x_max":564,"o":"m 564 1089 l 564 1046 q 546 941 564 969 q 471 910 528 913 q 516 769 506 864 q 526 478 526 675 q 512 158 526 256 q 450 25 497 61 q 294 -11 403 -11 q 139 25 186 -11 q 77 158 92 61 q 63 478 63 256 q 77 797 63 700 q 139 931 92 894 q 294 967 186 967 q 399 956 361 967 l 444 956 q 496 972 485 956 q 507 1033 507 989 l 507 1089 l 564 1089 m 294 60 q 397 82 368 60 q 438 188 426 104 q 449 478 449 271 q 438 768 449 685 q 397 874 426 851 q 294 896 368 896 q 192 874 221 896 q 151 767 163 851 q 140 478 140 683 q 151 188 140 272 q 192 82 163 104 q 294 60 221 60 z "},"Ớ":{"ha":589,"x_min":63,"x_max":564,"o":"m 564 1089 l 564 1046 q 546 941 564 969 q 471 910 528 913 q 516 769 506 864 q 526 478 526 675 q 512 158 526 256 q 450 25 497 61 q 294 -11 403 -11 q 139 25 186 -11 q 77 158 92 61 q 63 478 63 256 q 77 797 63 700 q 139 931 92 894 q 294 967 186 967 q 399 956 361 967 l 444 956 q 496 972 485 956 q 507 1033 507 989 l 507 1089 l 564 1089 m 294 60 q 397 82 368 60 q 438 188 426 104 q 449 478 449 271 q 438 768 449 685 q 397 874 426 851 q 294 896 368 896 q 192 874 221 896 q 151 767 163 851 q 140 478 140 683 q 151 188 140 272 q 192 82 163 104 q 294 60 221 60 m 267 1039 l 267 1046 l 313 1233 l 390 1233 l 390 1226 l 321 1039 l 267 1039 z "},"Ợ":{"ha":589,"x_min":63,"x_max":564,"o":"m 564 1089 l 564 1046 q 546 941 564 969 q 471 910 528 913 q 516 769 506 864 q 526 478 526 675 q 512 158 526 256 q 450 25 497 61 q 294 -11 403 -11 q 139 25 186 -11 q 77 158 92 61 q 63 478 63 256 q 77 797 63 700 q 139 931 92 894 q 294 967 186 967 q 399 956 361 967 l 444 956 q 496 972 485 956 q 507 1033 507 989 l 507 1089 l 564 1089 m 294 60 q 397 82 368 60 q 438 188 426 104 q 449 478 449 271 q 438 768 449 685 q 397 874 426 851 q 294 896 368 896 q 192 874 221 896 q 151 767 163 851 q 140 478 140 683 q 151 188 140 272 q 192 82 163 104 q 294 60 221 60 m 251 -194 l 251 -86 l 339 -86 l 339 -194 l 251 -194 z "},"Ờ":{"ha":589,"x_min":63,"x_max":564,"o":"m 564 1089 l 564 1046 q 546 941 564 969 q 471 910 528 913 q 516 769 506 864 q 526 478 526 675 q 512 158 526 256 q 450 25 497 61 q 294 -11 403 -11 q 139 25 186 -11 q 77 158 92 61 q 63 478 63 256 q 77 797 63 700 q 139 931 92 894 q 294 967 186 967 q 399 956 361 967 l 444 956 q 496 972 485 956 q 507 1033 507 989 l 507 1089 l 564 1089 m 294 60 q 397 82 368 60 q 438 188 426 104 q 449 478 449 271 q 438 768 449 685 q 397 874 426 851 q 294 896 368 896 q 192 874 221 896 q 151 767 163 851 q 140 478 140 683 q 151 188 140 272 q 192 82 163 104 q 294 60 221 60 m 269 1039 l 200 1226 l 200 1233 l 278 1233 l 324 1046 l 324 1039 l 269 1039 z "},"Ở":{"ha":589,"x_min":63,"x_max":564,"o":"m 564 1089 l 564 1046 q 546 941 564 969 q 471 910 528 913 q 516 769 506 864 q 526 478 526 675 q 512 158 526 256 q 450 25 497 61 q 294 -11 403 -11 q 139 25 186 -11 q 77 158 92 61 q 63 478 63 256 q 77 797 63 700 q 139 931 92 894 q 294 967 186 967 q 399 956 361 967 l 444 956 q 496 972 485 956 q 507 1033 507 989 l 507 1089 l 564 1089 m 294 60 q 397 82 368 60 q 438 188 426 104 q 449 478 449 271 q 438 768 449 685 q 397 874 426 851 q 294 896 368 896 q 192 874 221 896 q 151 767 163 851 q 140 478 140 683 q 151 188 140 272 q 192 82 163 104 q 294 60 221 60 m 238 1044 q 248 1084 238 1072 q 285 1104 258 1096 l 300 1108 q 344 1128 332 1118 q 357 1167 357 1139 q 353 1196 357 1188 q 332 1208 349 1204 q 278 1213 315 1213 q 171 1208 235 1213 l 171 1256 q 288 1267 254 1267 q 388 1247 361 1267 q 415 1178 415 1226 q 406 1115 415 1135 q 360 1082 397 1096 l 347 1078 q 300 1057 308 1064 q 292 1029 292 1050 l 238 1029 l 238 1044 z "},"Ỡ":{"ha":589,"x_min":63,"x_max":564,"o":"m 564 1089 l 564 1046 q 546 941 564 969 q 471 910 528 913 q 516 769 506 864 q 526 478 526 675 q 512 158 526 256 q 450 25 497 61 q 294 -11 403 -11 q 139 25 186 -11 q 77 158 92 61 q 63 478 63 256 q 77 797 63 700 q 139 931 92 894 q 294 967 186 967 q 399 956 361 967 l 444 956 q 496 972 485 956 q 507 1033 507 989 l 507 1089 l 564 1089 m 294 60 q 397 82 368 60 q 438 188 426 104 q 449 478 449 271 q 438 768 449 685 q 397 874 426 851 q 294 896 368 896 q 192 874 221 896 q 151 767 163 851 q 140 478 140 683 q 151 188 140 272 q 192 82 163 104 q 294 60 221 60 m 458 1233 q 444 1123 458 1154 q 386 1092 431 1092 q 343 1100 364 1092 q 288 1125 322 1108 q 244 1148 263 1140 q 207 1156 225 1156 q 185 1140 190 1156 q 181 1076 181 1124 l 129 1076 q 143 1188 129 1157 q 201 1218 157 1218 q 249 1209 225 1218 q 304 1182 272 1200 q 347 1161 331 1168 q 379 1154 364 1154 q 401 1172 396 1154 q 407 1233 407 1189 l 458 1233 z "},"Ő":{"ha":589,"x_min":63,"x_max":526,"o":"m 294 -11 q 139 25 186 -11 q 77 158 92 61 q 63 478 63 256 q 77 797 63 700 q 139 931 92 894 q 294 967 186 967 q 450 931 403 967 q 512 797 497 894 q 526 478 526 700 q 512 158 526 256 q 450 25 497 61 q 294 -11 403 -11 m 294 60 q 397 82 368 60 q 438 188 426 104 q 449 478 449 271 q 438 768 449 685 q 397 874 426 851 q 294 896 368 896 q 192 874 221 896 q 151 767 163 851 q 140 478 140 683 q 151 188 140 272 q 192 82 163 104 q 294 60 221 60 m 204 1050 l 204 1057 l 246 1215 l 318 1215 l 318 1208 l 253 1050 l 204 1050 m 350 1050 l 350 1057 l 392 1215 l 464 1215 l 464 1208 l 399 1050 l 350 1050 z "},"Ȏ":{"ha":589,"x_min":63,"x_max":526,"o":"m 294 -11 q 139 25 186 -11 q 77 158 92 61 q 63 478 63 256 q 77 797 63 700 q 139 931 92 894 q 294 967 186 967 q 450 931 403 967 q 512 797 497 894 q 526 478 526 700 q 512 158 526 256 q 450 25 497 61 q 294 -11 403 -11 m 294 60 q 397 82 368 60 q 438 188 426 104 q 449 478 449 271 q 438 768 449 685 q 397 874 426 851 q 294 896 368 896 q 192 874 221 896 q 151 767 163 851 q 140 478 140 683 q 151 188 140 272 q 192 82 163 104 q 294 60 221 60 m 158 1049 q 166 1156 158 1117 q 203 1218 174 1194 q 294 1242 232 1242 q 385 1218 357 1242 q 422 1156 414 1194 q 429 1049 429 1118 l 371 1049 q 367 1132 371 1104 q 347 1175 363 1160 q 294 1190 331 1190 q 242 1175 258 1190 q 221 1132 225 1160 q 217 1049 217 1104 l 158 1049 z "},"Ō":{"ha":589,"x_min":63,"x_max":526,"o":"m 294 -11 q 139 25 186 -11 q 77 158 92 61 q 63 478 63 256 q 77 797 63 700 q 139 931 92 894 q 294 967 186 967 q 450 931 403 967 q 512 797 497 894 q 526 478 526 700 q 512 158 526 256 q 450 25 497 61 q 294 -11 403 -11 m 294 60 q 397 82 368 60 q 438 188 426 104 q 449 478 449 271 q 438 768 449 685 q 397 874 426 851 q 294 896 368 896 q 192 874 221 896 q 151 767 163 851 q 140 478 140 683 q 151 188 140 272 q 192 82 163 104 q 294 60 221 60 m 178 1161 l 178 1233 l 410 1233 l 410 1161 l 178 1161 z "},"Ǫ":{"ha":589,"x_min":63,"x_max":526,"o":"m 394 -272 q 311 -244 338 -272 q 285 -171 285 -215 q 303 -89 285 -132 q 354 -7 322 -46 q 294 -11 329 -11 q 139 25 186 -11 q 77 158 92 61 q 63 478 63 256 q 77 797 63 700 q 139 931 92 894 q 294 967 186 967 q 450 931 403 967 q 512 797 497 894 q 526 478 526 700 q 521 240 526 326 q 499 101 515 154 q 447 24 482 49 q 380 -56 411 -1 q 349 -157 349 -111 q 410 -217 349 -217 l 432 -215 l 432 -269 q 394 -272 419 -272 m 294 60 q 397 82 368 60 q 438 188 426 104 q 449 478 449 271 q 438 768 449 685 q 397 874 426 851 q 294 896 368 896 q 192 874 221 896 q 151 767 163 851 q 140 478 140 683 q 151 188 140 272 q 192 82 163 104 q 294 60 221 60 z "},"Ø":{"ha":589,"x_min":63,"x_max":526,"o":"m 479 897 q 517 756 508 850 q 526 478 526 663 q 512 158 526 256 q 450 25 497 61 q 294 -11 403 -11 q 164 10 207 -11 l 133 -76 l 63 -76 l 110 58 q 72 199 81 106 q 63 478 63 293 q 77 797 63 700 q 139 931 92 894 q 294 967 186 967 q 426 946 381 967 l 457 1032 l 526 1032 l 479 897 m 140 478 q 150 169 140 243 l 401 876 q 363 892 386 889 q 294 896 339 896 q 192 874 221 896 q 151 767 163 851 q 140 478 140 683 m 449 478 q 439 785 449 714 l 188 78 q 228 63 204 67 q 294 60 251 60 q 397 82 368 60 q 438 188 426 104 q 449 478 449 271 z "},"Ǿ":{"ha":589,"x_min":63,"x_max":526,"o":"m 479 897 q 517 756 508 850 q 526 478 526 663 q 512 158 526 256 q 450 25 497 61 q 294 -11 403 -11 q 164 10 207 -11 l 133 -76 l 63 -76 l 110 58 q 72 199 81 106 q 63 478 63 293 q 77 797 63 700 q 139 931 92 894 q 294 967 186 967 q 426 946 381 967 l 457 1032 l 526 1032 l 479 897 m 140 478 q 150 169 140 243 l 401 876 q 363 892 386 889 q 294 896 339 896 q 192 874 221 896 q 151 767 163 851 q 140 478 140 683 m 449 478 q 439 785 449 714 l 188 78 q 228 63 204 67 q 294 60 251 60 q 397 82 368 60 q 438 188 426 104 q 449 478 449 271 m 256 1039 l 256 1046 l 301 1233 l 379 1233 l 379 1226 l 310 1039 l 256 1039 z "},"Õ":{"ha":589,"x_min":63,"x_max":526,"o":"m 294 -11 q 139 25 186 -11 q 77 158 92 61 q 63 478 63 256 q 77 797 63 700 q 139 931 92 894 q 294 967 186 967 q 450 931 403 967 q 512 797 497 894 q 526 478 526 700 q 512 158 526 256 q 450 25 497 61 q 294 -11 403 -11 m 294 60 q 397 82 368 60 q 438 188 426 104 q 449 478 449 271 q 438 768 449 685 q 397 874 426 851 q 294 896 368 896 q 192 874 221 896 q 151 767 163 851 q 140 478 140 683 q 151 188 140 272 q 192 82 163 104 q 294 60 221 60 m 460 1199 q 446 1088 460 1119 q 388 1057 432 1057 q 344 1065 365 1057 q 289 1090 324 1074 q 245 1113 264 1106 q 208 1121 226 1121 q 187 1105 192 1121 q 182 1042 182 1089 l 131 1042 q 144 1153 131 1122 q 203 1183 158 1183 q 250 1174 226 1183 q 306 1147 274 1165 q 349 1126 332 1133 q 381 1119 365 1119 q 403 1137 397 1119 q 408 1199 408 1154 l 460 1199 z "},"Œ":{"ha":835,"x_min":64,"x_max":794,"o":"m 294 0 q 140 35 186 0 q 78 165 93 71 q 64 478 64 260 q 78 790 64 696 q 140 920 93 885 q 294 956 186 956 l 794 956 l 794 885 l 535 885 q 463 890 496 885 q 512 770 499 854 q 526 519 525 686 l 758 519 l 758 447 l 526 447 q 512 188 525 275 q 463 65 499 101 q 535 71 493 71 l 794 71 l 794 0 l 294 0 m 294 71 q 397 93 368 71 q 438 197 426 115 q 449 478 449 278 q 438 759 449 678 q 397 863 426 840 q 294 885 368 885 q 192 863 221 885 q 151 759 163 840 q 140 478 140 678 q 151 197 140 278 q 192 93 163 115 q 294 71 221 71 z "},"P":{"ha":526,"x_min":83,"x_max":494,"o":"m 83 956 l 300 956 q 430 918 388 956 q 483 820 472 881 q 494 660 494 760 q 483 503 494 564 q 428 403 471 442 q 300 365 386 365 l 160 365 l 160 0 l 83 0 l 83 956 m 293 436 q 376 460 349 436 q 410 531 403 485 q 418 660 418 576 q 410 790 418 744 q 376 860 403 836 q 293 885 350 885 l 160 885 l 160 436 l 293 436 z "},"Þ":{"ha":526,"x_min":83,"x_max":494,"o":"m 83 956 l 160 956 l 160 782 l 300 782 q 430 744 388 782 q 483 647 472 707 q 494 488 494 586 q 483 329 494 390 q 428 230 471 268 q 300 192 386 192 l 160 192 l 160 0 l 83 0 l 83 956 m 293 263 q 376 287 349 263 q 410 357 403 311 q 418 488 418 403 q 410 617 418 572 q 376 687 403 663 q 293 711 350 711 l 160 711 l 160 263 l 293 263 z "},"Q":{"ha":589,"x_min":63,"x_max":547,"o":"m 547 -156 l 547 -160 l 467 -160 l 390 -3 q 294 -11 351 -11 q 139 25 186 -11 q 77 158 92 61 q 63 478 63 256 q 77 797 63 700 q 139 931 92 894 q 294 967 186 967 q 450 931 403 967 q 512 797 497 894 q 526 478 526 700 q 513 168 526 265 q 456 31 499 71 l 547 -156 m 294 60 q 358 64 342 60 l 243 303 l 322 303 l 418 107 q 442 226 436 144 q 449 478 449 308 q 438 768 449 685 q 397 874 426 851 q 294 896 368 896 q 192 874 221 896 q 151 767 163 851 q 140 478 140 683 q 151 188 140 272 q 192 82 163 104 q 294 60 221 60 z "},"R":{"ha":564,"x_min":83,"x_max":517,"o":"m 436 0 l 329 393 l 301 393 l 160 393 l 160 0 l 83 0 l 83 956 l 307 956 q 437 919 394 956 q 490 826 479 883 q 501 674 501 768 q 483 501 501 565 q 401 411 464 438 l 517 0 l 436 0 m 299 463 q 382 485 356 463 q 416 551 408 508 q 424 674 424 594 q 416 797 424 754 q 382 862 408 839 q 299 885 356 885 l 160 885 l 160 463 l 299 463 z "},"Ŕ":{"ha":564,"x_min":83,"x_max":517,"o":"m 436 0 l 329 393 l 301 393 l 160 393 l 160 0 l 83 0 l 83 956 l 307 956 q 437 919 394 956 q 490 826 479 883 q 501 674 501 768 q 483 501 501 565 q 401 411 464 438 l 517 0 l 436 0 m 299 463 q 382 485 356 463 q 416 551 408 508 q 424 674 424 594 q 416 797 424 754 q 382 862 408 839 q 299 885 356 885 l 160 885 l 160 463 l 299 463 m 254 1039 l 254 1046 l 300 1233 l 378 1233 l 378 1226 l 308 1039 l 254 1039 z "},"Ř":{"ha":564,"x_min":83,"x_max":517,"o":"m 436 0 l 329 393 l 301 393 l 160 393 l 160 0 l 83 0 l 83 956 l 307 956 q 437 919 394 956 q 490 826 479 883 q 501 674 501 768 q 483 501 501 565 q 401 411 464 438 l 517 0 l 436 0 m 299 463 q 382 485 356 463 q 416 551 408 508 q 424 674 424 594 q 416 797 424 754 q 382 862 408 839 q 299 885 356 885 l 160 885 l 160 463 l 299 463 m 239 1046 l 146 1225 l 146 1233 l 200 1233 l 281 1096 l 364 1233 l 417 1233 l 417 1225 l 324 1046 l 239 1046 z "},"Ŗ":{"ha":564,"x_min":83,"x_max":517,"o":"m 436 0 l 329 393 l 301 393 l 160 393 l 160 0 l 83 0 l 83 956 l 307 956 q 437 919 394 956 q 490 826 479 883 q 501 674 501 768 q 483 501 501 565 q 401 411 464 438 l 517 0 l 436 0 m 299 463 q 382 485 356 463 q 416 551 408 508 q 424 674 424 594 q 416 797 424 754 q 382 862 408 839 q 299 885 356 885 l 160 885 l 160 463 l 299 463 m 226 -292 q 269 -284 256 -292 q 285 -260 282 -276 q 289 -207 289 -243 l 289 -185 l 253 -185 l 253 -86 l 340 -86 l 340 -186 q 331 -276 340 -246 q 299 -318 322 -306 q 226 -331 275 -331 l 226 -292 z "},"Ȑ":{"ha":564,"x_min":83,"x_max":517,"o":"m 436 0 l 329 393 l 301 393 l 160 393 l 160 0 l 83 0 l 83 956 l 307 956 q 437 919 394 956 q 490 826 479 883 q 501 674 501 768 q 483 501 501 565 q 401 411 464 438 l 517 0 l 436 0 m 299 463 q 382 485 356 463 q 416 551 408 508 q 424 674 424 594 q 416 797 424 754 q 382 862 408 839 q 299 885 356 885 l 160 885 l 160 463 l 299 463 m 233 1050 l 185 1050 l 119 1208 l 119 1215 l 192 1215 l 233 1057 l 233 1050 m 379 1050 l 331 1050 l 265 1208 l 265 1215 l 338 1215 l 379 1057 l 379 1050 z "},"Ṛ":{"ha":564,"x_min":83,"x_max":517,"o":"m 436 0 l 329 393 l 301 393 l 160 393 l 160 0 l 83 0 l 83 956 l 307 956 q 437 919 394 956 q 490 826 479 883 q 501 674 501 768 q 483 501 501 565 q 401 411 464 438 l 517 0 l 436 0 m 299 463 q 382 485 356 463 q 416 551 408 508 q 424 674 424 594 q 416 797 424 754 q 382 862 408 839 q 299 885 356 885 l 160 885 l 160 463 l 299 463 m 239 -194 l 239 -86 l 326 -86 l 326 -194 l 239 -194 z "},"Ȓ":{"ha":564,"x_min":83,"x_max":517,"o":"m 436 0 l 329 393 l 301 393 l 160 393 l 160 0 l 83 0 l 83 956 l 307 956 q 437 919 394 956 q 490 826 479 883 q 501 674 501 768 q 483 501 501 565 q 401 411 464 438 l 517 0 l 436 0 m 299 463 q 382 485 356 463 q 416 551 408 508 q 424 674 424 594 q 416 797 424 754 q 382 862 408 839 q 299 885 356 885 l 160 885 l 160 463 l 299 463 m 146 1049 q 153 1156 146 1117 q 190 1218 161 1194 q 282 1242 219 1242 q 373 1218 344 1242 q 409 1156 401 1194 q 417 1049 417 1118 l 358 1049 q 354 1132 358 1104 q 334 1175 350 1160 q 282 1190 318 1190 q 229 1175 246 1190 q 208 1132 213 1160 q 204 1049 204 1104 l 146 1049 z "},"S":{"ha":496,"x_min":44,"x_max":451,"o":"m 244 -11 q 151 -6 203 -11 q 60 7 99 0 l 60 76 q 221 60 163 60 q 295 67 267 60 q 343 96 324 75 q 369 154 363 115 q 375 257 375 193 q 370 379 375 346 q 347 426 365 413 q 276 449 328 439 l 139 476 q 76 513 96 485 q 50 585 56 542 q 44 708 44 629 q 92 906 44 844 q 257 967 140 967 q 356 961 310 967 q 422 947 403 956 l 422 881 q 356 892 397 888 q 278 896 314 896 q 192 884 224 896 q 146 847 161 872 q 127 790 132 824 q 122 707 122 757 q 127 606 122 638 q 146 563 132 575 q 193 543 160 550 l 317 518 q 397 488 368 507 q 440 425 426 469 q 449 370 447 406 q 451 269 451 335 q 436 109 451 168 q 376 19 421 50 q 244 -11 331 -11 z "},"Ś":{"ha":496,"x_min":44,"x_max":451,"o":"m 244 -11 q 151 -6 203 -11 q 60 7 99 0 l 60 76 q 221 60 163 60 q 295 67 267 60 q 343 96 324 75 q 369 154 363 115 q 375 257 375 193 q 370 379 375 346 q 347 426 365 413 q 276 449 328 439 l 139 476 q 76 513 96 485 q 50 585 56 542 q 44 708 44 629 q 92 906 44 844 q 257 967 140 967 q 356 961 310 967 q 422 947 403 956 l 422 881 q 356 892 397 888 q 278 896 314 896 q 192 884 224 896 q 146 847 161 872 q 127 790 132 824 q 122 707 122 757 q 127 606 122 638 q 146 563 132 575 q 193 543 160 550 l 317 518 q 397 488 368 507 q 440 425 426 469 q 449 370 447 406 q 451 269 451 335 q 436 109 451 168 q 376 19 421 50 q 244 -11 331 -11 m 219 1039 l 219 1046 l 265 1233 l 343 1233 l 343 1226 l 274 1039 l 219 1039 z "},"Ꞌ":{"ha":132,"x_min":28,"x_max":104,"o":"m 28 400 l 28 956 l 104 956 l 104 711 l 79 400 l 28 400 z "},"Š":{"ha":496,"x_min":44,"x_max":451,"o":"m 244 -11 q 151 -6 203 -11 q 60 7 99 0 l 60 76 q 221 60 163 60 q 295 67 267 60 q 343 96 324 75 q 369 154 363 115 q 375 257 375 193 q 370 379 375 346 q 347 426 365 413 q 276 449 328 439 l 139 476 q 76 513 96 485 q 50 585 56 542 q 44 708 44 629 q 92 906 44 844 q 257 967 140 967 q 356 961 310 967 q 422 947 403 956 l 422 881 q 356 892 397 888 q 278 896 314 896 q 192 884 224 896 q 146 847 161 872 q 127 790 132 824 q 122 707 122 757 q 127 606 122 638 q 146 563 132 575 q 193 543 160 550 l 317 518 q 397 488 368 507 q 440 425 426 469 q 449 370 447 406 q 451 269 451 335 q 436 109 451 168 q 376 19 421 50 q 244 -11 331 -11 m 208 1042 l 115 1221 l 115 1229 l 169 1229 l 250 1092 l 333 1229 l 386 1229 l 386 1221 l 293 1042 l 208 1042 z "},"Ş":{"ha":496,"x_min":44,"x_max":451,"o":"m 451 269 q 438 115 451 172 q 385 25 424 57 q 269 -11 346 -7 l 214 -264 l 140 -264 l 140 -257 l 215 -11 q 60 7 126 -7 l 60 76 q 221 60 163 60 q 295 67 267 60 q 343 96 324 75 q 369 154 363 115 q 375 257 375 193 q 370 379 375 346 q 347 426 365 413 q 276 449 328 439 l 139 476 q 76 513 96 485 q 50 585 56 542 q 44 708 44 629 q 92 906 44 844 q 257 967 140 967 q 356 961 310 967 q 422 947 403 956 l 422 881 q 356 892 397 888 q 278 896 314 896 q 192 884 224 896 q 146 847 161 872 q 127 790 132 824 q 122 707 122 757 q 127 606 122 638 q 146 563 132 575 q 193 543 160 550 l 317 518 q 397 488 368 507 q 440 425 426 469 q 449 370 447 406 q 451 269 451 335 z "},"Ŝ":{"ha":496,"x_min":44,"x_max":451,"o":"m 244 -11 q 151 -6 203 -11 q 60 7 99 0 l 60 76 q 221 60 163 60 q 295 67 267 60 q 343 96 324 75 q 369 154 363 115 q 375 257 375 193 q 370 379 375 346 q 347 426 365 413 q 276 449 328 439 l 139 476 q 76 513 96 485 q 50 585 56 542 q 44 708 44 629 q 92 906 44 844 q 257 967 140 967 q 356 961 310 967 q 422 947 403 956 l 422 881 q 356 892 397 888 q 278 896 314 896 q 192 884 224 896 q 146 847 161 872 q 127 790 132 824 q 122 707 122 757 q 127 606 122 638 q 146 563 132 575 q 193 543 160 550 l 317 518 q 397 488 368 507 q 440 425 426 469 q 449 370 447 406 q 451 269 451 335 q 436 109 451 168 q 376 19 421 50 q 244 -11 331 -11 m 111 1046 l 111 1053 l 204 1233 l 289 1233 l 382 1053 l 382 1046 l 329 1046 l 246 1183 l 165 1046 l 111 1046 z "},"Ș":{"ha":496,"x_min":44,"x_max":451,"o":"m 244 -11 q 151 -6 203 -11 q 60 7 99 0 l 60 76 q 221 60 163 60 q 295 67 267 60 q 343 96 324 75 q 369 154 363 115 q 375 257 375 193 q 370 379 375 346 q 347 426 365 413 q 276 449 328 439 l 139 476 q 76 513 96 485 q 50 585 56 542 q 44 708 44 629 q 92 906 44 844 q 257 967 140 967 q 356 961 310 967 q 422 947 403 956 l 422 881 q 356 892 397 888 q 278 896 314 896 q 192 884 224 896 q 146 847 161 872 q 127 790 132 824 q 122 707 122 757 q 127 606 122 638 q 146 563 132 575 q 193 543 160 550 l 317 518 q 397 488 368 507 q 440 425 426 469 q 449 370 447 406 q 451 269 451 335 q 436 109 451 168 q 376 19 421 50 q 244 -11 331 -11 m 192 -292 q 234 -284 221 -292 q 251 -260 247 -276 q 254 -207 254 -243 l 254 -185 l 218 -185 l 218 -86 l 306 -86 l 306 -186 q 297 -276 306 -246 q 264 -318 288 -306 q 192 -331 240 -331 l 192 -292 z "},"Ṣ":{"ha":496,"x_min":44,"x_max":451,"o":"m 244 -11 q 151 -6 203 -11 q 60 7 99 0 l 60 76 q 221 60 163 60 q 295 67 267 60 q 343 96 324 75 q 369 154 363 115 q 375 257 375 193 q 370 379 375 346 q 347 426 365 413 q 276 449 328 439 l 139 476 q 76 513 96 485 q 50 585 56 542 q 44 708 44 629 q 92 906 44 844 q 257 967 140 967 q 356 961 310 967 q 422 947 403 956 l 422 881 q 356 892 397 888 q 278 896 314 896 q 192 884 224 896 q 146 847 161 872 q 127 790 132 824 q 122 707 122 757 q 127 606 122 638 q 146 563 132 575 q 193 543 160 550 l 317 518 q 397 488 368 507 q 440 425 426 469 q 449 370 447 406 q 451 269 451 335 q 436 109 451 168 q 376 19 421 50 q 244 -11 331 -11 m 204 -194 l 204 -86 l 292 -86 l 292 -194 l 204 -194 z "},"ẞ":{"ha":657,"x_min":76,"x_max":601,"o":"m 415 514 q 557 451 513 514 q 601 254 601 389 q 583 104 601 161 q 519 18 565 47 q 388 -11 472 -11 q 313 -6 354 -11 q 243 10 272 0 l 243 75 q 375 60 326 60 q 459 74 428 60 q 507 130 490 89 q 524 251 524 171 q 497 404 524 360 q 407 449 471 449 l 314 449 l 314 507 l 486 867 q 310 896 408 896 q 205 872 236 896 q 163 776 174 849 q 153 536 153 704 l 153 0 l 76 0 l 76 536 q 92 807 76 719 q 155 931 108 894 q 301 967 201 967 q 447 952 376 967 q 564 917 517 938 l 564 858 l 394 514 l 415 514 z "},"Ə":{"ha":589,"x_min":63,"x_max":526,"o":"m 281 967 q 440 931 390 967 q 508 794 490 894 q 526 478 526 694 q 512 158 526 256 q 450 25 497 61 q 294 -11 403 -11 q 139 25 186 -11 q 77 158 92 61 q 63 478 63 256 l 63 519 l 449 519 q 435 771 447 696 q 384 871 422 846 q 257 896 346 896 q 124 882 211 896 l 124 949 q 281 967 193 967 m 294 60 q 398 81 368 60 q 439 181 428 103 q 451 447 450 258 l 138 447 q 151 181 139 258 q 192 81 163 103 q 294 60 222 60 z "},"T":{"ha":464,"x_min":18,"x_max":446,"o":"m 193 0 l 193 883 l 18 883 l 18 956 l 446 956 l 446 883 l 271 883 l 271 0 l 193 0 z "},"Ŧ":{"ha":464,"x_min":18,"x_max":446,"o":"m 446 883 l 271 883 l 271 515 l 404 515 l 404 451 l 271 451 l 271 0 l 193 0 l 193 451 l 60 451 l 60 515 l 193 515 l 193 883 l 18 883 l 18 956 l 446 956 l 446 883 z "},"Ť":{"ha":464,"x_min":18,"x_max":446,"o":"m 193 0 l 193 883 l 18 883 l 18 956 l 446 956 l 446 883 l 271 883 l 271 0 l 193 0 m 189 1046 l 96 1225 l 96 1233 l 150 1233 l 231 1096 l 314 1233 l 367 1233 l 367 1225 l 274 1046 l 189 1046 z "},"Ţ":{"ha":464,"x_min":18,"x_max":446,"o":"m 18 956 l 446 956 l 446 883 l 271 883 l 271 0 l 256 0 l 199 -264 l 125 -264 l 125 -257 l 204 0 l 193 0 l 193 883 l 18 883 l 18 956 z "},"Ț":{"ha":464,"x_min":18,"x_max":446,"o":"m 193 0 l 193 883 l 18 883 l 18 956 l 446 956 l 446 883 l 271 883 l 271 0 l 193 0 m 176 -292 q 219 -284 206 -292 q 235 -260 232 -276 q 239 -207 239 -243 l 239 -185 l 203 -185 l 203 -86 l 290 -86 l 290 -186 q 281 -276 290 -246 q 249 -318 272 -306 q 176 -331 225 -331 l 176 -292 z "},"Ṭ":{"ha":464,"x_min":18,"x_max":446,"o":"m 193 0 l 193 883 l 18 883 l 18 956 l 446 956 l 446 883 l 271 883 l 271 0 l 193 0 m 189 -194 l 189 -86 l 276 -86 l 276 -194 l 189 -194 z "},"U":{"ha":588,"x_min":76,"x_max":511,"o":"m 511 956 l 511 411 q 499 144 511 226 q 441 25 486 61 q 294 -11 396 -11 q 147 25 192 -11 q 89 144 101 61 q 76 411 76 226 l 76 956 l 153 956 l 153 364 q 161 167 153 226 q 198 84 169 108 q 294 60 226 60 q 390 84 361 60 q 426 167 418 108 q 435 364 435 226 l 435 956 l 511 956 z "},"Ú":{"ha":588,"x_min":76,"x_max":511,"o":"m 511 956 l 511 411 q 499 144 511 226 q 441 25 486 61 q 294 -11 396 -11 q 147 25 192 -11 q 89 144 101 61 q 76 411 76 226 l 76 956 l 153 956 l 153 364 q 161 167 153 226 q 198 84 169 108 q 294 60 226 60 q 390 84 361 60 q 426 167 418 108 q 435 364 435 226 l 435 956 l 511 956 m 267 1042 l 267 1049 l 313 1236 l 390 1236 l 390 1229 l 321 1042 l 267 1042 z "},"Ŭ":{"ha":588,"x_min":76,"x_max":511,"o":"m 511 956 l 511 411 q 499 144 511 226 q 441 25 486 61 q 294 -11 396 -11 q 147 25 192 -11 q 89 144 101 61 q 76 411 76 226 l 76 956 l 153 956 l 153 364 q 161 167 153 226 q 198 84 169 108 q 294 60 226 60 q 390 84 361 60 q 426 167 418 108 q 435 364 435 226 l 435 956 l 511 956 m 429 1233 q 422 1126 429 1165 q 385 1064 414 1088 q 293 1040 356 1040 q 202 1064 231 1040 q 166 1126 174 1088 q 158 1233 158 1164 l 217 1233 q 221 1150 217 1178 q 241 1107 225 1122 q 293 1092 257 1092 q 346 1107 329 1092 q 367 1150 363 1122 q 371 1233 371 1178 l 429 1233 z "},"Ǔ":{"ha":588,"x_min":76,"x_max":511,"o":"m 511 956 l 511 411 q 499 144 511 226 q 441 25 486 61 q 294 -11 396 -11 q 147 25 192 -11 q 89 144 101 61 q 76 411 76 226 l 76 956 l 153 956 l 153 364 q 161 167 153 226 q 198 84 169 108 q 294 60 226 60 q 390 84 361 60 q 426 167 418 108 q 435 364 435 226 l 435 956 l 511 956 m 251 1046 l 158 1225 l 158 1233 l 213 1233 l 293 1096 l 376 1233 l 429 1233 l 429 1225 l 336 1046 l 251 1046 z "},"Û":{"ha":588,"x_min":76,"x_max":511,"o":"m 511 956 l 511 411 q 499 144 511 226 q 441 25 486 61 q 294 -11 396 -11 q 147 25 192 -11 q 89 144 101 61 q 76 411 76 226 l 76 956 l 153 956 l 153 364 q 161 167 153 226 q 198 84 169 108 q 294 60 226 60 q 390 84 361 60 q 426 167 418 108 q 435 364 435 226 l 435 956 l 511 956 m 157 1042 l 157 1049 l 250 1229 l 335 1229 l 428 1049 l 428 1042 l 375 1042 l 292 1179 l 211 1042 l 157 1042 z "},"Ȕ":{"ha":588,"x_min":76,"x_max":511,"o":"m 511 956 l 511 411 q 499 144 511 226 q 441 25 486 61 q 294 -11 396 -11 q 147 25 192 -11 q 89 144 101 61 q 76 411 76 226 l 76 956 l 153 956 l 153 364 q 161 167 153 226 q 198 84 169 108 q 294 60 226 60 q 390 84 361 60 q 426 167 418 108 q 435 364 435 226 l 435 956 l 511 956 m 246 1050 l 197 1050 l 132 1208 l 132 1215 l 204 1215 l 246 1057 l 246 1050 m 392 1050 l 343 1050 l 278 1208 l 278 1215 l 350 1215 l 392 1057 l 392 1050 z "},"Ü":{"ha":588,"x_min":76,"x_max":511,"o":"m 511 956 l 511 411 q 499 144 511 226 q 441 25 486 61 q 294 -11 396 -11 q 147 25 192 -11 q 89 144 101 61 q 76 411 76 226 l 76 956 l 153 956 l 153 364 q 161 167 153 226 q 198 84 169 108 q 294 60 226 60 q 390 84 361 60 q 426 167 418 108 q 435 364 435 226 l 435 956 l 511 956 m 139 1071 l 139 1167 l 214 1167 l 214 1071 l 139 1071 m 372 1071 l 372 1167 l 449 1167 l 449 1071 l 372 1071 z "},"Ǘ":{"ha":588,"x_min":76,"x_max":511,"o":"m 511 956 l 511 411 q 499 144 511 226 q 441 25 486 61 q 294 -11 396 -11 q 147 25 192 -11 q 89 144 101 61 q 76 411 76 226 l 76 956 l 153 956 l 153 364 q 161 167 153 226 q 198 84 169 108 q 294 60 226 60 q 390 84 361 60 q 426 167 418 108 q 435 364 435 226 l 435 956 l 511 956 m 139 1119 l 139 1215 l 214 1215 l 214 1119 l 139 1119 m 372 1119 l 372 1215 l 449 1215 l 449 1119 l 372 1119 m 269 1215 l 269 1222 l 315 1410 l 393 1410 l 393 1403 l 324 1215 l 269 1215 z "},"Ǚ":{"ha":588,"x_min":76,"x_max":511,"o":"m 511 956 l 511 411 q 499 144 511 226 q 441 25 486 61 q 294 -11 396 -11 q 147 25 192 -11 q 89 144 101 61 q 76 411 76 226 l 76 956 l 153 956 l 153 364 q 161 167 153 226 q 198 84 169 108 q 294 60 226 60 q 390 84 361 60 q 426 167 418 108 q 435 364 435 226 l 435 956 l 511 956 m 139 1119 l 139 1215 l 214 1215 l 214 1119 l 139 1119 m 372 1119 l 372 1215 l 449 1215 l 449 1119 l 372 1119 m 254 1222 l 161 1401 l 161 1410 l 215 1410 l 296 1272 l 379 1410 l 432 1410 l 432 1401 l 339 1222 l 254 1222 z "},"Ǜ":{"ha":588,"x_min":76,"x_max":511,"o":"m 511 956 l 511 411 q 499 144 511 226 q 441 25 486 61 q 294 -11 396 -11 q 147 25 192 -11 q 89 144 101 61 q 76 411 76 226 l 76 956 l 153 956 l 153 364 q 161 167 153 226 q 198 84 169 108 q 294 60 226 60 q 390 84 361 60 q 426 167 418 108 q 435 364 435 226 l 435 956 l 511 956 m 139 1119 l 139 1215 l 214 1215 l 214 1119 l 139 1119 m 372 1119 l 372 1215 l 449 1215 l 449 1119 l 372 1119 m 272 1215 l 203 1403 l 203 1410 l 281 1410 l 326 1222 l 326 1215 l 272 1215 z "},"Ǖ":{"ha":588,"x_min":76,"x_max":511,"o":"m 181 1331 l 181 1400 l 413 1400 l 413 1331 l 181 1331 m 139 1119 l 139 1215 l 214 1215 l 214 1119 l 139 1119 m 372 1119 l 372 1215 l 449 1215 l 449 1119 l 372 1119 m 511 956 l 511 411 q 499 144 511 226 q 441 25 486 61 q 294 -11 396 -11 q 147 25 192 -11 q 89 144 101 61 q 76 411 76 226 l 76 956 l 153 956 l 153 364 q 161 167 153 226 q 198 84 169 108 q 294 60 226 60 q 390 84 361 60 q 426 167 418 108 q 435 364 435 226 l 435 956 l 511 956 z "},"Ụ":{"ha":588,"x_min":76,"x_max":511,"o":"m 511 956 l 511 411 q 499 144 511 226 q 441 25 486 61 q 294 -11 396 -11 q 147 25 192 -11 q 89 144 101 61 q 76 411 76 226 l 76 956 l 153 956 l 153 364 q 161 167 153 226 q 198 84 169 108 q 294 60 226 60 q 390 84 361 60 q 426 167 418 108 q 435 364 435 226 l 435 956 l 511 956 m 251 -194 l 251 -86 l 339 -86 l 339 -194 l 251 -194 z "},"Ù":{"ha":588,"x_min":76,"x_max":511,"o":"m 511 956 l 511 411 q 499 144 511 226 q 441 25 486 61 q 294 -11 396 -11 q 147 25 192 -11 q 89 144 101 61 q 76 411 76 226 l 76 956 l 153 956 l 153 364 q 161 167 153 226 q 198 84 169 108 q 294 60 226 60 q 390 84 361 60 q 426 167 418 108 q 435 364 435 226 l 435 956 l 511 956 m 276 1042 l 207 1229 l 207 1236 l 285 1236 l 331 1049 l 331 1042 l 276 1042 z "},"Ủ":{"ha":588,"x_min":76,"x_max":511,"o":"m 511 956 l 511 411 q 499 144 511 226 q 441 25 486 61 q 294 -11 396 -11 q 147 25 192 -11 q 89 144 101 61 q 76 411 76 226 l 76 956 l 153 956 l 153 364 q 161 167 153 226 q 198 84 169 108 q 294 60 226 60 q 390 84 361 60 q 426 167 418 108 q 435 364 435 226 l 435 956 l 511 956 m 238 1044 q 248 1084 238 1072 q 285 1104 258 1096 l 300 1108 q 344 1128 332 1118 q 357 1167 357 1139 q 353 1196 357 1188 q 332 1208 349 1204 q 278 1213 315 1213 q 171 1208 235 1213 l 171 1256 q 288 1267 254 1267 q 388 1247 361 1267 q 415 1178 415 1226 q 406 1115 415 1135 q 360 1082 397 1096 l 347 1078 q 300 1057 308 1064 q 292 1029 292 1050 l 238 1029 l 238 1044 z "},"Ư":{"ha":588,"x_min":76,"x_max":617,"o":"m 617 1089 l 617 1046 q 608 963 617 992 q 578 922 600 935 q 511 908 556 910 l 511 411 q 499 144 511 226 q 441 25 486 61 q 294 -11 396 -11 q 147 25 192 -11 q 89 144 101 61 q 76 411 76 226 l 76 956 l 153 956 l 153 364 q 161 167 153 226 q 198 84 169 108 q 294 60 226 60 q 390 84 361 60 q 426 167 418 108 q 435 364 435 226 l 435 956 l 497 956 q 549 972 538 956 q 560 1033 560 989 l 560 1089 l 617 1089 z "},"Ứ":{"ha":588,"x_min":76,"x_max":617,"o":"m 617 1089 l 617 1046 q 608 963 617 992 q 578 922 600 935 q 511 908 556 910 l 511 411 q 499 144 511 226 q 441 25 486 61 q 294 -11 396 -11 q 147 25 192 -11 q 89 144 101 61 q 76 411 76 226 l 76 956 l 153 956 l 153 364 q 161 167 153 226 q 198 84 169 108 q 294 60 226 60 q 390 84 361 60 q 426 167 418 108 q 435 364 435 226 l 435 956 l 497 956 q 549 972 538 956 q 560 1033 560 989 l 560 1089 l 617 1089 m 267 1039 l 267 1046 l 313 1233 l 390 1233 l 390 1226 l 321 1039 l 267 1039 z "},"Ự":{"ha":588,"x_min":76,"x_max":617,"o":"m 617 1089 l 617 1046 q 608 963 617 992 q 578 922 600 935 q 511 908 556 910 l 511 411 q 499 144 511 226 q 441 25 486 61 q 294 -11 396 -11 q 147 25 192 -11 q 89 144 101 61 q 76 411 76 226 l 76 956 l 153 956 l 153 364 q 161 167 153 226 q 198 84 169 108 q 294 60 226 60 q 390 84 361 60 q 426 167 418 108 q 435 364 435 226 l 435 956 l 497 956 q 549 972 538 956 q 560 1033 560 989 l 560 1089 l 617 1089 m 251 -194 l 251 -86 l 339 -86 l 339 -194 l 251 -194 z "},"Ừ":{"ha":588,"x_min":76,"x_max":617,"o":"m 617 1089 l 617 1046 q 608 963 617 992 q 578 922 600 935 q 511 908 556 910 l 511 411 q 499 144 511 226 q 441 25 486 61 q 294 -11 396 -11 q 147 25 192 -11 q 89 144 101 61 q 76 411 76 226 l 76 956 l 153 956 l 153 364 q 161 167 153 226 q 198 84 169 108 q 294 60 226 60 q 390 84 361 60 q 426 167 418 108 q 435 364 435 226 l 435 956 l 497 956 q 549 972 538 956 q 560 1033 560 989 l 560 1089 l 617 1089 m 269 1039 l 200 1226 l 200 1233 l 278 1233 l 324 1046 l 324 1039 l 269 1039 z "},"Ử":{"ha":588,"x_min":76,"x_max":617,"o":"m 617 1089 l 617 1046 q 608 963 617 992 q 578 922 600 935 q 511 908 556 910 l 511 411 q 499 144 511 226 q 441 25 486 61 q 294 -11 396 -11 q 147 25 192 -11 q 89 144 101 61 q 76 411 76 226 l 76 956 l 153 956 l 153 364 q 161 167 153 226 q 198 84 169 108 q 294 60 226 60 q 390 84 361 60 q 426 167 418 108 q 435 364 435 226 l 435 956 l 497 956 q 549 972 538 956 q 560 1033 560 989 l 560 1089 l 617 1089 m 238 1044 q 248 1084 238 1072 q 285 1104 258 1096 l 300 1108 q 344 1128 332 1118 q 357 1167 357 1139 q 353 1196 357 1188 q 332 1208 349 1204 q 278 1213 315 1213 q 171 1208 235 1213 l 171 1256 q 288 1267 254 1267 q 388 1247 361 1267 q 415 1178 415 1226 q 406 1115 415 1135 q 360 1082 397 1096 l 347 1078 q 300 1057 308 1064 q 292 1029 292 1050 l 238 1029 l 238 1044 z "},"Ữ":{"ha":588,"x_min":76,"x_max":617,"o":"m 617 1089 l 617 1046 q 608 963 617 992 q 578 922 600 935 q 511 908 556 910 l 511 411 q 499 144 511 226 q 441 25 486 61 q 294 -11 396 -11 q 147 25 192 -11 q 89 144 101 61 q 76 411 76 226 l 76 956 l 153 956 l 153 364 q 161 167 153 226 q 198 84 169 108 q 294 60 226 60 q 390 84 361 60 q 426 167 418 108 q 435 364 435 226 l 435 956 l 497 956 q 549 972 538 956 q 560 1033 560 989 l 560 1089 l 617 1089 m 458 1233 q 444 1123 458 1154 q 386 1092 431 1092 q 343 1100 364 1092 q 288 1125 322 1108 q 244 1148 263 1140 q 207 1156 225 1156 q 185 1140 190 1156 q 181 1076 181 1124 l 129 1076 q 143 1188 129 1157 q 201 1218 157 1218 q 249 1209 225 1218 q 304 1182 272 1200 q 347 1161 331 1168 q 379 1154 364 1154 q 401 1172 396 1154 q 407 1233 407 1189 l 458 1233 z "},"Ű":{"ha":588,"x_min":76,"x_max":511,"o":"m 511 956 l 511 411 q 499 144 511 226 q 441 25 486 61 q 294 -11 396 -11 q 147 25 192 -11 q 89 144 101 61 q 76 411 76 226 l 76 956 l 153 956 l 153 364 q 161 167 153 226 q 198 84 169 108 q 294 60 226 60 q 390 84 361 60 q 426 167 418 108 q 435 364 435 226 l 435 956 l 511 956 m 204 1050 l 204 1057 l 246 1215 l 318 1215 l 318 1208 l 253 1050 l 204 1050 m 350 1050 l 350 1057 l 392 1215 l 464 1215 l 464 1208 l 399 1050 l 350 1050 z "},"Ȗ":{"ha":588,"x_min":76,"x_max":511,"o":"m 511 956 l 511 411 q 499 144 511 226 q 441 25 486 61 q 294 -11 396 -11 q 147 25 192 -11 q 89 144 101 61 q 76 411 76 226 l 76 956 l 153 956 l 153 364 q 161 167 153 226 q 198 84 169 108 q 294 60 226 60 q 390 84 361 60 q 426 167 418 108 q 435 364 435 226 l 435 956 l 511 956 m 158 1049 q 166 1156 158 1117 q 203 1218 174 1194 q 294 1242 232 1242 q 385 1218 357 1242 q 422 1156 414 1194 q 429 1049 429 1118 l 371 1049 q 367 1132 371 1104 q 347 1175 363 1160 q 294 1190 331 1190 q 242 1175 258 1190 q 221 1132 225 1160 q 217 1049 217 1104 l 158 1049 z "},"Ū":{"ha":588,"x_min":76,"x_max":511,"o":"m 511 956 l 511 411 q 499 144 511 226 q 441 25 486 61 q 294 -11 396 -11 q 147 25 192 -11 q 89 144 101 61 q 76 411 76 226 l 76 956 l 153 956 l 153 364 q 161 167 153 226 q 198 84 169 108 q 294 60 226 60 q 390 84 361 60 q 426 167 418 108 q 435 364 435 226 l 435 956 l 511 956 m 178 1161 l 178 1233 l 410 1233 l 410 1161 l 178 1161 z "},"Ų":{"ha":588,"x_min":76,"x_max":511,"o":"m 511 956 l 511 411 q 506 211 511 283 q 485 92 501 139 q 436 19 469 44 q 365 -58 393 -10 q 338 -156 338 -107 q 400 -217 338 -217 l 421 -215 l 421 -269 q 383 -272 408 -272 q 300 -244 326 -272 q 274 -168 274 -215 q 292 -88 274 -131 q 344 -8 311 -46 q 294 -11 314 -11 q 147 25 192 -11 q 89 144 101 61 q 76 411 76 226 l 76 956 l 153 956 l 153 364 q 161 167 153 226 q 198 84 169 108 q 294 60 226 60 q 390 84 361 60 q 426 167 418 108 q 435 364 435 226 l 435 956 l 511 956 z "},"Ů":{"ha":588,"x_min":76,"x_max":511,"o":"m 511 956 l 511 411 q 499 144 511 226 q 441 25 486 61 q 294 -11 396 -11 q 147 25 192 -11 q 89 144 101 61 q 76 411 76 226 l 76 956 l 153 956 l 153 364 q 161 167 153 226 q 198 84 169 108 q 294 60 226 60 q 390 84 361 60 q 426 167 418 108 q 435 364 435 226 l 435 956 l 511 956 m 293 1019 q 212 1031 238 1019 q 178 1067 186 1043 q 171 1143 171 1092 q 178 1219 171 1193 q 212 1256 186 1244 q 293 1268 238 1268 q 374 1256 347 1268 q 408 1219 400 1244 q 415 1143 415 1193 q 408 1068 415 1093 q 374 1031 400 1043 q 293 1019 349 1019 m 293 1068 q 345 1082 335 1068 q 356 1143 356 1096 q 345 1203 356 1189 q 293 1218 335 1218 q 251 1212 264 1218 q 234 1190 238 1206 q 231 1143 231 1175 q 234 1095 231 1110 q 251 1074 238 1081 q 293 1068 264 1068 z "},"Ũ":{"ha":588,"x_min":76,"x_max":511,"o":"m 511 956 l 511 411 q 499 144 511 226 q 441 25 486 61 q 294 -11 396 -11 q 147 25 192 -11 q 89 144 101 61 q 76 411 76 226 l 76 956 l 153 956 l 153 364 q 161 167 153 226 q 198 84 169 108 q 294 60 226 60 q 390 84 361 60 q 426 167 418 108 q 435 364 435 226 l 435 956 l 511 956 m 458 1233 q 444 1123 458 1154 q 386 1092 431 1092 q 343 1100 364 1092 q 288 1125 322 1108 q 244 1148 263 1140 q 207 1156 225 1156 q 185 1140 190 1156 q 181 1076 181 1124 l 129 1076 q 143 1188 129 1157 q 201 1218 157 1218 q 249 1209 225 1218 q 304 1182 272 1200 q 347 1161 331 1168 q 379 1154 364 1154 q 401 1172 396 1154 q 407 1233 407 1189 l 458 1233 z "},"V":{"ha":510,"x_min":8,"x_max":503,"o":"m 204 0 l 8 956 l 88 956 l 253 118 l 261 118 l 426 956 l 503 956 l 306 0 l 204 0 z "},"W":{"ha":778,"x_min":13,"x_max":765,"o":"m 524 0 l 392 811 l 385 811 l 254 0 l 156 0 l 13 956 l 92 956 l 204 126 l 213 126 l 343 956 l 436 956 l 569 126 l 576 126 l 689 956 l 765 956 l 622 0 l 524 0 z "},"Ẃ":{"ha":778,"x_min":13,"x_max":765,"o":"m 524 0 l 392 811 l 385 811 l 254 0 l 156 0 l 13 956 l 92 956 l 204 126 l 213 126 l 343 956 l 436 956 l 569 126 l 576 126 l 689 956 l 765 956 l 622 0 l 524 0 m 363 1039 l 363 1046 l 408 1233 l 486 1233 l 486 1226 l 417 1039 l 363 1039 z "},"Ŵ":{"ha":778,"x_min":13,"x_max":765,"o":"m 524 0 l 392 811 l 385 811 l 254 0 l 156 0 l 13 956 l 92 956 l 204 126 l 213 126 l 343 956 l 436 956 l 569 126 l 576 126 l 689 956 l 765 956 l 622 0 l 524 0 m 254 1046 l 254 1053 l 347 1233 l 432 1233 l 525 1053 l 525 1046 l 472 1046 l 389 1183 l 308 1046 l 254 1046 z "},"Ẅ":{"ha":778,"x_min":13,"x_max":765,"o":"m 524 0 l 392 811 l 385 811 l 254 0 l 156 0 l 13 956 l 92 956 l 204 126 l 213 126 l 343 956 l 436 956 l 569 126 l 576 126 l 689 956 l 765 956 l 622 0 l 524 0 m 235 1119 l 235 1215 l 310 1215 l 310 1119 l 235 1119 m 468 1119 l 468 1215 l 544 1215 l 544 1119 l 468 1119 z "},"Ẁ":{"ha":778,"x_min":13,"x_max":765,"o":"m 524 0 l 392 811 l 385 811 l 254 0 l 156 0 l 13 956 l 92 956 l 204 126 l 213 126 l 343 956 l 436 956 l 569 126 l 576 126 l 689 956 l 765 956 l 622 0 l 524 0 m 365 1039 l 296 1226 l 296 1233 l 374 1233 l 419 1046 l 419 1039 l 365 1039 z "},"X":{"ha":544,"x_min":19,"x_max":525,"o":"m 443 0 l 274 413 l 267 413 l 99 0 l 19 0 l 219 481 l 22 956 l 103 956 l 271 550 l 276 550 l 443 956 l 522 956 l 325 483 l 525 0 l 443 0 z "},"Y":{"ha":479,"x_min":0,"x_max":481,"o":"m 200 0 l 200 379 l 0 956 l 79 956 l 238 479 l 246 479 l 404 956 l 481 956 l 278 379 l 278 0 l 200 0 z "},"Ý":{"ha":479,"x_min":0,"x_max":481,"o":"m 200 0 l 200 379 l 0 956 l 79 956 l 238 479 l 246 479 l 404 956 l 481 956 l 278 379 l 278 0 l 200 0 m 215 1042 l 215 1049 l 261 1236 l 339 1236 l 339 1229 l 269 1042 l 215 1042 z "},"Ŷ":{"ha":479,"x_min":0,"x_max":481,"o":"m 200 0 l 200 379 l 0 956 l 79 956 l 238 479 l 246 479 l 404 956 l 481 956 l 278 379 l 278 0 l 200 0 m 104 1046 l 104 1053 l 197 1233 l 282 1233 l 375 1053 l 375 1046 l 322 1046 l 239 1183 l 158 1046 l 104 1046 z "},"Ÿ":{"ha":479,"x_min":0,"x_max":481,"o":"m 200 0 l 200 379 l 0 956 l 79 956 l 238 479 l 246 479 l 404 956 l 481 956 l 278 379 l 278 0 l 200 0 m 88 1071 l 88 1167 l 163 1167 l 163 1071 l 88 1071 m 321 1071 l 321 1167 l 397 1167 l 397 1071 l 321 1071 z "},"Ỵ":{"ha":479,"x_min":0,"x_max":481,"o":"m 200 0 l 200 379 l 0 956 l 79 956 l 238 479 l 246 479 l 404 956 l 481 956 l 278 379 l 278 0 l 200 0 m 197 -194 l 197 -86 l 285 -86 l 285 -194 l 197 -194 z "},"Ỳ":{"ha":479,"x_min":0,"x_max":481,"o":"m 200 0 l 200 379 l 0 956 l 79 956 l 238 479 l 246 479 l 404 956 l 481 956 l 278 379 l 278 0 l 200 0 m 215 1039 l 146 1226 l 146 1233 l 224 1233 l 269 1046 l 269 1039 l 215 1039 z "},"Ỷ":{"ha":479,"x_min":0,"x_max":481,"o":"m 200 0 l 200 379 l 0 956 l 79 956 l 238 479 l 246 479 l 404 956 l 481 956 l 278 379 l 278 0 l 200 0 m 183 1044 q 194 1084 183 1072 q 231 1104 204 1096 l 246 1108 q 290 1128 278 1118 q 303 1167 303 1139 q 299 1196 303 1188 q 278 1208 294 1204 q 224 1213 261 1213 q 117 1208 181 1213 l 117 1256 q 233 1267 200 1267 q 334 1247 307 1267 q 361 1178 361 1226 q 352 1115 361 1135 q 306 1082 343 1096 l 293 1078 q 246 1057 254 1064 q 238 1029 238 1050 l 183 1029 l 183 1044 z "},"Ȳ":{"ha":479,"x_min":0,"x_max":481,"o":"m 200 0 l 200 379 l 0 956 l 79 956 l 238 479 l 246 479 l 404 956 l 481 956 l 278 379 l 278 0 l 200 0 m 124 1161 l 124 1233 l 356 1233 l 356 1161 l 124 1161 z "},"Ỹ":{"ha":479,"x_min":0,"x_max":481,"o":"m 200 0 l 200 379 l 0 956 l 79 956 l 238 479 l 246 479 l 404 956 l 481 956 l 278 379 l 278 0 l 200 0 m 404 1233 q 390 1123 404 1154 q 332 1092 376 1092 q 289 1100 310 1092 q 233 1125 268 1108 q 190 1148 208 1140 q 153 1156 171 1156 q 131 1140 136 1156 q 126 1076 126 1124 l 75 1076 q 89 1188 75 1157 q 147 1218 103 1218 q 194 1209 171 1218 q 250 1182 218 1200 q 293 1161 276 1168 q 325 1154 310 1154 q 347 1172 342 1154 q 353 1233 353 1189 l 404 1233 z "},"Z":{"ha":468,"x_min":29,"x_max":439,"o":"m 29 0 l 29 67 l 350 885 l 38 885 l 38 956 l 433 956 l 433 889 l 113 71 l 439 71 l 439 0 l 29 0 z "},"Ź":{"ha":468,"x_min":29,"x_max":439,"o":"m 29 0 l 29 67 l 350 885 l 38 885 l 38 956 l 433 956 l 433 889 l 113 71 l 439 71 l 439 0 l 29 0 m 206 1039 l 206 1046 l 251 1233 l 329 1233 l 329 1226 l 260 1039 l 206 1039 z "},"Ž":{"ha":468,"x_min":29,"x_max":439,"o":"m 29 0 l 29 67 l 350 885 l 38 885 l 38 956 l 433 956 l 433 889 l 113 71 l 439 71 l 439 0 l 29 0 m 200 1043 l 107 1222 l 107 1231 l 161 1231 l 242 1093 l 325 1231 l 378 1231 l 378 1222 l 285 1043 l 200 1043 z "},"Ż":{"ha":468,"x_min":29,"x_max":439,"o":"m 29 0 l 29 67 l 350 885 l 38 885 l 38 956 l 433 956 l 433 889 l 113 71 l 439 71 l 439 0 l 29 0 m 194 1119 l 194 1215 l 269 1215 l 269 1119 l 194 1119 z "},"Ẓ":{"ha":468,"x_min":29,"x_max":439,"o":"m 29 0 l 29 67 l 350 885 l 38 885 l 38 956 l 433 956 l 433 889 l 113 71 l 439 71 l 439 0 l 29 0 m 190 -194 l 190 -86 l 278 -86 l 278 -194 l 190 -194 z "},"a":{"ha":500,"x_min":38,"x_max":429,"o":"m 204 -11 q 108 6 143 -11 q 55 68 72 24 q 38 194 38 113 q 52 317 38 274 q 100 380 67 361 q 196 399 133 399 q 356 392 240 399 l 356 450 q 345 586 356 544 q 307 641 335 628 q 214 654 279 654 q 138 649 181 654 q 67 639 96 644 l 67 703 q 233 719 142 719 q 355 697 314 719 q 413 619 396 675 q 429 454 429 563 l 429 0 l 365 0 l 360 100 l 353 100 q 299 12 339 35 q 204 -11 260 -11 m 218 56 q 297 69 267 56 q 339 129 326 83 q 356 286 356 192 l 356 340 l 211 340 q 147 330 168 340 q 118 290 126 319 q 110 197 110 260 q 119 109 110 139 q 150 67 128 79 q 218 56 172 56 z "},"á":{"ha":500,"x_min":38,"x_max":429,"o":"m 204 -11 q 108 6 143 -11 q 55 68 72 24 q 38 194 38 113 q 52 317 38 274 q 100 380 67 361 q 196 399 133 399 q 356 392 240 399 l 356 450 q 345 586 356 544 q 307 641 335 628 q 214 654 279 654 q 138 649 181 654 q 67 639 96 644 l 67 703 q 233 719 142 719 q 355 697 314 719 q 413 619 396 675 q 429 454 429 563 l 429 0 l 365 0 l 360 100 l 353 100 q 299 12 339 35 q 204 -11 260 -11 m 218 56 q 297 69 267 56 q 339 129 326 83 q 356 286 356 192 l 356 340 l 211 340 q 147 330 168 340 q 118 290 126 319 q 110 197 110 260 q 119 109 110 139 q 150 67 128 79 q 218 56 172 56 m 217 838 l 217 844 l 263 1032 l 340 1032 l 340 1025 l 271 838 l 217 838 z "},"ă":{"ha":500,"x_min":38,"x_max":429,"o":"m 204 -11 q 108 6 143 -11 q 55 68 72 24 q 38 194 38 113 q 52 317 38 274 q 100 380 67 361 q 196 399 133 399 q 356 392 240 399 l 356 450 q 345 586 356 544 q 307 641 335 628 q 214 654 279 654 q 138 649 181 654 q 67 639 96 644 l 67 703 q 233 719 142 719 q 355 697 314 719 q 413 619 396 675 q 429 454 429 563 l 429 0 l 365 0 l 360 100 l 353 100 q 299 12 339 35 q 204 -11 260 -11 m 218 56 q 297 69 267 56 q 339 129 326 83 q 356 286 356 192 l 356 340 l 211 340 q 147 330 168 340 q 118 290 126 319 q 110 197 110 260 q 119 109 110 139 q 150 67 128 79 q 218 56 172 56 m 386 1032 q 378 925 386 964 q 342 863 371 886 q 250 839 313 839 q 159 863 188 839 q 123 924 131 886 q 115 1032 115 963 l 174 1032 q 178 949 174 976 q 198 906 182 921 q 250 890 214 890 q 303 906 286 890 q 324 949 319 921 q 328 1032 328 976 l 386 1032 z "},"ắ":{"ha":500,"x_min":38,"x_max":429,"o":"m 204 -11 q 108 6 143 -11 q 55 68 72 24 q 38 194 38 113 q 52 317 38 274 q 100 380 67 361 q 196 399 133 399 q 356 392 240 399 l 356 450 q 345 586 356 544 q 307 641 335 628 q 214 654 279 654 q 138 649 181 654 q 67 639 96 644 l 67 703 q 233 719 142 719 q 355 697 314 719 q 413 619 396 675 q 429 454 429 563 l 429 0 l 365 0 l 360 100 l 353 100 q 299 12 339 35 q 204 -11 260 -11 m 218 56 q 297 69 267 56 q 339 129 326 83 q 356 286 356 192 l 356 340 l 211 340 q 147 330 168 340 q 118 290 126 319 q 110 197 110 260 q 119 109 110 139 q 150 67 128 79 q 218 56 172 56 m 386 1032 q 378 925 386 964 q 342 863 371 886 q 250 839 313 839 q 159 863 188 839 q 123 924 131 886 q 115 1032 115 963 l 174 1032 q 178 949 174 976 q 198 906 182 921 q 250 890 214 890 q 303 906 286 890 q 324 949 319 921 q 328 1032 328 976 l 386 1032 m 224 1078 l 224 1085 l 269 1272 l 347 1272 l 347 1265 l 278 1078 l 224 1078 z "},"ặ":{"ha":500,"x_min":38,"x_max":429,"o":"m 204 -11 q 108 6 143 -11 q 55 68 72 24 q 38 194 38 113 q 52 317 38 274 q 100 380 67 361 q 196 399 133 399 q 356 392 240 399 l 356 450 q 345 586 356 544 q 307 641 335 628 q 214 654 279 654 q 138 649 181 654 q 67 639 96 644 l 67 703 q 233 719 142 719 q 355 697 314 719 q 413 619 396 675 q 429 454 429 563 l 429 0 l 365 0 l 360 100 l 353 100 q 299 12 339 35 q 204 -11 260 -11 m 218 56 q 297 69 267 56 q 339 129 326 83 q 356 286 356 192 l 356 340 l 211 340 q 147 330 168 340 q 118 290 126 319 q 110 197 110 260 q 119 109 110 139 q 150 67 128 79 q 218 56 172 56 m 208 -194 l 208 -86 l 296 -86 l 296 -194 l 208 -194 m 386 1032 q 378 925 386 964 q 342 863 371 886 q 250 839 313 839 q 159 863 188 839 q 123 924 131 886 q 115 1032 115 963 l 174 1032 q 178 949 174 976 q 198 906 182 921 q 250 890 214 890 q 303 906 286 890 q 324 949 319 921 q 328 1032 328 976 l 386 1032 z "},"ằ":{"ha":500,"x_min":38,"x_max":429,"o":"m 204 -11 q 108 6 143 -11 q 55 68 72 24 q 38 194 38 113 q 52 317 38 274 q 100 380 67 361 q 196 399 133 399 q 356 392 240 399 l 356 450 q 345 586 356 544 q 307 641 335 628 q 214 654 279 654 q 138 649 181 654 q 67 639 96 644 l 67 703 q 233 719 142 719 q 355 697 314 719 q 413 619 396 675 q 429 454 429 563 l 429 0 l 365 0 l 360 100 l 353 100 q 299 12 339 35 q 204 -11 260 -11 m 218 56 q 297 69 267 56 q 339 129 326 83 q 356 286 356 192 l 356 340 l 211 340 q 147 330 168 340 q 118 290 126 319 q 110 197 110 260 q 119 109 110 139 q 150 67 128 79 q 218 56 172 56 m 386 1032 q 378 925 386 964 q 342 863 371 886 q 250 839 313 839 q 159 863 188 839 q 123 924 131 886 q 115 1032 115 963 l 174 1032 q 178 949 174 976 q 198 906 182 921 q 250 890 214 890 q 303 906 286 890 q 324 949 319 921 q 328 1032 328 976 l 386 1032 m 225 1078 l 156 1265 l 156 1272 l 233 1272 l 279 1085 l 279 1078 l 225 1078 z "},"ẳ":{"ha":500,"x_min":38,"x_max":429,"o":"m 204 -11 q 108 6 143 -11 q 55 68 72 24 q 38 194 38 113 q 52 317 38 274 q 100 380 67 361 q 196 399 133 399 q 356 392 240 399 l 356 450 q 345 586 356 544 q 307 641 335 628 q 214 654 279 654 q 138 649 181 654 q 67 639 96 644 l 67 703 q 233 719 142 719 q 355 697 314 719 q 413 619 396 675 q 429 454 429 563 l 429 0 l 365 0 l 360 100 l 353 100 q 299 12 339 35 q 204 -11 260 -11 m 218 56 q 297 69 267 56 q 339 129 326 83 q 356 286 356 192 l 356 340 l 211 340 q 147 330 168 340 q 118 290 126 319 q 110 197 110 260 q 119 109 110 139 q 150 67 128 79 q 218 56 172 56 m 383 1032 q 376 925 383 964 q 339 863 368 886 q 247 839 310 839 q 156 863 185 839 q 120 924 128 886 q 113 1032 113 963 l 171 1032 q 175 949 171 976 q 195 906 179 921 q 247 890 211 890 q 300 906 283 890 q 321 949 317 921 q 325 1032 325 976 l 383 1032 m 201 1049 q 212 1088 201 1076 q 249 1108 222 1099 l 264 1111 q 308 1133 296 1122 q 321 1169 321 1143 q 317 1199 321 1190 q 296 1213 313 1208 q 242 1217 279 1217 l 188 1215 q 135 1213 154 1213 l 135 1260 q 251 1271 218 1271 q 352 1251 325 1271 q 379 1182 379 1231 q 370 1119 379 1139 q 324 1086 361 1100 l 311 1082 q 272 1066 283 1071 q 258 1054 261 1061 q 256 1033 256 1047 l 201 1033 l 201 1049 z "},"ẵ":{"ha":500,"x_min":38,"x_max":429,"o":"m 204 -11 q 108 6 143 -11 q 55 68 72 24 q 38 194 38 113 q 52 317 38 274 q 100 380 67 361 q 196 399 133 399 q 356 392 240 399 l 356 450 q 345 586 356 544 q 307 641 335 628 q 214 654 279 654 q 138 649 181 654 q 67 639 96 644 l 67 703 q 233 719 142 719 q 355 697 314 719 q 413 619 396 675 q 429 454 429 563 l 429 0 l 365 0 l 360 100 l 353 100 q 299 12 339 35 q 204 -11 260 -11 m 218 56 q 297 69 267 56 q 339 129 326 83 q 356 286 356 192 l 356 340 l 211 340 q 147 330 168 340 q 118 290 126 319 q 110 197 110 260 q 119 109 110 139 q 150 67 128 79 q 218 56 172 56 m 383 1032 q 376 925 383 964 q 339 863 368 886 q 247 839 310 839 q 156 863 185 839 q 120 924 128 886 q 113 1032 113 963 l 171 1032 q 175 949 171 976 q 195 906 179 921 q 247 890 211 890 q 300 906 283 890 q 321 949 317 921 q 325 1032 325 976 l 383 1032 m 415 1272 q 401 1162 415 1193 q 343 1131 388 1131 q 300 1139 321 1131 q 244 1164 279 1147 q 201 1187 219 1179 q 164 1194 182 1194 q 142 1178 147 1194 q 138 1115 138 1163 l 86 1115 q 100 1226 86 1196 q 158 1257 114 1257 q 206 1248 182 1257 q 261 1221 229 1239 q 304 1200 288 1207 q 336 1193 321 1193 q 358 1210 353 1193 q 364 1272 364 1228 l 415 1272 z "},"ǎ":{"ha":500,"x_min":38,"x_max":429,"o":"m 204 -11 q 108 6 143 -11 q 55 68 72 24 q 38 194 38 113 q 52 317 38 274 q 100 380 67 361 q 196 399 133 399 q 356 392 240 399 l 356 450 q 345 586 356 544 q 307 641 335 628 q 214 654 279 654 q 138 649 181 654 q 67 639 96 644 l 67 703 q 233 719 142 719 q 355 697 314 719 q 413 619 396 675 q 429 454 429 563 l 429 0 l 365 0 l 360 100 l 353 100 q 299 12 339 35 q 204 -11 260 -11 m 218 56 q 297 69 267 56 q 339 129 326 83 q 356 286 356 192 l 356 340 l 211 340 q 147 330 168 340 q 118 290 126 319 q 110 197 110 260 q 119 109 110 139 q 150 67 128 79 q 218 56 172 56 m 208 844 l 115 1024 l 115 1032 l 169 1032 l 250 894 l 333 1032 l 386 1032 l 386 1024 l 293 844 l 208 844 z "},"â":{"ha":500,"x_min":38,"x_max":429,"o":"m 204 -11 q 108 6 143 -11 q 55 68 72 24 q 38 194 38 113 q 52 317 38 274 q 100 380 67 361 q 196 399 133 399 q 356 392 240 399 l 356 450 q 345 586 356 544 q 307 641 335 628 q 214 654 279 654 q 138 649 181 654 q 67 639 96 644 l 67 703 q 233 719 142 719 q 355 697 314 719 q 413 619 396 675 q 429 454 429 563 l 429 0 l 365 0 l 360 100 l 353 100 q 299 12 339 35 q 204 -11 260 -11 m 218 56 q 297 69 267 56 q 339 129 326 83 q 356 286 356 192 l 356 340 l 211 340 q 147 330 168 340 q 118 290 126 319 q 110 197 110 260 q 119 109 110 139 q 150 67 128 79 q 218 56 172 56 m 115 844 l 115 851 l 208 1032 l 293 1032 l 386 851 l 386 844 l 333 844 l 250 982 l 169 844 l 115 844 z "},"ấ":{"ha":500,"x_min":38,"x_max":449,"o":"m 204 -11 q 108 6 143 -11 q 55 68 72 24 q 38 194 38 113 q 52 317 38 274 q 100 380 67 361 q 196 399 133 399 q 356 392 240 399 l 356 450 q 345 586 356 544 q 307 641 335 628 q 214 654 279 654 q 138 649 181 654 q 67 639 96 644 l 67 703 q 233 719 142 719 q 355 697 314 719 q 413 619 396 675 q 429 454 429 563 l 429 0 l 365 0 l 360 100 l 353 100 q 299 12 339 35 q 204 -11 260 -11 m 218 56 q 297 69 267 56 q 339 129 326 83 q 356 286 356 192 l 356 340 l 211 340 q 147 330 168 340 q 118 290 126 319 q 110 197 110 260 q 119 109 110 139 q 150 67 128 79 q 218 56 172 56 m 115 844 l 115 851 l 208 1032 l 293 1032 l 386 851 l 386 844 l 333 844 l 250 982 l 169 844 l 115 844 m 325 1038 l 325 1044 l 371 1232 l 449 1232 l 449 1225 l 379 1038 l 325 1038 z "},"ậ":{"ha":500,"x_min":38,"x_max":429,"o":"m 204 -11 q 108 6 143 -11 q 55 68 72 24 q 38 194 38 113 q 52 317 38 274 q 100 380 67 361 q 196 399 133 399 q 356 392 240 399 l 356 450 q 345 586 356 544 q 307 641 335 628 q 214 654 279 654 q 138 649 181 654 q 67 639 96 644 l 67 703 q 233 719 142 719 q 355 697 314 719 q 413 619 396 675 q 429 454 429 563 l 429 0 l 365 0 l 360 100 l 353 100 q 299 12 339 35 q 204 -11 260 -11 m 218 56 q 297 69 267 56 q 339 129 326 83 q 356 286 356 192 l 356 340 l 211 340 q 147 330 168 340 q 118 290 126 319 q 110 197 110 260 q 119 109 110 139 q 150 67 128 79 q 218 56 172 56 m 208 -194 l 208 -86 l 296 -86 l 296 -194 l 208 -194 m 115 844 l 115 851 l 208 1032 l 293 1032 l 386 851 l 386 844 l 333 844 l 250 982 l 169 844 l 115 844 z "},"ầ":{"ha":500,"x_min":38,"x_max":429,"o":"m 204 -11 q 108 6 143 -11 q 55 68 72 24 q 38 194 38 113 q 52 317 38 274 q 100 380 67 361 q 196 399 133 399 q 356 392 240 399 l 356 450 q 345 586 356 544 q 307 641 335 628 q 214 654 279 654 q 138 649 181 654 q 67 639 96 644 l 67 703 q 233 719 142 719 q 355 697 314 719 q 413 619 396 675 q 429 454 429 563 l 429 0 l 365 0 l 360 100 l 353 100 q 299 12 339 35 q 204 -11 260 -11 m 218 56 q 297 69 267 56 q 339 129 326 83 q 356 286 356 192 l 356 340 l 211 340 q 147 330 168 340 q 118 290 126 319 q 110 197 110 260 q 119 109 110 139 q 150 67 128 79 q 218 56 172 56 m 113 844 l 113 851 l 206 1032 l 290 1032 l 383 851 l 383 844 l 331 844 l 247 982 l 167 844 l 113 844 m 325 1038 l 256 1225 l 256 1232 l 333 1232 l 379 1044 l 379 1038 l 325 1038 z "},"ẩ":{"ha":500,"x_min":38,"x_max":486,"o":"m 204 -11 q 108 6 143 -11 q 55 68 72 24 q 38 194 38 113 q 52 317 38 274 q 100 380 67 361 q 196 399 133 399 q 356 392 240 399 l 356 450 q 345 586 356 544 q 307 641 335 628 q 214 654 279 654 q 138 649 181 654 q 67 639 96 644 l 67 703 q 233 719 142 719 q 355 697 314 719 q 413 619 396 675 q 429 454 429 563 l 429 0 l 365 0 l 360 100 l 353 100 q 299 12 339 35 q 204 -11 260 -11 m 218 56 q 297 69 267 56 q 339 129 326 83 q 356 286 356 192 l 356 340 l 211 340 q 147 330 168 340 q 118 290 126 319 q 110 197 110 260 q 119 109 110 139 q 150 67 128 79 q 218 56 172 56 m 115 844 l 115 851 l 208 1032 l 293 1032 l 386 851 l 386 844 l 333 844 l 250 982 l 169 844 l 115 844 m 308 1053 q 319 1092 308 1081 q 356 1113 329 1103 l 371 1115 q 415 1137 403 1126 q 428 1174 428 1147 q 424 1203 428 1194 q 403 1217 419 1213 q 349 1221 386 1221 l 294 1219 q 242 1217 261 1217 l 242 1264 q 358 1275 325 1275 q 459 1255 432 1275 q 486 1186 486 1235 q 477 1124 486 1143 q 431 1090 468 1104 l 418 1086 q 379 1070 390 1075 q 365 1058 368 1065 q 363 1038 363 1051 l 308 1038 l 308 1053 z "},"ẫ":{"ha":500,"x_min":38,"x_max":429,"o":"m 204 -11 q 108 6 143 -11 q 55 68 72 24 q 38 194 38 113 q 52 317 38 274 q 100 380 67 361 q 196 399 133 399 q 356 392 240 399 l 356 450 q 345 586 356 544 q 307 641 335 628 q 214 654 279 654 q 138 649 181 654 q 67 639 96 644 l 67 703 q 233 719 142 719 q 355 697 314 719 q 413 619 396 675 q 429 454 429 563 l 429 0 l 365 0 l 360 100 l 353 100 q 299 12 339 35 q 204 -11 260 -11 m 218 56 q 297 69 267 56 q 339 129 326 83 q 356 286 356 192 l 356 340 l 211 340 q 147 330 168 340 q 118 290 126 319 q 110 197 110 260 q 119 109 110 139 q 150 67 128 79 q 218 56 172 56 m 113 844 l 113 851 l 206 1032 l 290 1032 l 383 851 l 383 844 l 331 844 l 247 982 l 167 844 l 113 844 m 415 1272 q 401 1162 415 1193 q 343 1131 388 1131 q 300 1139 321 1131 q 244 1164 279 1147 q 201 1187 219 1179 q 164 1194 182 1194 q 142 1178 147 1194 q 138 1115 138 1163 l 86 1115 q 100 1226 86 1196 q 158 1257 114 1257 q 206 1248 182 1257 q 261 1221 229 1239 q 304 1200 288 1207 q 336 1193 321 1193 q 358 1210 353 1193 q 364 1272 364 1228 l 415 1272 z "},"ȁ":{"ha":500,"x_min":38,"x_max":429,"o":"m 204 -11 q 108 6 143 -11 q 55 68 72 24 q 38 194 38 113 q 52 317 38 274 q 100 380 67 361 q 196 399 133 399 q 356 392 240 399 l 356 450 q 345 586 356 544 q 307 641 335 628 q 214 654 279 654 q 138 649 181 654 q 67 639 96 644 l 67 703 q 233 719 142 719 q 355 697 314 719 q 413 619 396 675 q 429 454 429 563 l 429 0 l 365 0 l 360 100 l 353 100 q 299 12 339 35 q 204 -11 260 -11 m 218 56 q 297 69 267 56 q 339 129 326 83 q 356 286 356 192 l 356 340 l 211 340 q 147 330 168 340 q 118 290 126 319 q 110 197 110 260 q 119 109 110 139 q 150 67 128 79 q 218 56 172 56 m 203 849 l 154 849 l 89 1007 l 89 1014 l 161 1014 l 203 856 l 203 849 m 349 849 l 300 849 l 235 1007 l 235 1014 l 307 1014 l 349 856 l 349 849 z "},"ä":{"ha":500,"x_min":38,"x_max":429,"o":"m 204 -11 q 108 6 143 -11 q 55 68 72 24 q 38 194 38 113 q 52 317 38 274 q 100 380 67 361 q 196 399 133 399 q 356 392 240 399 l 356 450 q 345 586 356 544 q 307 641 335 628 q 214 654 279 654 q 138 649 181 654 q 67 639 96 644 l 67 703 q 233 719 142 719 q 355 697 314 719 q 413 619 396 675 q 429 454 429 563 l 429 0 l 365 0 l 360 100 l 353 100 q 299 12 339 35 q 204 -11 260 -11 m 218 56 q 297 69 267 56 q 339 129 326 83 q 356 286 356 192 l 356 340 l 211 340 q 147 330 168 340 q 118 290 126 319 q 110 197 110 260 q 119 109 110 139 q 150 67 128 79 q 218 56 172 56 m 97 918 l 97 1014 l 172 1014 l 172 918 l 97 918 m 331 918 l 331 1014 l 407 1014 l 407 918 l 331 918 z "},"ạ":{"ha":500,"x_min":38,"x_max":429,"o":"m 204 -11 q 108 6 143 -11 q 55 68 72 24 q 38 194 38 113 q 52 317 38 274 q 100 380 67 361 q 196 399 133 399 q 356 392 240 399 l 356 450 q 345 586 356 544 q 307 641 335 628 q 214 654 279 654 q 138 649 181 654 q 67 639 96 644 l 67 703 q 233 719 142 719 q 355 697 314 719 q 413 619 396 675 q 429 454 429 563 l 429 0 l 365 0 l 360 100 l 353 100 q 299 12 339 35 q 204 -11 260 -11 m 218 56 q 297 69 267 56 q 339 129 326 83 q 356 286 356 192 l 356 340 l 211 340 q 147 330 168 340 q 118 290 126 319 q 110 197 110 260 q 119 109 110 139 q 150 67 128 79 q 218 56 172 56 m 208 -194 l 208 -86 l 296 -86 l 296 -194 l 208 -194 z "},"à":{"ha":500,"x_min":38,"x_max":429,"o":"m 204 -11 q 108 6 143 -11 q 55 68 72 24 q 38 194 38 113 q 52 317 38 274 q 100 380 67 361 q 196 399 133 399 q 356 392 240 399 l 356 450 q 345 586 356 544 q 307 641 335 628 q 214 654 279 654 q 138 649 181 654 q 67 639 96 644 l 67 703 q 233 719 142 719 q 355 697 314 719 q 413 619 396 675 q 429 454 429 563 l 429 0 l 365 0 l 360 100 l 353 100 q 299 12 339 35 q 204 -11 260 -11 m 218 56 q 297 69 267 56 q 339 129 326 83 q 356 286 356 192 l 356 340 l 211 340 q 147 330 168 340 q 118 290 126 319 q 110 197 110 260 q 119 109 110 139 q 150 67 128 79 q 218 56 172 56 m 225 838 l 156 1025 l 156 1032 l 233 1032 l 279 844 l 279 838 l 225 838 z "},"ả":{"ha":500,"x_min":38,"x_max":429,"o":"m 204 -11 q 108 6 143 -11 q 55 68 72 24 q 38 194 38 113 q 52 317 38 274 q 100 380 67 361 q 196 399 133 399 q 356 392 240 399 l 356 450 q 345 586 356 544 q 307 641 335 628 q 214 654 279 654 q 138 649 181 654 q 67 639 96 644 l 67 703 q 233 719 142 719 q 355 697 314 719 q 413 619 396 675 q 429 454 429 563 l 429 0 l 365 0 l 360 100 l 353 100 q 299 12 339 35 q 204 -11 260 -11 m 218 56 q 297 69 267 56 q 339 129 326 83 q 356 286 356 192 l 356 340 l 211 340 q 147 330 168 340 q 118 290 126 319 q 110 197 110 260 q 119 109 110 139 q 150 67 128 79 q 218 56 172 56 m 194 865 q 205 904 194 893 q 242 925 215 915 l 257 928 q 301 949 289 939 q 314 986 314 960 q 310 1016 314 1007 q 289 1029 306 1025 q 235 1033 272 1033 l 181 1032 q 128 1029 147 1029 l 128 1076 q 244 1088 211 1088 q 345 1067 318 1088 q 372 999 372 1047 q 363 936 372 956 q 317 903 354 917 l 304 899 q 265 883 276 888 q 251 871 254 878 q 249 850 249 864 l 194 850 l 194 865 z "},"ȃ":{"ha":500,"x_min":38,"x_max":429,"o":"m 204 -11 q 108 6 143 -11 q 55 68 72 24 q 38 194 38 113 q 52 317 38 274 q 100 380 67 361 q 196 399 133 399 q 356 392 240 399 l 356 450 q 345 586 356 544 q 307 641 335 628 q 214 654 279 654 q 138 649 181 654 q 67 639 96 644 l 67 703 q 233 719 142 719 q 355 697 314 719 q 413 619 396 675 q 429 454 429 563 l 429 0 l 365 0 l 360 100 l 353 100 q 299 12 339 35 q 204 -11 260 -11 m 218 56 q 297 69 267 56 q 339 129 326 83 q 356 286 356 192 l 356 340 l 211 340 q 147 330 168 340 q 118 290 126 319 q 110 197 110 260 q 119 109 110 139 q 150 67 128 79 q 218 56 172 56 m 115 847 q 123 954 115 915 q 160 1017 131 993 q 251 1040 189 1040 q 342 1017 314 1040 q 378 955 371 993 q 386 847 386 917 l 328 847 q 324 931 328 903 q 303 974 319 958 q 251 989 288 989 q 199 974 215 989 q 178 931 182 958 q 174 847 174 903 l 115 847 z "},"ā":{"ha":500,"x_min":38,"x_max":429,"o":"m 204 -11 q 108 6 143 -11 q 55 68 72 24 q 38 194 38 113 q 52 317 38 274 q 100 380 67 361 q 196 399 133 399 q 356 392 240 399 l 356 450 q 345 586 356 544 q 307 641 335 628 q 214 654 279 654 q 138 649 181 654 q 67 639 96 644 l 67 703 q 233 719 142 719 q 355 697 314 719 q 413 619 396 675 q 429 454 429 563 l 429 0 l 365 0 l 360 100 l 353 100 q 299 12 339 35 q 204 -11 260 -11 m 218 56 q 297 69 267 56 q 339 129 326 83 q 356 286 356 192 l 356 340 l 211 340 q 147 330 168 340 q 118 290 126 319 q 110 197 110 260 q 119 109 110 139 q 150 67 128 79 q 218 56 172 56 m 135 960 l 135 1032 l 367 1032 l 367 960 l 135 960 z "},"ą":{"ha":500,"x_min":38,"x_max":433,"o":"m 433 -215 l 433 -269 q 396 -272 421 -272 q 313 -244 339 -272 q 286 -169 286 -215 q 308 -83 286 -128 q 368 0 331 -37 l 365 0 l 360 100 l 353 100 q 299 12 339 35 q 204 -11 260 -11 q 108 6 143 -11 q 55 68 72 24 q 38 194 38 113 q 52 317 38 274 q 100 380 67 361 q 196 399 133 399 q 356 392 240 399 l 356 450 q 345 586 356 544 q 307 641 335 628 q 214 654 279 654 q 135 649 179 654 q 67 639 92 644 l 67 703 q 233 719 142 719 q 355 697 314 719 q 413 619 396 675 q 429 454 429 563 l 429 0 q 376 -70 401 -24 q 350 -157 350 -117 q 411 -217 350 -217 l 433 -215 m 356 340 l 211 340 q 147 330 168 340 q 118 290 126 319 q 110 197 110 260 q 119 109 110 139 q 150 67 128 79 q 218 56 172 56 q 297 69 267 56 q 339 129 326 83 q 356 286 356 192 l 356 340 z "},"å":{"ha":500,"x_min":38,"x_max":429,"o":"m 204 -11 q 108 6 143 -11 q 55 68 72 24 q 38 194 38 113 q 52 317 38 274 q 100 380 67 361 q 196 399 133 399 q 356 392 240 399 l 356 450 q 345 586 356 544 q 307 641 335 628 q 214 654 279 654 q 138 649 181 654 q 67 639 96 644 l 67 703 q 233 719 142 719 q 355 697 314 719 q 413 619 396 675 q 429 454 429 563 l 429 0 l 365 0 l 360 100 l 353 100 q 299 12 339 35 q 204 -11 260 -11 m 218 56 q 297 69 267 56 q 339 129 326 83 q 356 286 356 192 l 356 340 l 211 340 q 147 330 168 340 q 118 290 126 319 q 110 197 110 260 q 119 109 110 139 q 150 67 128 79 q 218 56 172 56 m 250 854 q 169 866 194 854 q 135 902 143 878 q 128 978 128 926 q 135 1053 128 1028 q 169 1091 143 1079 q 250 1103 194 1103 q 331 1091 304 1103 q 365 1053 357 1079 q 372 978 372 1028 q 365 903 372 928 q 331 866 357 878 q 250 854 306 854 m 250 903 q 302 917 292 903 q 313 978 313 931 q 302 1038 313 1024 q 250 1053 292 1053 q 208 1047 221 1053 q 191 1025 194 1040 q 188 978 188 1010 q 191 930 188 944 q 208 909 194 915 q 250 903 221 903 z "},"ǻ":{"ha":500,"x_min":38,"x_max":429,"o":"m 204 -11 q 108 6 143 -11 q 55 68 72 24 q 38 194 38 113 q 52 317 38 274 q 100 380 67 361 q 196 399 133 399 q 356 392 240 399 l 356 450 q 345 586 356 544 q 307 641 335 628 q 214 654 279 654 q 138 649 181 654 q 67 639 96 644 l 67 703 q 233 719 142 719 q 355 697 314 719 q 413 619 396 675 q 429 454 429 563 l 429 0 l 365 0 l 360 100 l 353 100 q 299 12 339 35 q 204 -11 260 -11 m 218 56 q 297 69 267 56 q 339 129 326 83 q 356 286 356 192 l 356 340 l 211 340 q 147 330 168 340 q 118 290 126 319 q 110 197 110 260 q 119 109 110 139 q 150 67 128 79 q 218 56 172 56 m 250 860 q 169 872 194 860 q 135 908 143 883 q 128 983 128 932 q 135 1059 128 1033 q 169 1097 143 1085 q 250 1108 194 1108 q 331 1097 304 1108 q 365 1059 357 1085 q 372 983 372 1033 q 365 908 372 933 q 331 872 357 883 q 250 860 306 860 m 250 908 q 302 922 292 908 q 313 983 313 936 q 302 1044 313 1029 q 250 1058 292 1058 q 208 1052 221 1058 q 191 1031 194 1046 q 188 983 188 1015 q 191 935 188 950 q 208 915 194 921 q 250 908 221 908 m 222 1154 l 222 1161 l 268 1349 l 346 1349 l 346 1342 l 276 1154 l 222 1154 z "},"ã":{"ha":500,"x_min":38,"x_max":429,"o":"m 204 -11 q 108 6 143 -11 q 55 68 72 24 q 38 194 38 113 q 52 317 38 274 q 100 380 67 361 q 196 399 133 399 q 356 392 240 399 l 356 450 q 345 586 356 544 q 307 641 335 628 q 214 654 279 654 q 138 649 181 654 q 67 639 96 644 l 67 703 q 233 719 142 719 q 355 697 314 719 q 413 619 396 675 q 429 454 429 563 l 429 0 l 365 0 l 360 100 l 353 100 q 299 12 339 35 q 204 -11 260 -11 m 218 56 q 297 69 267 56 q 339 129 326 83 q 356 286 356 192 l 356 340 l 211 340 q 147 330 168 340 q 118 290 126 319 q 110 197 110 260 q 119 109 110 139 q 150 67 128 79 q 218 56 172 56 m 415 1032 q 401 922 415 953 q 343 890 388 890 q 300 899 321 890 q 244 924 279 907 q 201 947 219 939 q 164 954 182 954 q 142 938 147 954 q 138 875 138 922 l 86 875 q 100 986 86 956 q 158 1017 114 1017 q 206 1008 182 1017 q 261 981 229 999 q 304 960 288 967 q 336 953 321 953 q 358 970 353 953 q 364 1032 364 988 l 415 1032 z "},"æ":{"ha":806,"x_min":38,"x_max":749,"o":"m 749 335 l 429 335 q 438 154 429 210 q 478 76 447 99 q 578 54 508 54 q 658 59 613 54 q 733 71 704 64 l 733 7 q 657 -6 704 0 q 567 -11 610 -11 q 447 14 489 -11 q 385 101 406 39 q 319 11 364 33 q 211 -11 274 -11 q 110 6 147 -11 q 55 68 72 24 q 38 194 38 113 q 52 315 38 272 q 100 376 67 357 q 196 394 133 394 l 356 393 l 356 450 q 345 586 356 544 q 307 641 335 628 q 214 654 279 654 q 67 639 153 654 l 67 703 q 233 719 139 719 q 338 701 300 719 q 394 636 375 683 q 453 700 414 681 q 563 719 493 719 q 689 688 650 719 q 738 585 728 656 q 749 360 749 515 l 749 335 m 560 654 q 472 636 499 654 q 438 567 446 618 q 429 394 429 515 l 678 394 l 678 414 q 668 574 678 524 q 634 639 658 624 q 560 654 610 654 m 356 335 l 211 335 q 147 325 168 335 q 118 287 126 315 q 110 197 110 258 q 119 108 110 138 q 150 66 128 78 q 218 54 172 54 q 297 69 267 54 q 340 132 326 83 q 356 285 356 194 l 356 335 z "},"ǽ":{"ha":806,"x_min":38,"x_max":749,"o":"m 749 335 l 429 335 q 438 154 429 210 q 478 76 447 99 q 578 54 508 54 q 658 59 613 54 q 733 71 704 64 l 733 7 q 657 -6 704 0 q 567 -11 610 -11 q 447 14 489 -11 q 385 101 406 39 q 319 11 364 33 q 211 -11 274 -11 q 110 6 147 -11 q 55 68 72 24 q 38 194 38 113 q 52 315 38 272 q 100 376 67 357 q 196 394 133 394 l 356 393 l 356 450 q 345 586 356 544 q 307 641 335 628 q 214 654 279 654 q 67 639 153 654 l 67 703 q 233 719 139 719 q 338 701 300 719 q 394 636 375 683 q 453 700 414 681 q 563 719 493 719 q 689 688 650 719 q 738 585 728 656 q 749 360 749 515 l 749 335 m 560 654 q 472 636 499 654 q 438 567 446 618 q 429 394 429 515 l 678 394 l 678 414 q 668 574 678 524 q 634 639 658 624 q 560 654 610 654 m 356 335 l 211 335 q 147 325 168 335 q 118 287 126 315 q 110 197 110 258 q 119 108 110 138 q 150 66 128 78 q 218 54 172 54 q 297 69 267 54 q 340 132 326 83 q 356 285 356 194 l 356 335 m 372 838 l 372 844 l 418 1032 l 496 1032 l 496 1025 l 426 838 l 372 838 z "},"b":{"ha":535,"x_min":76,"x_max":478,"o":"m 299 -11 q 204 12 242 -11 q 151 100 167 35 l 144 100 l 139 0 l 76 0 l 76 1032 l 150 1032 l 150 619 l 157 619 q 205 696 171 672 q 299 719 239 719 q 413 689 375 719 q 464 583 450 658 q 478 354 478 507 q 463 124 478 200 q 412 19 449 49 q 299 -11 375 -11 m 276 56 q 361 76 336 56 q 395 156 386 96 q 404 354 404 215 q 395 553 404 493 q 361 633 386 613 q 276 653 336 653 q 201 631 228 653 q 164 558 174 608 q 150 354 150 489 q 152 238 150 283 q 163 153 154 192 q 200 78 172 101 q 276 56 228 56 z "},"c":{"ha":415,"x_min":57,"x_max":376,"o":"m 376 6 q 318 -6 353 -1 q 253 -11 283 -11 q 124 24 165 -11 q 69 133 82 60 q 57 353 57 207 q 73 579 57 503 q 129 688 89 656 q 249 719 169 719 q 372 704 317 719 l 372 640 q 264 654 321 654 q 178 631 206 654 q 140 546 150 607 q 131 356 131 485 q 140 160 131 221 q 178 76 150 99 q 267 54 206 54 q 325 58 294 54 q 376 69 356 63 l 376 6 z "},"ć":{"ha":415,"x_min":57,"x_max":376,"o":"m 376 6 q 318 -6 353 -1 q 253 -11 283 -11 q 124 24 165 -11 q 69 133 82 60 q 57 353 57 207 q 73 579 57 503 q 129 688 89 656 q 249 719 169 719 q 372 704 317 719 l 372 640 q 264 654 321 654 q 178 631 206 654 q 140 546 150 607 q 131 356 131 485 q 140 160 131 221 q 178 76 150 99 q 267 54 206 54 q 325 58 294 54 q 376 69 356 63 l 376 6 m 175 838 l 175 844 l 221 1032 l 299 1032 l 299 1025 l 229 838 l 175 838 z "},"č":{"ha":415,"x_min":57,"x_max":376,"o":"m 376 6 q 318 -6 353 -1 q 253 -11 283 -11 q 124 24 165 -11 q 69 133 82 60 q 57 353 57 207 q 73 579 57 503 q 129 688 89 656 q 249 719 169 719 q 372 704 317 719 l 372 640 q 264 654 321 654 q 178 631 206 654 q 140 546 150 607 q 131 356 131 485 q 140 160 131 221 q 178 76 150 99 q 267 54 206 54 q 325 58 294 54 q 376 69 356 63 l 376 6 m 164 844 l 71 1024 l 71 1032 l 125 1032 l 206 894 l 289 1032 l 342 1032 l 342 1024 l 249 844 l 164 844 z "},"ç":{"ha":415,"x_min":57,"x_max":376,"o":"m 267 54 q 325 58 294 54 q 376 69 356 63 l 376 6 q 318 -6 353 -1 q 253 -11 283 -11 l 229 -11 l 174 -264 l 100 -264 l 100 -257 l 178 -3 q 99 52 125 11 q 65 162 74 93 q 57 353 57 231 q 73 579 57 503 q 129 688 89 656 q 249 719 169 719 q 372 704 317 719 l 372 640 q 264 654 321 654 q 178 631 206 654 q 140 546 150 607 q 131 356 131 485 q 140 160 131 221 q 178 76 150 99 q 267 54 206 54 z "},"ĉ":{"ha":415,"x_min":57,"x_max":376,"o":"m 376 6 q 318 -6 353 -1 q 253 -11 283 -11 q 124 24 165 -11 q 69 133 82 60 q 57 353 57 207 q 73 579 57 503 q 129 688 89 656 q 249 719 169 719 q 372 704 317 719 l 372 640 q 264 654 321 654 q 178 631 206 654 q 140 546 150 607 q 131 356 131 485 q 140 160 131 221 q 178 76 150 99 q 267 54 206 54 q 325 58 294 54 q 376 69 356 63 l 376 6 m 71 844 l 71 851 l 164 1032 l 249 1032 l 342 851 l 342 844 l 289 844 l 206 982 l 125 844 l 71 844 z "},"ċ":{"ha":415,"x_min":57,"x_max":376,"o":"m 376 6 q 318 -6 353 -1 q 253 -11 283 -11 q 124 24 165 -11 q 69 133 82 60 q 57 353 57 207 q 73 579 57 503 q 129 688 89 656 q 249 719 169 719 q 372 704 317 719 l 372 640 q 264 654 321 654 q 178 631 206 654 q 140 546 150 607 q 131 356 131 485 q 140 160 131 221 q 178 76 150 99 q 267 54 206 54 q 325 58 294 54 q 376 69 356 63 l 376 6 m 168 918 l 168 1014 l 243 1014 l 243 918 l 168 918 z "},"d":{"ha":535,"x_min":57,"x_max":460,"o":"m 238 -11 q 124 19 161 -11 q 72 125 86 49 q 57 354 57 201 q 71 583 57 507 q 123 689 85 658 q 238 719 161 719 q 331 696 297 719 q 379 619 365 672 l 386 619 l 386 1032 l 460 1032 l 460 0 l 396 0 l 390 100 l 383 100 q 331 12 369 35 q 238 -11 293 -11 m 258 56 q 336 78 308 56 q 374 151 364 100 q 384 242 382 194 q 386 371 386 290 q 375 546 386 485 q 335 628 363 604 q 254 653 307 653 q 173 633 197 653 q 140 553 149 613 q 131 354 131 493 q 140 156 131 215 q 174 76 149 96 q 258 56 200 56 z "},"ð":{"ha":522,"x_min":57,"x_max":465,"o":"m 261 -11 q 122 19 164 -11 q 69 120 81 49 q 57 353 57 192 q 68 586 57 514 q 119 689 79 658 q 250 719 160 719 q 364 676 325 719 l 368 679 q 304 889 342 804 l 178 869 l 178 925 l 279 940 q 225 1026 261 975 l 225 1032 l 304 1032 q 354 951 340 982 l 450 967 l 450 911 l 379 900 q 429 742 410 829 q 456 574 449 656 q 465 381 465 481 q 455 129 465 204 q 402 22 444 54 q 261 -11 360 -11 m 261 54 q 353 78 326 54 q 385 157 379 101 q 392 353 392 213 q 385 537 392 479 q 351 624 379 594 q 261 654 324 654 q 169 633 194 654 q 137 556 143 611 q 131 353 131 501 q 137 156 131 211 q 169 78 143 101 q 261 54 196 54 z "},"ď":{"ha":561,"x_min":57,"x_max":594,"o":"m 238 -11 q 124 19 161 -11 q 72 125 86 49 q 57 354 57 201 q 71 583 57 507 q 123 689 85 658 q 238 719 161 719 q 331 696 297 719 q 379 619 365 672 l 386 619 l 386 1032 l 460 1032 l 460 0 l 396 0 l 390 100 l 383 100 q 331 12 369 35 q 238 -11 293 -11 m 258 56 q 336 78 308 56 q 374 151 364 100 q 384 242 382 194 q 386 371 386 290 q 375 546 386 485 q 335 628 363 604 q 254 653 307 653 q 173 633 197 653 q 140 553 149 613 q 131 354 131 493 q 140 156 131 215 q 174 76 149 96 q 258 56 200 56 m 500 622 l 518 843 l 518 956 l 594 956 l 594 843 l 551 622 l 500 622 z "},"đ":{"ha":535,"x_min":57,"x_max":529,"o":"m 529 890 l 460 890 l 460 0 l 396 0 l 390 100 l 383 100 q 331 12 369 35 q 238 -11 293 -11 q 124 19 161 -11 q 72 125 86 49 q 57 354 57 201 q 71 583 57 507 q 123 689 85 658 q 238 719 161 719 q 331 696 297 719 q 379 619 365 672 l 386 619 l 386 890 l 233 890 l 233 956 l 386 956 l 386 1032 l 460 1032 l 460 956 l 529 956 l 529 890 m 374 151 q 384 242 382 194 q 386 371 386 290 q 375 546 386 485 q 335 628 363 604 q 254 653 307 653 q 173 633 197 653 q 140 553 149 613 q 131 354 131 493 q 140 156 131 215 q 174 76 149 96 q 258 56 200 56 q 336 78 308 56 q 374 151 364 100 z "},"ḍ":{"ha":535,"x_min":57,"x_max":460,"o":"m 238 -11 q 124 19 161 -11 q 72 125 86 49 q 57 354 57 201 q 71 583 57 507 q 123 689 85 658 q 238 719 161 719 q 331 696 297 719 q 379 619 365 672 l 386 619 l 386 1032 l 460 1032 l 460 0 l 396 0 l 390 100 l 383 100 q 331 12 369 35 q 238 -11 293 -11 m 258 56 q 336 78 308 56 q 374 151 364 100 q 384 242 382 194 q 386 371 386 290 q 375 546 386 485 q 335 628 363 604 q 254 653 307 653 q 173 633 197 653 q 140 553 149 613 q 131 354 131 493 q 140 156 131 215 q 174 76 149 96 q 258 56 200 56 m 225 -194 l 225 -86 l 313 -86 l 313 -194 l 225 -194 z "},"ǳ":{"ha":958,"x_min":57,"x_max":922,"o":"m 238 -11 q 124 19 161 -11 q 72 125 86 49 q 57 354 57 201 q 71 583 57 507 q 123 689 85 658 q 238 719 161 719 q 331 696 297 719 q 379 619 365 672 l 386 619 l 386 1032 l 460 1032 l 460 0 l 396 0 l 390 100 l 383 100 q 331 12 369 35 q 238 -11 293 -11 m 258 56 q 336 78 308 56 q 374 151 364 100 q 384 242 382 194 q 386 371 386 290 q 375 546 386 485 q 335 628 363 604 q 254 653 307 653 q 173 633 197 653 q 140 553 149 613 q 131 354 131 493 q 140 156 131 215 q 174 76 149 96 q 258 56 200 56 m 571 0 l 571 58 l 839 643 l 579 643 l 579 708 l 921 708 l 921 650 l 654 65 l 922 65 l 922 0 l 571 0 z "},"ǆ":{"ha":958,"x_min":57,"x_max":922,"o":"m 238 -11 q 124 19 161 -11 q 72 125 86 49 q 57 354 57 201 q 71 583 57 507 q 123 689 85 658 q 238 719 161 719 q 331 696 297 719 q 379 619 365 672 l 386 619 l 386 1032 l 460 1032 l 460 0 l 396 0 l 390 100 l 383 100 q 331 12 369 35 q 238 -11 293 -11 m 258 56 q 336 78 308 56 q 374 151 364 100 q 384 242 382 194 q 386 371 386 290 q 375 546 386 485 q 335 628 363 604 q 254 653 307 653 q 173 633 197 653 q 140 553 149 613 q 131 354 131 493 q 140 156 131 215 q 174 76 149 96 q 258 56 200 56 m 571 0 l 571 58 l 839 643 l 579 643 l 579 708 l 921 708 l 921 650 l 654 65 l 922 65 l 922 0 l 571 0 m 696 844 l 603 1024 l 603 1032 l 657 1032 l 738 894 l 821 1032 l 874 1032 l 874 1024 l 781 844 l 696 844 z "},"e":{"ha":507,"x_min":57,"x_max":450,"o":"m 450 331 l 131 331 q 140 152 131 207 q 179 76 149 97 q 279 54 210 54 q 359 59 314 54 q 435 71 404 64 l 435 7 q 360 -6 407 0 q 268 -11 313 -11 q 130 21 174 -11 q 72 126 86 53 q 57 353 57 200 q 68 580 57 508 q 123 685 79 651 q 264 719 167 719 q 391 688 353 719 q 440 585 429 656 q 450 356 450 514 l 450 331 m 263 654 q 174 636 201 654 q 139 565 147 618 q 131 389 131 513 l 379 389 l 379 414 q 369 574 379 524 q 336 639 360 624 q 263 654 313 654 z "},"é":{"ha":507,"x_min":57,"x_max":450,"o":"m 450 331 l 131 331 q 140 152 131 207 q 179 76 149 97 q 279 54 210 54 q 359 59 314 54 q 435 71 404 64 l 435 7 q 360 -6 407 0 q 268 -11 313 -11 q 130 21 174 -11 q 72 126 86 53 q 57 353 57 200 q 68 580 57 508 q 123 685 79 651 q 264 719 167 719 q 391 688 353 719 q 440 585 429 656 q 450 356 450 514 l 450 331 m 263 654 q 174 636 201 654 q 139 565 147 618 q 131 389 131 513 l 379 389 l 379 414 q 369 574 379 524 q 336 639 360 624 q 263 654 313 654 m 238 838 l 238 844 l 283 1032 l 361 1032 l 361 1025 l 292 838 l 238 838 z "},"ĕ":{"ha":507,"x_min":57,"x_max":450,"o":"m 450 331 l 131 331 q 140 152 131 207 q 179 76 149 97 q 279 54 210 54 q 359 59 314 54 q 435 71 404 64 l 435 7 q 360 -6 407 0 q 268 -11 313 -11 q 130 21 174 -11 q 72 126 86 53 q 57 353 57 200 q 68 580 57 508 q 123 685 79 651 q 264 719 167 719 q 391 688 353 719 q 440 585 429 656 q 450 356 450 514 l 450 331 m 263 654 q 174 636 201 654 q 139 565 147 618 q 131 389 131 513 l 379 389 l 379 414 q 369 574 379 524 q 336 639 360 624 q 263 654 313 654 m 389 1032 q 381 925 389 964 q 344 863 374 886 q 253 839 315 839 q 162 863 190 839 q 126 924 133 886 q 118 1032 118 963 l 176 1032 q 181 949 176 976 q 201 906 185 921 q 253 890 217 890 q 306 906 289 890 q 326 949 322 921 q 331 1032 331 976 l 389 1032 z "},"ě":{"ha":507,"x_min":57,"x_max":450,"o":"m 450 331 l 131 331 q 140 152 131 207 q 179 76 149 97 q 279 54 210 54 q 359 59 314 54 q 435 71 404 64 l 435 7 q 360 -6 407 0 q 268 -11 313 -11 q 130 21 174 -11 q 72 126 86 53 q 57 353 57 200 q 68 580 57 508 q 123 685 79 651 q 264 719 167 719 q 391 688 353 719 q 440 585 429 656 q 450 356 450 514 l 450 331 m 263 654 q 174 636 201 654 q 139 565 147 618 q 131 389 131 513 l 379 389 l 379 414 q 369 574 379 524 q 336 639 360 624 q 263 654 313 654 m 211 844 l 118 1024 l 118 1032 l 172 1032 l 253 894 l 336 1032 l 389 1032 l 389 1024 l 296 844 l 211 844 z "},"ê":{"ha":507,"x_min":57,"x_max":450,"o":"m 450 331 l 131 331 q 140 152 131 207 q 179 76 149 97 q 279 54 210 54 q 359 59 314 54 q 435 71 404 64 l 435 7 q 360 -6 407 0 q 268 -11 313 -11 q 130 21 174 -11 q 72 126 86 53 q 57 353 57 200 q 68 580 57 508 q 123 685 79 651 q 264 719 167 719 q 391 688 353 719 q 440 585 429 656 q 450 356 450 514 l 450 331 m 263 654 q 174 636 201 654 q 139 565 147 618 q 131 389 131 513 l 379 389 l 379 414 q 369 574 379 524 q 336 639 360 624 q 263 654 313 654 m 124 844 l 124 851 l 217 1032 l 301 1032 l 394 851 l 394 844 l 342 844 l 258 982 l 178 844 l 124 844 z "},"ế":{"ha":507,"x_min":57,"x_max":451,"o":"m 450 331 l 131 331 q 140 152 131 207 q 179 76 149 97 q 279 54 210 54 q 359 59 314 54 q 435 71 404 64 l 435 7 q 360 -6 407 0 q 268 -11 313 -11 q 130 21 174 -11 q 72 126 86 53 q 57 353 57 200 q 68 580 57 508 q 123 685 79 651 q 264 719 167 719 q 391 688 353 719 q 440 585 429 656 q 450 356 450 514 l 450 331 m 263 654 q 174 636 201 654 q 139 565 147 618 q 131 389 131 513 l 379 389 l 379 414 q 369 574 379 524 q 336 639 360 624 q 263 654 313 654 m 118 844 l 118 851 l 211 1032 l 296 1032 l 389 851 l 389 844 l 336 844 l 253 982 l 172 844 l 118 844 m 328 1038 l 328 1044 l 374 1232 l 451 1232 l 451 1225 l 382 1038 l 328 1038 z "},"ệ":{"ha":507,"x_min":57,"x_max":450,"o":"m 450 331 l 131 331 q 140 152 131 207 q 179 76 149 97 q 279 54 210 54 q 359 59 314 54 q 435 71 404 64 l 435 7 q 360 -6 407 0 q 268 -11 313 -11 q 130 21 174 -11 q 72 126 86 53 q 57 353 57 200 q 68 580 57 508 q 123 685 79 651 q 264 719 167 719 q 391 688 353 719 q 440 585 429 656 q 450 356 450 514 l 450 331 m 263 654 q 174 636 201 654 q 139 565 147 618 q 131 389 131 513 l 379 389 l 379 414 q 369 574 379 524 q 336 639 360 624 q 263 654 313 654 m 211 -194 l 211 -86 l 299 -86 l 299 -194 l 211 -194 m 118 844 l 118 851 l 211 1032 l 296 1032 l 389 851 l 389 844 l 336 844 l 253 982 l 172 844 l 118 844 z "},"ề":{"ha":507,"x_min":57,"x_max":450,"o":"m 450 331 l 131 331 q 140 152 131 207 q 179 76 149 97 q 279 54 210 54 q 359 59 314 54 q 435 71 404 64 l 435 7 q 360 -6 407 0 q 268 -11 313 -11 q 130 21 174 -11 q 72 126 86 53 q 57 353 57 200 q 68 580 57 508 q 123 685 79 651 q 264 719 167 719 q 391 688 353 719 q 440 585 429 656 q 450 356 450 514 l 450 331 m 263 654 q 174 636 201 654 q 139 565 147 618 q 131 389 131 513 l 379 389 l 379 414 q 369 574 379 524 q 336 639 360 624 q 263 654 313 654 m 115 844 l 115 851 l 208 1032 l 293 1032 l 386 851 l 386 844 l 333 844 l 250 982 l 169 844 l 115 844 m 328 1038 l 258 1225 l 258 1232 l 336 1232 l 382 1044 l 382 1038 l 328 1038 z "},"ể":{"ha":507,"x_min":57,"x_max":489,"o":"m 450 331 l 131 331 q 140 152 131 207 q 179 76 149 97 q 279 54 210 54 q 359 59 314 54 q 435 71 404 64 l 435 7 q 360 -6 407 0 q 268 -11 313 -11 q 130 21 174 -11 q 72 126 86 53 q 57 353 57 200 q 68 580 57 508 q 123 685 79 651 q 264 719 167 719 q 391 688 353 719 q 440 585 429 656 q 450 356 450 514 l 450 331 m 263 654 q 174 636 201 654 q 139 565 147 618 q 131 389 131 513 l 379 389 l 379 414 q 369 574 379 524 q 336 639 360 624 q 263 654 313 654 m 118 844 l 118 851 l 211 1032 l 296 1032 l 389 851 l 389 844 l 336 844 l 253 982 l 172 844 l 118 844 m 311 1053 q 322 1092 311 1081 q 358 1113 332 1103 l 374 1115 q 418 1137 406 1126 q 431 1174 431 1147 q 426 1203 431 1194 q 406 1217 422 1213 q 351 1221 389 1221 l 297 1219 q 244 1217 264 1217 l 244 1264 q 361 1275 328 1275 q 462 1255 435 1275 q 489 1186 489 1235 q 480 1124 489 1143 q 433 1090 471 1104 l 421 1086 q 382 1070 393 1075 q 368 1058 371 1065 q 365 1038 365 1051 l 311 1038 l 311 1053 z "},"ễ":{"ha":507,"x_min":57,"x_max":450,"o":"m 450 331 l 131 331 q 140 152 131 207 q 179 76 149 97 q 279 54 210 54 q 359 59 314 54 q 435 71 404 64 l 435 7 q 360 -6 407 0 q 268 -11 313 -11 q 130 21 174 -11 q 72 126 86 53 q 57 353 57 200 q 68 580 57 508 q 123 685 79 651 q 264 719 167 719 q 391 688 353 719 q 440 585 429 656 q 450 356 450 514 l 450 331 m 263 654 q 174 636 201 654 q 139 565 147 618 q 131 389 131 513 l 379 389 l 379 414 q 369 574 379 524 q 336 639 360 624 q 263 654 313 654 m 115 844 l 115 851 l 208 1032 l 293 1032 l 386 851 l 386 844 l 333 844 l 250 982 l 169 844 l 115 844 m 418 1272 q 404 1162 418 1193 q 346 1131 390 1131 q 303 1139 324 1131 q 247 1164 282 1147 q 203 1187 222 1179 q 167 1194 185 1194 q 145 1178 150 1194 q 140 1115 140 1163 l 89 1115 q 103 1226 89 1196 q 161 1257 117 1257 q 208 1248 185 1257 q 264 1221 232 1239 q 307 1200 290 1207 q 339 1193 324 1193 q 361 1210 356 1193 q 367 1272 367 1228 l 418 1272 z "},"ȅ":{"ha":507,"x_min":57,"x_max":450,"o":"m 450 331 l 131 331 q 140 152 131 207 q 179 76 149 97 q 279 54 210 54 q 359 59 314 54 q 435 71 404 64 l 435 7 q 360 -6 407 0 q 268 -11 313 -11 q 130 21 174 -11 q 72 126 86 53 q 57 353 57 200 q 68 580 57 508 q 123 685 79 651 q 264 719 167 719 q 391 688 353 719 q 440 585 429 656 q 450 356 450 514 l 450 331 m 263 654 q 174 636 201 654 q 139 565 147 618 q 131 389 131 513 l 379 389 l 379 414 q 369 574 379 524 q 336 639 360 624 q 263 654 313 654 m 206 849 l 157 849 l 92 1007 l 92 1014 l 164 1014 l 206 856 l 206 849 m 351 849 l 303 849 l 238 1007 l 238 1014 l 310 1014 l 351 856 l 351 849 z "},"ë":{"ha":507,"x_min":57,"x_max":450,"o":"m 450 331 l 131 331 q 140 152 131 207 q 179 76 149 97 q 279 54 210 54 q 359 59 314 54 q 435 71 404 64 l 435 7 q 360 -6 407 0 q 268 -11 313 -11 q 130 21 174 -11 q 72 126 86 53 q 57 353 57 200 q 68 580 57 508 q 123 685 79 651 q 264 719 167 719 q 391 688 353 719 q 440 585 429 656 q 450 356 450 514 l 450 331 m 263 654 q 174 636 201 654 q 139 565 147 618 q 131 389 131 513 l 379 389 l 379 414 q 369 574 379 524 q 336 639 360 624 q 263 654 313 654 m 107 918 l 107 1014 l 182 1014 l 182 918 l 107 918 m 340 918 l 340 1014 l 417 1014 l 417 918 l 340 918 z "},"ė":{"ha":507,"x_min":57,"x_max":450,"o":"m 450 331 l 131 331 q 140 152 131 207 q 179 76 149 97 q 279 54 210 54 q 359 59 314 54 q 435 71 404 64 l 435 7 q 360 -6 407 0 q 268 -11 313 -11 q 130 21 174 -11 q 72 126 86 53 q 57 353 57 200 q 68 580 57 508 q 123 685 79 651 q 264 719 167 719 q 391 688 353 719 q 440 585 429 656 q 450 356 450 514 l 450 331 m 263 654 q 174 636 201 654 q 139 565 147 618 q 131 389 131 513 l 379 389 l 379 414 q 369 574 379 524 q 336 639 360 624 q 263 654 313 654 m 215 918 l 215 1014 l 290 1014 l 290 918 l 215 918 z "},"ẹ":{"ha":507,"x_min":57,"x_max":450,"o":"m 450 331 l 131 331 q 140 152 131 207 q 179 76 149 97 q 279 54 210 54 q 359 59 314 54 q 435 71 404 64 l 435 7 q 360 -6 407 0 q 268 -11 313 -11 q 130 21 174 -11 q 72 126 86 53 q 57 353 57 200 q 68 580 57 508 q 123 685 79 651 q 264 719 167 719 q 391 688 353 719 q 440 585 429 656 q 450 356 450 514 l 450 331 m 263 654 q 174 636 201 654 q 139 565 147 618 q 131 389 131 513 l 379 389 l 379 414 q 369 574 379 524 q 336 639 360 624 q 263 654 313 654 m 211 -194 l 211 -86 l 299 -86 l 299 -194 l 211 -194 z "},"è":{"ha":507,"x_min":57,"x_max":450,"o":"m 450 331 l 131 331 q 140 152 131 207 q 179 76 149 97 q 279 54 210 54 q 359 59 314 54 q 435 71 404 64 l 435 7 q 360 -6 407 0 q 268 -11 313 -11 q 130 21 174 -11 q 72 126 86 53 q 57 353 57 200 q 68 580 57 508 q 123 685 79 651 q 264 719 167 719 q 391 688 353 719 q 440 585 429 656 q 450 356 450 514 l 450 331 m 263 654 q 174 636 201 654 q 139 565 147 618 q 131 389 131 513 l 379 389 l 379 414 q 369 574 379 524 q 336 639 360 624 q 263 654 313 654 m 239 838 l 169 1025 l 169 1032 l 247 1032 l 293 844 l 293 838 l 239 838 z "},"ẻ":{"ha":507,"x_min":57,"x_max":450,"o":"m 450 331 l 131 331 q 140 152 131 207 q 179 76 149 97 q 279 54 210 54 q 359 59 314 54 q 435 71 404 64 l 435 7 q 360 -6 407 0 q 268 -11 313 -11 q 130 21 174 -11 q 72 126 86 53 q 57 353 57 200 q 68 580 57 508 q 123 685 79 651 q 264 719 167 719 q 391 688 353 719 q 440 585 429 656 q 450 356 450 514 l 450 331 m 263 654 q 174 636 201 654 q 139 565 147 618 q 131 389 131 513 l 379 389 l 379 414 q 369 574 379 524 q 336 639 360 624 q 263 654 313 654 m 197 865 q 208 904 197 893 q 244 925 218 915 l 260 928 q 304 949 292 939 q 317 986 317 960 q 313 1016 317 1007 q 292 1029 308 1025 q 238 1033 275 1033 l 183 1032 q 131 1029 150 1029 l 131 1076 q 247 1088 214 1088 q 348 1067 321 1088 q 375 999 375 1047 q 366 936 375 956 q 319 903 357 917 l 307 899 q 268 883 279 888 q 254 871 257 878 q 251 850 251 864 l 197 850 l 197 865 z "},"ȇ":{"ha":507,"x_min":57,"x_max":450,"o":"m 450 331 l 131 331 q 140 152 131 207 q 179 76 149 97 q 279 54 210 54 q 359 59 314 54 q 435 71 404 64 l 435 7 q 360 -6 407 0 q 268 -11 313 -11 q 130 21 174 -11 q 72 126 86 53 q 57 353 57 200 q 68 580 57 508 q 123 685 79 651 q 264 719 167 719 q 391 688 353 719 q 440 585 429 656 q 450 356 450 514 l 450 331 m 263 654 q 174 636 201 654 q 139 565 147 618 q 131 389 131 513 l 379 389 l 379 414 q 369 574 379 524 q 336 639 360 624 q 263 654 313 654 m 118 847 q 126 954 118 915 q 163 1017 133 993 q 254 1040 192 1040 q 345 1017 317 1040 q 381 955 374 993 q 389 847 389 917 l 331 847 q 326 931 331 903 q 306 974 322 958 q 254 989 290 989 q 201 974 218 989 q 181 931 185 958 q 176 847 176 903 l 118 847 z "},"ē":{"ha":507,"x_min":57,"x_max":450,"o":"m 450 331 l 131 331 q 140 152 131 207 q 179 76 149 97 q 279 54 210 54 q 359 59 314 54 q 435 71 404 64 l 435 7 q 360 -6 407 0 q 268 -11 313 -11 q 130 21 174 -11 q 72 126 86 53 q 57 353 57 200 q 68 580 57 508 q 123 685 79 651 q 264 719 167 719 q 391 688 353 719 q 440 585 429 656 q 450 356 450 514 l 450 331 m 263 654 q 174 636 201 654 q 139 565 147 618 q 131 389 131 513 l 379 389 l 379 414 q 369 574 379 524 q 336 639 360 624 q 263 654 313 654 m 138 960 l 138 1032 l 369 1032 l 369 960 l 138 960 z "},"ę":{"ha":507,"x_min":57,"x_max":450,"o":"m 450 331 l 131 331 q 140 152 131 207 q 179 76 149 97 q 279 54 210 54 q 359 59 314 54 q 435 71 404 64 l 435 7 q 372 -68 401 -19 q 342 -157 342 -117 q 356 -200 342 -183 q 403 -217 371 -217 l 425 -215 l 425 -269 q 388 -272 413 -272 q 304 -244 331 -272 q 278 -171 278 -215 q 299 -86 278 -129 q 357 -6 321 -43 q 268 -11 318 -11 q 130 21 174 -11 q 72 126 86 53 q 57 353 57 200 q 68 580 57 508 q 123 685 79 651 q 264 719 167 719 q 391 688 353 719 q 440 585 429 656 q 450 356 450 514 l 450 331 m 263 654 q 174 636 201 654 q 139 565 147 618 q 131 389 131 513 l 379 389 l 379 414 q 369 574 379 524 q 336 639 360 624 q 263 654 313 654 z "},"ẽ":{"ha":507,"x_min":57,"x_max":450,"o":"m 450 331 l 131 331 q 140 152 131 207 q 179 76 149 97 q 279 54 210 54 q 359 59 314 54 q 435 71 404 64 l 435 7 q 360 -6 407 0 q 268 -11 313 -11 q 130 21 174 -11 q 72 126 86 53 q 57 353 57 200 q 68 580 57 508 q 123 685 79 651 q 264 719 167 719 q 391 688 353 719 q 440 585 429 656 q 450 356 450 514 l 450 331 m 263 654 q 174 636 201 654 q 139 565 147 618 q 131 389 131 513 l 379 389 l 379 414 q 369 574 379 524 q 336 639 360 624 q 263 654 313 654 m 418 1032 q 404 922 418 953 q 346 890 390 890 q 303 899 324 890 q 247 924 282 907 q 203 947 222 939 q 167 954 185 954 q 145 938 150 954 q 140 875 140 922 l 89 875 q 103 986 89 956 q 161 1017 117 1017 q 208 1008 185 1017 q 264 981 232 999 q 307 960 290 967 q 339 953 324 953 q 361 970 356 953 q 367 1032 367 988 l 418 1032 z "},"ə":{"ha":507,"x_min":57,"x_max":450,"o":"m 239 719 q 377 688 333 719 q 435 582 421 656 q 450 356 450 508 q 439 128 450 200 q 384 23 428 57 q 243 -11 340 -11 q 116 21 154 -11 q 67 124 78 53 q 57 353 57 194 l 57 378 l 376 378 q 367 556 376 501 q 328 633 358 611 q 228 654 297 654 q 148 649 193 654 q 72 638 103 644 l 72 701 q 147 714 100 708 q 239 719 194 719 m 244 54 q 333 72 306 54 q 368 143 360 90 q 376 319 376 196 l 128 319 l 128 294 q 138 135 128 185 q 171 69 147 85 q 244 54 194 54 z "},"f":{"ha":319,"x_min":25,"x_max":293,"o":"m 111 643 l 25 643 l 25 708 l 111 708 l 111 843 q 129 967 111 928 q 184 1019 147 1007 q 293 1032 221 1032 l 293 974 q 225 965 247 974 q 194 932 203 956 q 185 858 185 908 l 185 708 l 293 708 l 293 643 l 185 643 l 185 0 l 111 0 l 111 643 z "},"g":{"ha":536,"x_min":57,"x_max":460,"o":"m 232 -275 q 72 -269 175 -275 l 72 -206 q 221 -210 185 -210 q 330 -186 296 -210 q 375 -105 364 -162 q 386 75 386 -47 l 386 92 l 379 92 q 331 15 365 39 q 238 -8 297 -8 q 123 22 161 -8 q 71 128 85 53 q 57 356 57 204 q 72 584 57 508 q 124 690 86 660 q 238 719 161 719 q 331 697 293 719 q 383 608 369 674 l 390 608 l 396 708 l 460 708 l 460 108 q 444 -124 460 -46 q 381 -239 429 -203 q 232 -275 332 -275 m 258 60 q 335 83 307 60 q 374 158 363 106 q 386 356 386 225 q 376 543 386 492 q 336 628 364 604 q 258 653 308 653 q 174 633 200 653 q 140 553 149 613 q 131 356 131 493 q 140 158 131 218 q 174 79 149 99 q 258 60 200 60 z "},"ǵ":{"ha":536,"x_min":57,"x_max":460,"o":"m 232 -275 q 72 -269 175 -275 l 72 -206 q 221 -210 185 -210 q 330 -186 296 -210 q 375 -105 364 -162 q 386 75 386 -47 l 386 92 l 379 92 q 331 15 365 39 q 238 -8 297 -8 q 123 22 161 -8 q 71 128 85 53 q 57 356 57 204 q 72 584 57 508 q 124 690 86 660 q 238 719 161 719 q 331 697 293 719 q 383 608 369 674 l 390 608 l 396 708 l 460 708 l 460 108 q 444 -124 460 -46 q 381 -239 429 -203 q 232 -275 332 -275 m 258 60 q 335 83 307 60 q 374 158 363 106 q 386 356 386 225 q 376 543 386 492 q 336 628 364 604 q 258 653 308 653 q 174 633 200 653 q 140 553 149 613 q 131 356 131 493 q 140 158 131 218 q 174 79 149 99 q 258 60 200 60 m 236 838 l 236 844 l 282 1032 l 360 1032 l 360 1025 l 290 838 l 236 838 z "},"ğ":{"ha":536,"x_min":57,"x_max":460,"o":"m 232 -275 q 72 -269 175 -275 l 72 -206 q 221 -210 185 -210 q 330 -186 296 -210 q 375 -105 364 -162 q 386 75 386 -47 l 386 92 l 379 92 q 331 15 365 39 q 238 -8 297 -8 q 123 22 161 -8 q 71 128 85 53 q 57 356 57 204 q 72 584 57 508 q 124 690 86 660 q 238 719 161 719 q 331 697 293 719 q 383 608 369 674 l 390 608 l 396 708 l 460 708 l 460 108 q 444 -124 460 -46 q 381 -239 429 -203 q 232 -275 332 -275 m 258 60 q 335 83 307 60 q 374 158 363 106 q 386 356 386 225 q 376 543 386 492 q 336 628 364 604 q 258 653 308 653 q 174 633 200 653 q 140 553 149 613 q 131 356 131 493 q 140 158 131 218 q 174 79 149 99 q 258 60 200 60 m 403 1032 q 395 925 403 964 q 358 863 388 886 q 267 839 329 839 q 176 863 204 839 q 140 924 147 886 q 132 1032 132 963 l 190 1032 q 194 949 190 976 q 215 906 199 921 q 267 890 231 890 q 319 906 303 890 q 340 949 336 921 q 344 1032 344 976 l 403 1032 z "},"ǧ":{"ha":536,"x_min":57,"x_max":460,"o":"m 232 -275 q 72 -269 175 -275 l 72 -206 q 221 -210 185 -210 q 330 -186 296 -210 q 375 -105 364 -162 q 386 75 386 -47 l 386 92 l 379 92 q 331 15 365 39 q 238 -8 297 -8 q 123 22 161 -8 q 71 128 85 53 q 57 356 57 204 q 72 584 57 508 q 124 690 86 660 q 238 719 161 719 q 331 697 293 719 q 383 608 369 674 l 390 608 l 396 708 l 460 708 l 460 108 q 444 -124 460 -46 q 381 -239 429 -203 q 232 -275 332 -275 m 258 60 q 335 83 307 60 q 374 158 363 106 q 386 356 386 225 q 376 543 386 492 q 336 628 364 604 q 258 653 308 653 q 174 633 200 653 q 140 553 149 613 q 131 356 131 493 q 140 158 131 218 q 174 79 149 99 q 258 60 200 60 m 225 844 l 132 1024 l 132 1032 l 186 1032 l 267 894 l 350 1032 l 403 1032 l 403 1024 l 310 844 l 225 844 z "},"ĝ":{"ha":536,"x_min":57,"x_max":460,"o":"m 232 -275 q 72 -269 175 -275 l 72 -206 q 221 -210 185 -210 q 330 -186 296 -210 q 375 -105 364 -162 q 386 75 386 -47 l 386 92 l 379 92 q 331 15 365 39 q 238 -8 297 -8 q 123 22 161 -8 q 71 128 85 53 q 57 356 57 204 q 72 584 57 508 q 124 690 86 660 q 238 719 161 719 q 331 697 293 719 q 383 608 369 674 l 390 608 l 396 708 l 460 708 l 460 108 q 444 -124 460 -46 q 381 -239 429 -203 q 232 -275 332 -275 m 258 60 q 335 83 307 60 q 374 158 363 106 q 386 356 386 225 q 376 543 386 492 q 336 628 364 604 q 258 653 308 653 q 174 633 200 653 q 140 553 149 613 q 131 356 131 493 q 140 158 131 218 q 174 79 149 99 q 258 60 200 60 m 132 844 l 132 851 l 225 1032 l 310 1032 l 403 851 l 403 844 l 350 844 l 267 982 l 186 844 l 132 844 z "},"ģ":{"ha":536,"x_min":57,"x_max":460,"o":"m 232 -275 q 72 -269 175 -275 l 72 -206 q 221 -210 185 -210 q 330 -186 296 -210 q 375 -105 364 -162 q 386 75 386 -47 l 386 92 l 379 92 q 331 15 365 39 q 238 -8 297 -8 q 123 22 161 -8 q 71 128 85 53 q 57 356 57 204 q 72 584 57 508 q 124 690 86 660 q 238 719 161 719 q 331 697 293 719 q 383 608 369 674 l 390 608 l 396 708 l 460 708 l 460 108 q 444 -124 460 -46 q 381 -239 429 -203 q 232 -275 332 -275 m 258 60 q 335 83 307 60 q 374 158 363 106 q 386 356 386 225 q 376 543 386 492 q 336 628 364 604 q 258 653 308 653 q 174 633 200 653 q 140 553 149 613 q 131 356 131 493 q 140 158 131 218 q 174 79 149 99 q 258 60 200 60 m 338 1044 q 295 1037 308 1044 q 278 1013 282 1029 q 275 961 275 997 l 275 938 l 311 938 l 311 839 l 224 839 l 224 939 q 233 1028 224 999 q 265 1071 242 1058 q 338 1083 289 1083 l 338 1044 z "},"ġ":{"ha":536,"x_min":57,"x_max":460,"o":"m 232 -275 q 72 -269 175 -275 l 72 -206 q 221 -210 185 -210 q 330 -186 296 -210 q 375 -105 364 -162 q 386 75 386 -47 l 386 92 l 379 92 q 331 15 365 39 q 238 -8 297 -8 q 123 22 161 -8 q 71 128 85 53 q 57 356 57 204 q 72 584 57 508 q 124 690 86 660 q 238 719 161 719 q 331 697 293 719 q 383 608 369 674 l 390 608 l 396 708 l 460 708 l 460 108 q 444 -124 460 -46 q 381 -239 429 -203 q 232 -275 332 -275 m 258 60 q 335 83 307 60 q 374 158 363 106 q 386 356 386 225 q 376 543 386 492 q 336 628 364 604 q 258 653 308 653 q 174 633 200 653 q 140 553 149 613 q 131 356 131 493 q 140 158 131 218 q 174 79 149 99 q 258 60 200 60 m 229 918 l 229 1014 l 304 1014 l 304 918 l 229 918 z "},"h":{"ha":536,"x_min":76,"x_max":465,"o":"m 392 428 q 383 576 392 529 q 351 638 375 622 q 276 653 328 653 q 190 619 217 653 q 156 529 163 585 q 150 364 150 474 l 150 0 l 76 0 l 76 1032 l 150 1032 l 150 625 l 157 625 q 304 719 186 719 q 408 694 374 719 q 453 613 442 668 q 465 451 465 557 l 465 0 l 392 0 l 392 428 z "},"ħ":{"ha":536,"x_min":7,"x_max":465,"o":"m 304 719 q 408 694 374 719 q 453 613 442 668 q 465 451 465 557 l 465 0 l 392 0 l 392 428 q 383 576 392 529 q 351 638 375 622 q 276 653 328 653 q 190 619 217 653 q 156 529 163 585 q 150 364 150 474 l 150 0 l 76 0 l 76 890 l 7 890 l 7 956 l 76 956 l 76 1032 l 150 1032 l 150 956 l 301 956 l 301 890 l 150 890 l 150 625 l 157 625 q 304 719 186 719 z "},"ĥ":{"ha":536,"x_min":-22,"x_max":465,"o":"m 392 428 q 383 576 392 529 q 351 638 375 622 q 276 653 328 653 q 190 619 217 653 q 156 529 163 585 q 150 364 150 474 l 150 0 l 76 0 l 76 1032 l 150 1032 l 150 625 l 157 625 q 304 719 186 719 q 408 694 374 719 q 453 613 442 668 q 465 451 465 557 l 465 0 l 392 0 l 392 428 m -22 1092 l -22 1099 l 71 1279 l 156 1279 l 249 1099 l 249 1092 l 196 1092 l 113 1229 l 32 1092 l -22 1092 z "},"ḥ":{"ha":536,"x_min":76,"x_max":465,"o":"m 392 428 q 383 576 392 529 q 351 638 375 622 q 276 653 328 653 q 190 619 217 653 q 156 529 163 585 q 150 364 150 474 l 150 0 l 76 0 l 76 1032 l 150 1032 l 150 625 l 157 625 q 304 719 186 719 q 408 694 374 719 q 453 613 442 668 q 465 451 465 557 l 465 0 l 392 0 l 392 428 m 225 -194 l 225 -86 l 313 -86 l 313 -194 l 225 -194 z "},"i":{"ha":226,"x_min":74,"x_max":151,"o":"m 74 931 l 74 1032 l 151 1032 l 151 931 l 74 931 m 76 0 l 76 708 l 150 708 l 150 0 l 76 0 z "},"ı":{"ha":226,"x_min":76,"x_max":150,"o":"m 76 0 l 76 708 l 150 708 l 150 0 l 76 0 z "},"í":{"ha":226,"x_min":76,"x_max":200,"o":"m 76 0 l 76 708 l 150 708 l 150 0 l 76 0 m 76 838 l 76 844 l 122 1032 l 200 1032 l 200 1025 l 131 838 l 76 838 z "},"ĭ":{"ha":226,"x_min":-22,"x_max":249,"o":"m 76 0 l 76 708 l 150 708 l 150 0 l 76 0 m 249 1032 q 241 925 249 964 q 204 863 233 886 q 113 839 175 839 q 22 863 50 839 q -15 924 -7 886 q -22 1032 -22 963 l 36 1032 q 40 949 36 976 q 60 906 44 921 q 113 890 76 890 q 165 906 149 890 q 186 949 182 921 q 190 1032 190 976 l 249 1032 z "},"ǐ":{"ha":226,"x_min":-22,"x_max":249,"o":"m 76 0 l 76 708 l 150 708 l 150 0 l 76 0 m 71 844 l -22 1024 l -22 1032 l 32 1032 l 113 894 l 196 1032 l 249 1032 l 249 1024 l 156 844 l 71 844 z "},"î":{"ha":226,"x_min":-22,"x_max":249,"o":"m 76 0 l 76 708 l 150 708 l 150 0 l 76 0 m -22 844 l -22 851 l 71 1032 l 156 1032 l 249 851 l 249 844 l 196 844 l 113 982 l 32 844 l -22 844 z "},"ȉ":{"ha":226,"x_min":-49,"x_max":211,"o":"m 76 0 l 76 708 l 150 708 l 150 0 l 76 0 m 65 849 l 17 849 l -49 1007 l -49 1014 l 24 1014 l 65 856 l 65 849 m 211 849 l 163 849 l 97 1007 l 97 1014 l 169 1014 l 211 856 l 211 849 z "},"ï":{"ha":226,"x_min":-42,"x_max":268,"o":"m 76 0 l 76 708 l 150 708 l 150 0 l 76 0 m -42 918 l -42 1014 l 33 1014 l 33 918 l -42 918 m 192 918 l 192 1014 l 268 1014 l 268 918 l 192 918 z "},"ị":{"ha":226,"x_min":72,"x_max":160,"o":"m 74 931 l 74 1032 l 151 1032 l 151 931 l 74 931 m 76 0 l 76 708 l 150 708 l 150 0 l 76 0 m 72 -194 l 72 -86 l 160 -86 l 160 -194 l 72 -194 z "},"ì":{"ha":226,"x_min":25,"x_max":150,"o":"m 76 0 l 76 708 l 150 708 l 150 0 l 76 0 m 94 838 l 25 1025 l 25 1032 l 103 1032 l 149 844 l 149 838 l 94 838 z "},"ỉ":{"ha":226,"x_min":-10,"x_max":235,"o":"m 76 0 l 76 708 l 150 708 l 150 0 l 76 0 m 57 865 q 67 904 57 893 q 104 925 78 915 l 119 928 q 164 949 151 939 q 176 986 176 960 q 172 1016 176 1007 q 151 1029 168 1025 q 97 1033 135 1033 l 43 1032 q -10 1029 10 1029 l -10 1076 q 107 1088 74 1088 q 208 1067 181 1088 q 235 999 235 1047 q 226 936 235 956 q 179 903 217 917 l 167 899 q 128 883 139 888 q 114 871 117 878 q 111 850 111 864 l 57 850 l 57 865 z "},"ȋ":{"ha":226,"x_min":-22,"x_max":249,"o":"m 76 0 l 76 708 l 150 708 l 150 0 l 76 0 m -22 847 q -15 954 -22 915 q 22 1017 -7 993 q 114 1040 51 1040 q 205 1017 176 1040 q 241 955 233 993 q 249 847 249 917 l 190 847 q 186 931 190 903 q 166 974 182 958 q 114 989 150 989 q 61 974 78 989 q 40 931 44 958 q 36 847 36 903 l -22 847 z "},"ĳ":{"ha":453,"x_min":74,"x_max":378,"o":"m 74 931 l 74 1032 l 151 1032 l 151 931 l 74 931 m 76 0 l 76 708 l 150 708 l 150 0 l 76 0 m 300 931 l 300 1032 l 378 1032 l 378 931 l 300 931 m 222 -206 q 276 -199 260 -206 q 298 -178 293 -193 q 303 -129 303 -162 l 303 708 l 376 708 l 376 -100 q 362 -211 376 -176 q 316 -256 347 -246 q 222 -265 285 -265 l 222 -206 z "},"ī":{"ha":226,"x_min":-3,"x_max":229,"o":"m 76 0 l 76 708 l 150 708 l 150 0 l 76 0 m -3 960 l -3 1032 l 229 1032 l 229 960 l -3 960 z "},"į":{"ha":226,"x_min":3,"x_max":151,"o":"m 75 1014 l 151 1014 l 151 918 l 75 918 l 75 1014 m 67 -156 q 129 -217 67 -217 l 151 -215 l 151 -269 q 114 -272 138 -272 q 30 -244 57 -272 q 3 -168 3 -215 q 26 -82 3 -128 q 88 0 50 -36 l 76 0 l 76 708 l 150 708 l 150 0 q 94 -72 121 -26 q 67 -156 67 -118 z "},"ĩ":{"ha":226,"x_min":-51,"x_max":278,"o":"m 76 0 l 76 708 l 150 708 l 150 0 l 76 0 m 278 1032 q 264 922 278 953 q 206 890 250 890 q 163 899 183 890 q 107 924 142 907 q 63 947 82 939 q 26 954 44 954 q 5 938 10 954 q 0 875 0 922 l -51 875 q -37 986 -51 956 q 21 1017 -24 1017 q 68 1008 44 1017 q 124 981 92 999 q 167 960 150 967 q 199 953 183 953 q 221 970 215 953 q 226 1032 226 988 l 278 1032 z "},"j":{"ha":226,"x_min":-4,"x_max":151,"o":"m 74 931 l 74 1032 l 151 1032 l 151 931 l 74 931 m -4 -206 q 50 -199 33 -206 q 72 -178 67 -193 q 76 -129 76 -162 l 76 708 l 150 708 l 150 -100 q 135 -211 150 -176 q 90 -256 121 -246 q -4 -265 58 -265 l -4 -206 z "},"ȷ":{"ha":226,"x_min":-4,"x_max":150,"o":"m -4 -206 q 50 -199 33 -206 q 72 -178 67 -193 q 76 -129 76 -162 l 76 708 l 150 708 l 150 -100 q 135 -211 150 -176 q 90 -256 121 -246 q -4 -265 58 -265 l -4 -206 z "},"ĵ":{"ha":226,"x_min":-22,"x_max":249,"o":"m -4 -206 q 50 -199 33 -206 q 72 -178 67 -193 q 76 -129 76 -162 l 76 708 l 150 708 l 150 -100 q 135 -211 150 -176 q 90 -256 121 -246 q -4 -265 58 -265 l -4 -206 m -22 844 l -22 851 l 71 1032 l 156 1032 l 249 851 l 249 844 l 196 844 l 113 982 l 32 844 l -22 844 z "},"k":{"ha":474,"x_min":76,"x_max":453,"o":"m 372 0 l 224 325 l 150 325 l 150 0 l 76 0 l 76 1032 l 150 1032 l 150 393 l 224 393 l 369 708 l 447 708 l 285 365 l 453 0 l 372 0 z "},"ķ":{"ha":474,"x_min":76,"x_max":453,"o":"m 372 0 l 224 325 l 150 325 l 150 0 l 76 0 l 76 1032 l 150 1032 l 150 393 l 224 393 l 369 708 l 447 708 l 285 365 l 453 0 l 372 0 m 181 -292 q 223 -284 210 -292 q 240 -260 236 -276 q 243 -207 243 -243 l 243 -185 l 207 -185 l 207 -86 l 294 -86 l 294 -186 q 285 -276 294 -246 q 253 -318 276 -306 q 181 -331 229 -331 l 181 -292 z "},"ĸ":{"ha":474,"x_min":76,"x_max":453,"o":"m 372 0 l 224 325 l 150 325 l 150 0 l 76 0 l 76 708 l 150 708 l 150 393 l 224 393 l 369 708 l 447 708 l 285 365 l 453 0 l 372 0 z "},"l":{"ha":226,"x_min":76,"x_max":150,"o":"m 76 0 l 76 1032 l 150 1032 l 150 0 l 76 0 z "},"ĺ":{"ha":226,"x_min":76,"x_max":206,"o":"m 76 0 l 76 1032 l 150 1032 l 150 0 l 76 0 m 82 1085 l 82 1092 l 128 1279 l 206 1279 l 206 1272 l 136 1085 l 82 1085 z "},"ľ":{"ha":254,"x_min":76,"x_max":286,"o":"m 76 0 l 76 1032 l 150 1032 l 150 0 l 76 0 m 192 622 l 210 843 l 210 956 l 286 956 l 286 843 l 243 622 l 192 622 z "},"ļ":{"ha":226,"x_min":58,"x_max":172,"o":"m 76 0 l 76 1032 l 150 1032 l 150 0 l 76 0 m 58 -292 q 101 -284 88 -292 q 117 -260 114 -276 q 121 -207 121 -243 l 121 -185 l 85 -185 l 85 -86 l 172 -86 l 172 -186 q 163 -276 172 -246 q 131 -318 154 -306 q 58 -331 107 -331 l 58 -292 z "},"ŀ":{"ha":297,"x_min":76,"x_max":301,"o":"m 76 0 l 76 1032 l 150 1032 l 150 0 l 76 0 m 217 361 l 217 469 l 301 469 l 301 361 l 217 361 z "},"ǉ":{"ha":453,"x_min":76,"x_max":378,"o":"m 76 0 l 76 1032 l 150 1032 l 150 0 l 76 0 m 300 931 l 300 1032 l 378 1032 l 378 931 l 300 931 m 222 -206 q 276 -199 260 -206 q 298 -178 293 -193 q 303 -129 303 -162 l 303 708 l 376 708 l 376 -100 q 362 -211 376 -176 q 316 -256 347 -246 q 222 -265 285 -265 l 222 -206 z "},"ł":{"ha":233,"x_min":14,"x_max":219,"o":"m 76 0 l 76 443 l 14 421 l 14 492 l 76 514 l 76 1032 l 150 1032 l 150 539 l 219 564 l 219 494 l 150 469 l 150 0 l 76 0 z "},"m":{"ha":835,"x_min":76,"x_max":764,"o":"m 690 428 q 683 576 690 531 q 653 638 675 622 q 583 653 632 653 q 496 621 522 653 q 463 534 469 589 q 457 364 457 479 l 457 0 l 383 0 l 383 428 q 376 576 383 531 q 347 638 368 622 q 278 653 325 653 q 190 619 218 653 q 156 528 163 585 q 150 364 150 472 l 150 0 l 76 0 l 76 708 l 139 708 l 144 608 l 153 608 q 199 690 165 660 q 300 719 232 719 q 403 694 371 719 q 447 608 436 669 l 456 608 q 503 690 468 660 q 606 719 538 719 q 707 694 674 719 q 752 613 740 668 q 764 453 764 557 l 764 0 l 690 0 l 690 428 z "},"n":{"ha":536,"x_min":76,"x_max":465,"o":"m 392 428 q 383 576 392 529 q 351 638 375 622 q 276 653 328 653 q 190 619 217 653 q 156 529 163 585 q 150 364 150 474 l 150 0 l 76 0 l 76 708 l 139 708 l 144 608 l 151 608 q 199 690 164 660 q 304 719 235 719 q 408 694 374 719 q 453 613 442 668 q 465 451 465 557 l 465 0 l 392 0 l 392 428 z "},"ń":{"ha":536,"x_min":76,"x_max":465,"o":"m 392 428 q 383 576 392 529 q 351 638 375 622 q 276 653 328 653 q 190 619 217 653 q 156 529 163 585 q 150 364 150 474 l 150 0 l 76 0 l 76 708 l 139 708 l 144 608 l 151 608 q 199 690 164 660 q 304 719 235 719 q 408 694 374 719 q 453 613 442 668 q 465 451 465 557 l 465 0 l 392 0 l 392 428 m 236 838 l 236 844 l 282 1032 l 360 1032 l 360 1025 l 290 838 l 236 838 z "},"ŉ":{"ha":567,"x_min":8,"x_max":496,"o":"m 8 819 q 60 837 49 819 q 71 910 71 854 l 71 933 l 35 933 l 35 1032 l 121 1032 l 121 932 q 113 838 121 869 q 81 794 104 807 q 8 781 57 781 l 8 819 m 422 428 q 414 576 422 529 q 382 638 406 622 q 307 653 358 653 q 220 619 247 653 q 187 529 193 585 q 181 364 181 474 l 181 0 l 107 0 l 107 708 l 169 708 l 175 608 l 182 608 q 230 690 194 660 q 335 719 265 719 q 438 694 404 719 q 484 613 472 668 q 496 451 496 557 l 496 0 l 422 0 l 422 428 z "},"ň":{"ha":536,"x_min":76,"x_max":465,"o":"m 392 428 q 383 576 392 529 q 351 638 375 622 q 276 653 328 653 q 190 619 217 653 q 156 529 163 585 q 150 364 150 474 l 150 0 l 76 0 l 76 708 l 139 708 l 144 608 l 151 608 q 199 690 164 660 q 304 719 235 719 q 408 694 374 719 q 453 613 442 668 q 465 451 465 557 l 465 0 l 392 0 l 392 428 m 225 844 l 132 1024 l 132 1032 l 186 1032 l 267 894 l 350 1032 l 403 1032 l 403 1024 l 310 844 l 225 844 z "},"ņ":{"ha":536,"x_min":76,"x_max":465,"o":"m 392 428 q 383 576 392 529 q 351 638 375 622 q 276 653 328 653 q 190 619 217 653 q 156 529 163 585 q 150 364 150 474 l 150 0 l 76 0 l 76 708 l 139 708 l 144 608 l 151 608 q 199 690 164 660 q 304 719 235 719 q 408 694 374 719 q 453 613 442 668 q 465 451 465 557 l 465 0 l 392 0 l 392 428 m 213 -292 q 255 -284 242 -292 q 272 -260 268 -276 q 275 -207 275 -243 l 275 -185 l 239 -185 l 239 -86 l 326 -86 l 326 -186 q 317 -276 326 -246 q 285 -318 308 -306 q 213 -331 261 -331 l 213 -292 z "},"ṅ":{"ha":536,"x_min":76,"x_max":465,"o":"m 392 428 q 383 576 392 529 q 351 638 375 622 q 276 653 328 653 q 190 619 217 653 q 156 529 163 585 q 150 364 150 474 l 150 0 l 76 0 l 76 708 l 139 708 l 144 608 l 151 608 q 199 690 164 660 q 304 719 235 719 q 408 694 374 719 q 453 613 442 668 q 465 451 465 557 l 465 0 l 392 0 l 392 428 m 229 918 l 229 1014 l 304 1014 l 304 918 l 229 918 z "},"ŋ":{"ha":536,"x_min":76,"x_max":465,"o":"m 304 719 q 408 694 374 719 q 453 613 442 668 q 465 451 465 557 l 465 -100 q 451 -211 465 -176 q 405 -256 436 -246 q 311 -265 374 -265 l 311 -206 q 365 -199 349 -206 q 387 -178 382 -193 q 392 -129 392 -162 l 392 428 q 383 576 392 529 q 351 638 375 622 q 276 653 328 653 q 190 619 217 653 q 156 529 163 585 q 150 364 150 474 l 150 0 l 76 0 l 76 708 l 139 708 l 144 608 l 151 608 q 199 690 164 660 q 304 719 235 719 z "},"ɲ":{"ha":536,"x_min":-4,"x_max":465,"o":"m -4 -206 q 50 -199 33 -206 q 72 -178 67 -193 q 76 -129 76 -162 l 76 708 l 139 708 l 144 608 l 151 608 q 199 690 164 660 q 304 719 235 719 q 408 694 374 719 q 453 613 442 668 q 465 451 465 557 l 465 0 l 392 0 l 392 428 q 383 576 392 529 q 351 638 375 622 q 276 653 328 653 q 190 619 217 653 q 156 529 163 585 q 150 365 150 474 l 150 -100 q 135 -211 150 -176 q 90 -256 121 -246 q -4 -265 58 -265 l -4 -206 z "},"ǌ":{"ha":763,"x_min":76,"x_max":688,"o":"m 392 428 q 383 576 392 529 q 351 638 375 622 q 276 653 328 653 q 190 619 217 653 q 156 529 163 585 q 150 364 150 474 l 150 0 l 76 0 l 76 708 l 139 708 l 144 608 l 151 608 q 199 690 164 660 q 304 719 235 719 q 408 694 374 719 q 453 613 442 668 q 465 451 465 557 l 465 0 l 392 0 l 392 428 m 610 931 l 610 1032 l 688 1032 l 688 931 l 610 931 m 532 -206 q 586 -199 569 -206 q 608 -178 603 -193 q 613 -129 613 -162 l 613 708 l 686 708 l 686 -100 q 672 -211 686 -176 q 626 -256 657 -246 q 532 -265 594 -265 l 532 -206 z "},"ñ":{"ha":536,"x_min":76,"x_max":465,"o":"m 392 428 q 383 576 392 529 q 351 638 375 622 q 276 653 328 653 q 190 619 217 653 q 156 529 163 585 q 150 364 150 474 l 150 0 l 76 0 l 76 708 l 139 708 l 144 608 l 151 608 q 199 690 164 660 q 304 719 235 719 q 408 694 374 719 q 453 613 442 668 q 465 451 465 557 l 465 0 l 392 0 l 392 428 m 440 1032 q 426 922 440 953 q 368 890 413 890 q 325 899 346 890 q 269 924 304 907 q 226 947 244 939 q 189 954 207 954 q 167 938 172 954 q 163 875 163 922 l 111 875 q 125 986 111 956 q 183 1017 139 1017 q 231 1008 207 1017 q 286 981 254 999 q 329 960 313 967 q 361 953 346 953 q 383 970 378 953 q 389 1032 389 988 l 440 1032 z "},"o":{"ha":522,"x_min":57,"x_max":465,"o":"m 261 -11 q 124 17 167 -11 q 69 118 82 46 q 57 353 57 190 q 69 588 57 515 q 124 690 82 661 q 261 719 167 719 q 397 690 356 719 q 452 588 439 661 q 465 353 465 515 q 452 119 465 192 q 397 17 439 46 q 261 -11 356 -11 m 261 54 q 350 76 324 54 q 384 155 376 97 q 392 353 392 213 q 384 553 392 494 q 350 633 376 611 q 261 654 324 654 q 171 633 197 654 q 138 553 144 611 q 131 353 131 494 q 138 154 131 211 q 171 76 144 97 q 261 54 197 54 z "},"ó":{"ha":522,"x_min":57,"x_max":465,"o":"m 261 -11 q 124 17 167 -11 q 69 118 82 46 q 57 353 57 190 q 69 588 57 515 q 124 690 82 661 q 261 719 167 719 q 397 690 356 719 q 452 588 439 661 q 465 353 465 515 q 452 119 465 192 q 397 17 439 46 q 261 -11 356 -11 m 261 54 q 350 76 324 54 q 384 155 376 97 q 392 353 392 213 q 384 553 392 494 q 350 633 376 611 q 261 654 324 654 q 171 633 197 654 q 138 553 144 611 q 131 353 131 494 q 138 154 131 211 q 171 76 144 97 q 261 54 197 54 m 219 838 l 219 844 l 265 1032 l 343 1032 l 343 1025 l 274 838 l 219 838 z "},"ŏ":{"ha":522,"x_min":57,"x_max":465,"o":"m 261 -11 q 124 17 167 -11 q 69 118 82 46 q 57 353 57 190 q 69 588 57 515 q 124 690 82 661 q 261 719 167 719 q 397 690 356 719 q 452 588 439 661 q 465 353 465 515 q 452 119 465 192 q 397 17 439 46 q 261 -11 356 -11 m 261 54 q 350 76 324 54 q 384 155 376 97 q 392 353 392 213 q 384 553 392 494 q 350 633 376 611 q 261 654 324 654 q 171 633 197 654 q 138 553 144 611 q 131 353 131 494 q 138 154 131 211 q 171 76 144 97 q 261 54 197 54 m 396 1032 q 388 925 396 964 q 351 863 381 886 q 260 839 322 839 q 169 863 197 839 q 133 924 140 886 q 125 1032 125 963 l 183 1032 q 188 949 183 976 q 208 906 192 921 q 260 890 224 890 q 313 906 296 890 q 333 949 329 921 q 338 1032 338 976 l 396 1032 z "},"ǒ":{"ha":522,"x_min":57,"x_max":465,"o":"m 261 -11 q 124 17 167 -11 q 69 118 82 46 q 57 353 57 190 q 69 588 57 515 q 124 690 82 661 q 261 719 167 719 q 397 690 356 719 q 452 588 439 661 q 465 353 465 515 q 452 119 465 192 q 397 17 439 46 q 261 -11 356 -11 m 261 54 q 350 76 324 54 q 384 155 376 97 q 392 353 392 213 q 384 553 392 494 q 350 633 376 611 q 261 654 324 654 q 171 633 197 654 q 138 553 144 611 q 131 353 131 494 q 138 154 131 211 q 171 76 144 97 q 261 54 197 54 m 218 844 l 125 1024 l 125 1032 l 179 1032 l 260 894 l 343 1032 l 396 1032 l 396 1024 l 303 844 l 218 844 z "},"ô":{"ha":522,"x_min":57,"x_max":465,"o":"m 261 -11 q 124 17 167 -11 q 69 118 82 46 q 57 353 57 190 q 69 588 57 515 q 124 690 82 661 q 261 719 167 719 q 397 690 356 719 q 452 588 439 661 q 465 353 465 515 q 452 119 465 192 q 397 17 439 46 q 261 -11 356 -11 m 261 54 q 350 76 324 54 q 384 155 376 97 q 392 353 392 213 q 384 553 392 494 q 350 633 376 611 q 261 654 324 654 q 171 633 197 654 q 138 553 144 611 q 131 353 131 494 q 138 154 131 211 q 171 76 144 97 q 261 54 197 54 m 128 844 l 128 851 l 221 1032 l 306 1032 l 399 851 l 399 844 l 346 844 l 263 982 l 182 844 l 128 844 z "},"ố":{"ha":522,"x_min":57,"x_max":465,"o":"m 261 -11 q 124 17 167 -11 q 69 118 82 46 q 57 353 57 190 q 69 588 57 515 q 124 690 82 661 q 261 719 167 719 q 397 690 356 719 q 452 588 439 661 q 465 353 465 515 q 452 119 465 192 q 397 17 439 46 q 261 -11 356 -11 m 261 54 q 350 76 324 54 q 384 155 376 97 q 392 353 392 213 q 384 553 392 494 q 350 633 376 611 q 261 654 324 654 q 171 633 197 654 q 138 553 144 611 q 131 353 131 494 q 138 154 131 211 q 171 76 144 97 q 261 54 197 54 m 125 844 l 125 851 l 218 1032 l 303 1032 l 396 851 l 396 844 l 343 844 l 260 982 l 179 844 l 125 844 m 335 1038 l 335 1044 l 381 1232 l 458 1232 l 458 1225 l 389 1038 l 335 1038 z "},"ộ":{"ha":522,"x_min":57,"x_max":465,"o":"m 261 -11 q 124 17 167 -11 q 69 118 82 46 q 57 353 57 190 q 69 588 57 515 q 124 690 82 661 q 261 719 167 719 q 397 690 356 719 q 452 588 439 661 q 465 353 465 515 q 452 119 465 192 q 397 17 439 46 q 261 -11 356 -11 m 261 54 q 350 76 324 54 q 384 155 376 97 q 392 353 392 213 q 384 553 392 494 q 350 633 376 611 q 261 654 324 654 q 171 633 197 654 q 138 553 144 611 q 131 353 131 494 q 138 154 131 211 q 171 76 144 97 q 261 54 197 54 m 218 -194 l 218 -86 l 306 -86 l 306 -194 l 218 -194 m 125 844 l 125 851 l 218 1032 l 303 1032 l 396 851 l 396 844 l 343 844 l 260 982 l 179 844 l 125 844 z "},"ồ":{"ha":522,"x_min":57,"x_max":465,"o":"m 261 -11 q 124 17 167 -11 q 69 118 82 46 q 57 353 57 190 q 69 588 57 515 q 124 690 82 661 q 261 719 167 719 q 397 690 356 719 q 452 588 439 661 q 465 353 465 515 q 452 119 465 192 q 397 17 439 46 q 261 -11 356 -11 m 261 54 q 350 76 324 54 q 384 155 376 97 q 392 353 392 213 q 384 553 392 494 q 350 633 376 611 q 261 654 324 654 q 171 633 197 654 q 138 553 144 611 q 131 353 131 494 q 138 154 131 211 q 171 76 144 97 q 261 54 197 54 m 122 844 l 122 851 l 215 1032 l 300 1032 l 393 851 l 393 844 l 340 844 l 257 982 l 176 844 l 122 844 m 335 1038 l 265 1225 l 265 1232 l 343 1232 l 389 1044 l 389 1038 l 335 1038 z "},"ổ":{"ha":522,"x_min":57,"x_max":496,"o":"m 261 -11 q 124 17 167 -11 q 69 118 82 46 q 57 353 57 190 q 69 588 57 515 q 124 690 82 661 q 261 719 167 719 q 397 690 356 719 q 452 588 439 661 q 465 353 465 515 q 452 119 465 192 q 397 17 439 46 q 261 -11 356 -11 m 261 54 q 350 76 324 54 q 384 155 376 97 q 392 353 392 213 q 384 553 392 494 q 350 633 376 611 q 261 654 324 654 q 171 633 197 654 q 138 553 144 611 q 131 353 131 494 q 138 154 131 211 q 171 76 144 97 q 261 54 197 54 m 125 844 l 125 851 l 218 1032 l 303 1032 l 396 851 l 396 844 l 343 844 l 260 982 l 179 844 l 125 844 m 318 1053 q 328 1092 318 1081 q 365 1113 339 1103 l 381 1115 q 425 1137 413 1126 q 438 1174 438 1147 q 433 1203 438 1194 q 413 1217 429 1213 q 358 1221 396 1221 l 304 1219 q 251 1217 271 1217 l 251 1264 q 368 1275 335 1275 q 469 1255 442 1275 q 496 1186 496 1235 q 487 1124 496 1143 q 440 1090 478 1104 l 428 1086 q 389 1070 400 1075 q 375 1058 378 1065 q 372 1038 372 1051 l 318 1038 l 318 1053 z "},"ỗ":{"ha":522,"x_min":57,"x_max":465,"o":"m 261 -11 q 124 17 167 -11 q 69 118 82 46 q 57 353 57 190 q 69 588 57 515 q 124 690 82 661 q 261 719 167 719 q 397 690 356 719 q 452 588 439 661 q 465 353 465 515 q 452 119 465 192 q 397 17 439 46 q 261 -11 356 -11 m 261 54 q 350 76 324 54 q 384 155 376 97 q 392 353 392 213 q 384 553 392 494 q 350 633 376 611 q 261 654 324 654 q 171 633 197 654 q 138 553 144 611 q 131 353 131 494 q 138 154 131 211 q 171 76 144 97 q 261 54 197 54 m 122 844 l 122 851 l 215 1032 l 300 1032 l 393 851 l 393 844 l 340 844 l 257 982 l 176 844 l 122 844 m 425 1272 q 411 1162 425 1193 q 353 1131 397 1131 q 310 1139 331 1131 q 254 1164 289 1147 q 210 1187 229 1179 q 174 1194 192 1194 q 152 1178 157 1194 q 147 1115 147 1163 l 96 1115 q 110 1226 96 1196 q 168 1257 124 1257 q 215 1248 192 1257 q 271 1221 239 1239 q 314 1200 297 1207 q 346 1193 331 1193 q 368 1210 363 1193 q 374 1272 374 1228 l 425 1272 z "},"ȍ":{"ha":522,"x_min":57,"x_max":465,"o":"m 261 -11 q 124 17 167 -11 q 69 118 82 46 q 57 353 57 190 q 69 588 57 515 q 124 690 82 661 q 261 719 167 719 q 397 690 356 719 q 452 588 439 661 q 465 353 465 515 q 452 119 465 192 q 397 17 439 46 q 261 -11 356 -11 m 261 54 q 350 76 324 54 q 384 155 376 97 q 392 353 392 213 q 384 553 392 494 q 350 633 376 611 q 261 654 324 654 q 171 633 197 654 q 138 553 144 611 q 131 353 131 494 q 138 154 131 211 q 171 76 144 97 q 261 54 197 54 m 213 849 l 164 849 l 99 1007 l 99 1014 l 171 1014 l 213 856 l 213 849 m 358 849 l 310 849 l 244 1007 l 244 1014 l 317 1014 l 358 856 l 358 849 z "},"ö":{"ha":522,"x_min":57,"x_max":465,"o":"m 261 -11 q 124 17 167 -11 q 69 118 82 46 q 57 353 57 190 q 69 588 57 515 q 124 690 82 661 q 261 719 167 719 q 397 690 356 719 q 452 588 439 661 q 465 353 465 515 q 452 119 465 192 q 397 17 439 46 q 261 -11 356 -11 m 261 54 q 350 76 324 54 q 384 155 376 97 q 392 353 392 213 q 384 553 392 494 q 350 633 376 611 q 261 654 324 654 q 171 633 197 654 q 138 553 144 611 q 131 353 131 494 q 138 154 131 211 q 171 76 144 97 q 261 54 197 54 m 110 918 l 110 1014 l 185 1014 l 185 918 l 110 918 m 343 918 l 343 1014 l 419 1014 l 419 918 l 343 918 z "},"ọ":{"ha":522,"x_min":57,"x_max":465,"o":"m 261 -11 q 124 17 167 -11 q 69 118 82 46 q 57 353 57 190 q 69 588 57 515 q 124 690 82 661 q 261 719 167 719 q 397 690 356 719 q 452 588 439 661 q 465 353 465 515 q 452 119 465 192 q 397 17 439 46 q 261 -11 356 -11 m 261 54 q 350 76 324 54 q 384 155 376 97 q 392 353 392 213 q 384 553 392 494 q 350 633 376 611 q 261 654 324 654 q 171 633 197 654 q 138 553 144 611 q 131 353 131 494 q 138 154 131 211 q 171 76 144 97 q 261 54 197 54 m 218 -194 l 218 -86 l 306 -86 l 306 -194 l 218 -194 z "},"ò":{"ha":522,"x_min":57,"x_max":465,"o":"m 261 -11 q 124 17 167 -11 q 69 118 82 46 q 57 353 57 190 q 69 588 57 515 q 124 690 82 661 q 261 719 167 719 q 397 690 356 719 q 452 588 439 661 q 465 353 465 515 q 452 119 465 192 q 397 17 439 46 q 261 -11 356 -11 m 261 54 q 350 76 324 54 q 384 155 376 97 q 392 353 392 213 q 384 553 392 494 q 350 633 376 611 q 261 654 324 654 q 171 633 197 654 q 138 553 144 611 q 131 353 131 494 q 138 154 131 211 q 171 76 144 97 q 261 54 197 54 m 239 838 l 169 1025 l 169 1032 l 247 1032 l 293 844 l 293 838 l 239 838 z "},"ỏ":{"ha":522,"x_min":57,"x_max":465,"o":"m 261 -11 q 124 17 167 -11 q 69 118 82 46 q 57 353 57 190 q 69 588 57 515 q 124 690 82 661 q 261 719 167 719 q 397 690 356 719 q 452 588 439 661 q 465 353 465 515 q 452 119 465 192 q 397 17 439 46 q 261 -11 356 -11 m 261 54 q 350 76 324 54 q 384 155 376 97 q 392 353 392 213 q 384 553 392 494 q 350 633 376 611 q 261 654 324 654 q 171 633 197 654 q 138 553 144 611 q 131 353 131 494 q 138 154 131 211 q 171 76 144 97 q 261 54 197 54 m 204 865 q 215 904 204 893 q 251 925 225 915 l 267 928 q 311 949 299 939 q 324 986 324 960 q 319 1016 324 1007 q 299 1029 315 1025 q 244 1033 282 1033 l 190 1032 q 138 1029 157 1029 l 138 1076 q 254 1088 221 1088 q 355 1067 328 1088 q 382 999 382 1047 q 373 936 382 956 q 326 903 364 917 l 314 899 q 275 883 286 888 q 261 871 264 878 q 258 850 258 864 l 204 850 l 204 865 z "},"ơ":{"ha":522,"x_min":57,"x_max":524,"o":"m 524 842 l 524 799 q 504 692 524 721 q 425 661 485 664 q 458 556 450 625 q 465 353 465 486 q 452 119 465 192 q 397 17 439 46 q 261 -11 356 -11 q 124 17 167 -11 q 69 118 82 46 q 57 353 57 190 q 69 588 57 515 q 124 690 82 661 q 261 719 167 719 q 360 708 325 719 l 404 708 q 456 725 444 708 q 467 786 467 742 l 467 842 l 524 842 m 261 54 q 350 76 324 54 q 384 155 376 97 q 392 353 392 213 q 384 553 392 494 q 350 633 376 611 q 261 654 324 654 q 171 633 197 654 q 138 553 144 611 q 131 353 131 494 q 138 154 131 211 q 171 76 144 97 q 261 54 197 54 z "},"ớ":{"ha":522,"x_min":57,"x_max":524,"o":"m 524 842 l 524 799 q 504 692 524 721 q 425 661 485 664 q 458 556 450 625 q 465 353 465 486 q 452 119 465 192 q 397 17 439 46 q 261 -11 356 -11 q 124 17 167 -11 q 69 118 82 46 q 57 353 57 190 q 69 588 57 515 q 124 690 82 661 q 261 719 167 719 q 360 708 325 719 l 404 708 q 456 725 444 708 q 467 786 467 742 l 467 842 l 524 842 m 261 54 q 350 76 324 54 q 384 155 376 97 q 392 353 392 213 q 384 553 392 494 q 350 633 376 611 q 261 654 324 654 q 171 633 197 654 q 138 553 144 611 q 131 353 131 494 q 138 154 131 211 q 171 76 144 97 q 261 54 197 54 m 229 838 l 229 844 l 275 1032 l 353 1032 l 353 1025 l 283 838 l 229 838 z "},"ợ":{"ha":522,"x_min":57,"x_max":524,"o":"m 524 842 l 524 799 q 504 692 524 721 q 425 661 485 664 q 458 556 450 625 q 465 353 465 486 q 452 119 465 192 q 397 17 439 46 q 261 -11 356 -11 q 124 17 167 -11 q 69 118 82 46 q 57 353 57 190 q 69 588 57 515 q 124 690 82 661 q 261 719 167 719 q 360 708 325 719 l 404 708 q 456 725 444 708 q 467 786 467 742 l 467 842 l 524 842 m 261 54 q 350 76 324 54 q 384 155 376 97 q 392 353 392 213 q 384 553 392 494 q 350 633 376 611 q 261 654 324 654 q 171 633 197 654 q 138 553 144 611 q 131 353 131 494 q 138 154 131 211 q 171 76 144 97 q 261 54 197 54 m 218 -194 l 218 -86 l 306 -86 l 306 -194 l 218 -194 z "},"ờ":{"ha":522,"x_min":57,"x_max":524,"o":"m 524 842 l 524 799 q 504 692 524 721 q 425 661 485 664 q 458 556 450 625 q 465 353 465 486 q 452 119 465 192 q 397 17 439 46 q 261 -11 356 -11 q 124 17 167 -11 q 69 118 82 46 q 57 353 57 190 q 69 588 57 515 q 124 690 82 661 q 261 719 167 719 q 360 708 325 719 l 404 708 q 456 725 444 708 q 467 786 467 742 l 467 842 l 524 842 m 261 54 q 350 76 324 54 q 384 155 376 97 q 392 353 392 213 q 384 553 392 494 q 350 633 376 611 q 261 654 324 654 q 171 633 197 654 q 138 553 144 611 q 131 353 131 494 q 138 154 131 211 q 171 76 144 97 q 261 54 197 54 m 232 838 l 163 1025 l 163 1032 l 240 1032 l 286 844 l 286 838 l 232 838 z "},"ở":{"ha":522,"x_min":57,"x_max":524,"o":"m 524 842 l 524 799 q 504 692 524 721 q 425 661 485 664 q 458 556 450 625 q 465 353 465 486 q 452 119 465 192 q 397 17 439 46 q 261 -11 356 -11 q 124 17 167 -11 q 69 118 82 46 q 57 353 57 190 q 69 588 57 515 q 124 690 82 661 q 261 719 167 719 q 360 708 325 719 l 404 708 q 456 725 444 708 q 467 786 467 742 l 467 842 l 524 842 m 261 54 q 350 76 324 54 q 384 155 376 97 q 392 353 392 213 q 384 553 392 494 q 350 633 376 611 q 261 654 324 654 q 171 633 197 654 q 138 553 144 611 q 131 353 131 494 q 138 154 131 211 q 171 76 144 97 q 261 54 197 54 m 204 865 q 215 904 204 893 q 251 925 225 915 l 267 928 q 311 949 299 939 q 324 986 324 960 q 319 1016 324 1007 q 299 1029 315 1025 q 244 1033 282 1033 l 190 1032 q 138 1029 157 1029 l 138 1076 q 254 1088 221 1088 q 355 1067 328 1088 q 382 999 382 1047 q 373 936 382 956 q 326 903 364 917 l 314 899 q 275 883 286 888 q 261 871 264 878 q 258 850 258 864 l 204 850 l 204 865 z "},"ỡ":{"ha":522,"x_min":57,"x_max":524,"o":"m 524 842 l 524 799 q 504 692 524 721 q 425 661 485 664 q 458 556 450 625 q 465 353 465 486 q 452 119 465 192 q 397 17 439 46 q 261 -11 356 -11 q 124 17 167 -11 q 69 118 82 46 q 57 353 57 190 q 69 588 57 515 q 124 690 82 661 q 261 719 167 719 q 360 708 325 719 l 404 708 q 456 725 444 708 q 467 786 467 742 l 467 842 l 524 842 m 261 54 q 350 76 324 54 q 384 155 376 97 q 392 353 392 213 q 384 553 392 494 q 350 633 376 611 q 261 654 324 654 q 171 633 197 654 q 138 553 144 611 q 131 353 131 494 q 138 154 131 211 q 171 76 144 97 q 261 54 197 54 m 425 1032 q 411 922 425 953 q 353 890 397 890 q 310 899 331 890 q 254 924 289 907 q 210 947 229 939 q 174 954 192 954 q 152 938 157 954 q 147 875 147 922 l 96 875 q 110 986 96 956 q 168 1017 124 1017 q 215 1008 192 1017 q 271 981 239 999 q 314 960 297 967 q 346 953 331 953 q 368 970 363 953 q 374 1032 374 988 l 425 1032 z "},"ő":{"ha":522,"x_min":57,"x_max":465,"o":"m 261 -11 q 124 17 167 -11 q 69 118 82 46 q 57 353 57 190 q 69 588 57 515 q 124 690 82 661 q 261 719 167 719 q 397 690 356 719 q 452 588 439 661 q 465 353 465 515 q 452 119 465 192 q 397 17 439 46 q 261 -11 356 -11 m 261 54 q 350 76 324 54 q 384 155 376 97 q 392 353 392 213 q 384 553 392 494 q 350 633 376 611 q 261 654 324 654 q 171 633 197 654 q 138 553 144 611 q 131 353 131 494 q 138 154 131 211 q 171 76 144 97 q 261 54 197 54 m 178 849 l 178 856 l 219 1014 l 292 1014 l 292 1007 l 226 849 l 178 849 m 324 849 l 324 856 l 365 1014 l 438 1014 l 438 1007 l 372 849 l 324 849 z "},"ȏ":{"ha":522,"x_min":57,"x_max":465,"o":"m 261 -11 q 124 17 167 -11 q 69 118 82 46 q 57 353 57 190 q 69 588 57 515 q 124 690 82 661 q 261 719 167 719 q 397 690 356 719 q 452 588 439 661 q 465 353 465 515 q 452 119 465 192 q 397 17 439 46 q 261 -11 356 -11 m 261 54 q 350 76 324 54 q 384 155 376 97 q 392 353 392 213 q 384 553 392 494 q 350 633 376 611 q 261 654 324 654 q 171 633 197 654 q 138 553 144 611 q 131 353 131 494 q 138 154 131 211 q 171 76 144 97 q 261 54 197 54 m 125 847 q 133 954 125 915 q 169 1017 140 993 q 261 1040 199 1040 q 352 1017 324 1040 q 388 955 381 993 q 396 847 396 917 l 338 847 q 333 931 338 903 q 313 974 329 958 q 261 989 297 989 q 208 974 225 989 q 188 931 192 958 q 183 847 183 903 l 125 847 z "},"ō":{"ha":522,"x_min":57,"x_max":465,"o":"m 261 -11 q 124 17 167 -11 q 69 118 82 46 q 57 353 57 190 q 69 588 57 515 q 124 690 82 661 q 261 719 167 719 q 397 690 356 719 q 452 588 439 661 q 465 353 465 515 q 452 119 465 192 q 397 17 439 46 q 261 -11 356 -11 m 261 54 q 350 76 324 54 q 384 155 376 97 q 392 353 392 213 q 384 553 392 494 q 350 633 376 611 q 261 654 324 654 q 171 633 197 654 q 138 553 144 611 q 131 353 131 494 q 138 154 131 211 q 171 76 144 97 q 261 54 197 54 m 144 960 l 144 1032 l 376 1032 l 376 960 l 144 960 z "},"ǫ":{"ha":522,"x_min":57,"x_max":465,"o":"m 261 719 q 397 690 356 719 q 452 588 439 661 q 465 353 465 515 q 453 119 465 192 q 399 18 440 47 q 335 -59 363 -7 q 308 -156 308 -111 q 371 -217 308 -217 l 393 -215 l 393 -269 q 356 -272 379 -272 q 272 -244 299 -272 q 244 -168 244 -215 q 263 -89 244 -131 q 313 -10 281 -47 q 261 -11 297 -11 q 124 17 167 -11 q 69 118 82 46 q 57 353 57 190 q 69 588 57 515 q 124 690 82 661 q 261 719 167 719 m 261 54 q 350 76 324 54 q 384 155 376 97 q 392 353 392 213 q 384 553 392 494 q 350 633 376 611 q 261 654 324 654 q 171 633 197 654 q 138 553 144 611 q 131 353 131 494 q 138 154 131 211 q 171 76 144 97 q 261 54 197 54 z "},"ø":{"ha":522,"x_min":57,"x_max":465,"o":"m 419 669 q 456 563 447 633 q 465 353 465 492 q 452 119 465 192 q 397 17 439 46 q 261 -11 356 -11 q 157 1 197 -11 l 126 -76 l 57 -76 l 101 39 q 65 144 74 74 q 57 353 57 214 q 69 588 57 515 q 124 690 82 661 q 261 719 167 719 q 364 707 324 719 l 394 785 l 465 785 l 419 669 m 131 353 q 132 222 131 281 q 139 133 133 164 l 339 643 q 261 654 315 654 q 171 633 197 654 q 138 553 144 611 q 131 353 131 494 m 392 353 q 390 497 392 450 q 382 575 389 544 l 182 65 q 261 54 203 54 q 350 76 324 54 q 384 155 376 97 q 392 353 392 213 z "},"ǿ":{"ha":522,"x_min":57,"x_max":465,"o":"m 419 669 q 456 563 447 633 q 465 353 465 492 q 452 119 465 192 q 397 17 439 46 q 261 -11 356 -11 q 157 1 197 -11 l 126 -76 l 57 -76 l 101 39 q 65 144 74 74 q 57 353 57 214 q 69 588 57 515 q 124 690 82 661 q 261 719 167 719 q 364 707 324 719 l 394 785 l 465 785 l 419 669 m 131 353 q 132 222 131 281 q 139 133 133 164 l 339 643 q 261 654 315 654 q 171 633 197 654 q 138 553 144 611 q 131 353 131 494 m 392 353 q 390 497 392 450 q 382 575 389 544 l 182 65 q 261 54 203 54 q 350 76 324 54 q 384 155 376 97 q 392 353 392 213 m 229 838 l 229 844 l 275 1032 l 353 1032 l 353 1025 l 283 838 l 229 838 z "},"õ":{"ha":522,"x_min":57,"x_max":465,"o":"m 261 -11 q 124 17 167 -11 q 69 118 82 46 q 57 353 57 190 q 69 588 57 515 q 124 690 82 661 q 261 719 167 719 q 397 690 356 719 q 452 588 439 661 q 465 353 465 515 q 452 119 465 192 q 397 17 439 46 q 261 -11 356 -11 m 261 54 q 350 76 324 54 q 384 155 376 97 q 392 353 392 213 q 384 553 392 494 q 350 633 376 611 q 261 654 324 654 q 171 633 197 654 q 138 553 144 611 q 131 353 131 494 q 138 154 131 211 q 171 76 144 97 q 261 54 197 54 m 426 1032 q 413 922 426 953 q 354 890 399 890 q 311 899 332 890 q 256 924 290 907 q 212 947 231 939 q 175 954 193 954 q 153 938 158 954 q 149 875 149 922 l 97 875 q 111 986 97 956 q 169 1017 125 1017 q 217 1008 193 1017 q 272 981 240 999 q 315 960 299 967 q 347 953 332 953 q 369 970 364 953 q 375 1032 375 988 l 426 1032 z "},"œ":{"ha":842,"x_min":57,"x_max":785,"o":"m 785 331 l 465 331 q 474 152 465 207 q 514 76 483 97 q 614 54 544 54 q 695 59 650 54 q 769 71 740 64 l 769 7 q 693 -6 740 0 q 601 -11 646 -11 q 490 9 531 -11 q 429 79 450 29 q 373 8 411 28 q 261 -11 335 -11 q 124 17 167 -11 q 69 118 82 46 q 57 353 57 190 q 69 588 57 515 q 124 690 82 661 q 261 719 167 719 q 372 701 333 719 q 429 633 410 682 q 488 699 449 679 q 599 719 528 719 q 725 688 686 719 q 774 584 764 656 q 785 356 785 513 l 785 331 m 261 54 q 350 76 324 54 q 384 155 376 97 q 392 353 392 213 q 384 553 392 494 q 350 633 376 611 q 261 654 324 654 q 171 633 197 654 q 138 553 144 611 q 131 353 131 494 q 138 154 131 211 q 171 76 144 97 q 261 54 197 54 m 596 654 q 508 636 535 654 q 474 565 482 618 q 465 389 465 513 l 714 389 l 714 414 q 704 574 714 524 q 670 639 694 624 q 596 654 646 654 z "},"p":{"ha":535,"x_min":76,"x_max":478,"o":"m 76 708 l 139 708 l 144 608 l 151 608 q 204 697 167 674 q 299 719 242 719 q 412 690 375 719 q 463 584 449 660 q 478 354 478 508 q 464 126 478 201 q 413 19 450 50 q 299 -11 375 -11 q 205 13 239 -11 q 157 89 171 36 l 150 89 l 150 -267 l 76 -267 l 76 708 m 276 56 q 361 76 336 56 q 395 156 386 96 q 404 354 404 215 q 395 553 404 493 q 361 633 386 613 q 276 653 336 653 q 199 630 226 653 q 161 553 171 607 q 150 354 150 493 q 160 168 150 213 q 199 81 172 106 q 276 56 226 56 z "},"þ":{"ha":535,"x_min":76,"x_max":478,"o":"m 76 1032 l 150 1032 l 150 619 l 157 619 q 204 697 169 674 q 299 719 239 719 q 412 690 375 719 q 463 584 449 660 q 478 354 478 508 q 464 126 478 201 q 413 19 450 50 q 299 -11 375 -11 q 205 13 239 -11 q 157 89 171 36 l 150 89 l 150 -264 l 76 -264 l 76 1032 m 276 56 q 361 76 336 56 q 395 156 386 96 q 404 354 404 215 q 395 553 404 493 q 361 633 386 613 q 276 653 336 653 q 199 628 226 653 q 160 544 171 604 q 150 354 150 489 q 158 174 150 215 q 199 82 171 108 q 276 56 226 56 z "},"q":{"ha":535,"x_min":57,"x_max":460,"o":"m 386 89 l 379 89 q 331 13 365 36 q 238 -11 297 -11 q 123 19 161 -11 q 71 126 85 50 q 57 354 57 201 q 72 583 57 507 q 124 690 86 660 q 238 719 161 719 q 331 697 293 719 q 383 608 369 674 l 390 608 l 396 708 l 460 708 l 460 -267 l 386 -267 l 386 89 m 258 56 q 335 80 307 56 q 375 160 363 104 q 386 354 386 219 q 384 472 386 425 q 374 560 382 518 q 335 631 364 608 q 258 653 307 653 q 174 633 200 653 q 140 553 149 613 q 131 354 131 493 q 140 156 131 215 q 174 76 149 96 q 258 56 200 56 z "},"r":{"ha":331,"x_min":76,"x_max":313,"o":"m 76 708 l 139 708 l 144 575 l 151 575 q 208 689 168 658 q 313 719 247 719 l 313 642 q 185 574 219 642 q 150 357 150 507 l 150 0 l 76 0 l 76 708 z "},"ŕ":{"ha":331,"x_min":76,"x_max":313,"o":"m 76 708 l 139 708 l 144 575 l 151 575 q 208 689 168 658 q 313 719 247 719 l 313 642 q 185 574 219 642 q 150 357 150 507 l 150 0 l 76 0 l 76 708 m 133 838 l 133 844 l 179 1032 l 257 1032 l 257 1025 l 188 838 l 133 838 z "},"ř":{"ha":331,"x_min":29,"x_max":313,"o":"m 76 708 l 139 708 l 144 575 l 151 575 q 208 689 168 658 q 313 719 247 719 l 313 642 q 185 574 219 642 q 150 357 150 507 l 150 0 l 76 0 l 76 708 m 122 844 l 29 1024 l 29 1032 l 83 1032 l 164 894 l 247 1032 l 300 1032 l 300 1024 l 207 844 l 122 844 z "},"ŗ":{"ha":331,"x_min":58,"x_max":313,"o":"m 76 708 l 139 708 l 144 575 l 151 575 q 208 689 168 658 q 313 719 247 719 l 313 642 q 185 574 219 642 q 150 357 150 507 l 150 0 l 76 0 l 76 708 m 58 -292 q 101 -284 88 -292 q 117 -260 114 -276 q 121 -207 121 -243 l 121 -185 l 85 -185 l 85 -86 l 172 -86 l 172 -186 q 163 -276 172 -246 q 131 -318 154 -306 q 58 -331 107 -331 l 58 -292 z "},"ȑ":{"ha":331,"x_min":3,"x_max":313,"o":"m 76 708 l 139 708 l 144 575 l 151 575 q 208 689 168 658 q 313 719 247 719 l 313 642 q 185 574 219 642 q 150 357 150 507 l 150 0 l 76 0 l 76 708 m 117 849 l 68 849 l 3 1007 l 3 1014 l 75 1014 l 117 856 l 117 849 m 263 849 l 214 849 l 149 1007 l 149 1014 l 221 1014 l 263 856 l 263 849 z "},"ṛ":{"ha":331,"x_min":71,"x_max":313,"o":"m 76 708 l 139 708 l 144 575 l 151 575 q 208 689 168 658 q 313 719 247 719 l 313 642 q 185 574 219 642 q 150 357 150 507 l 150 0 l 76 0 l 76 708 m 71 -194 l 71 -86 l 158 -86 l 158 -194 l 71 -194 z "},"ȓ":{"ha":331,"x_min":29,"x_max":313,"o":"m 76 708 l 139 708 l 144 575 l 151 575 q 208 689 168 658 q 313 719 247 719 l 313 642 q 185 574 219 642 q 150 357 150 507 l 150 0 l 76 0 l 76 708 m 29 847 q 37 954 29 915 q 74 1017 44 993 q 165 1040 103 1040 q 256 1017 228 1040 q 292 955 285 993 q 300 847 300 917 l 242 847 q 238 931 242 903 q 217 974 233 958 q 165 989 201 989 q 113 974 129 989 q 92 931 96 958 q 88 847 88 903 l 29 847 z "},"s":{"ha":442,"x_min":43,"x_max":399,"o":"m 213 -11 q 129 -6 174 -11 q 57 6 85 -1 l 57 69 q 125 58 81 63 q 211 54 169 54 q 302 88 278 54 q 326 189 326 122 q 321 272 326 246 q 303 306 315 297 q 261 318 290 314 l 142 338 q 65 387 86 347 q 43 515 43 426 q 90 676 43 632 q 233 719 138 719 q 310 715 271 719 q 374 701 350 710 l 374 638 q 310 649 351 644 q 229 654 269 654 q 145 626 174 654 q 117 524 117 599 q 122 449 117 472 q 140 415 128 425 q 179 401 153 406 l 294 383 q 356 360 335 376 q 388 304 378 343 q 399 192 399 265 q 355 35 399 82 q 213 -11 311 -11 z "},"ś":{"ha":442,"x_min":43,"x_max":399,"o":"m 213 -11 q 129 -6 174 -11 q 57 6 85 -1 l 57 69 q 125 58 81 63 q 211 54 169 54 q 302 88 278 54 q 326 189 326 122 q 321 272 326 246 q 303 306 315 297 q 261 318 290 314 l 142 338 q 65 387 86 347 q 43 515 43 426 q 90 676 43 632 q 233 719 138 719 q 310 715 271 719 q 374 701 350 710 l 374 638 q 310 649 351 644 q 229 654 269 654 q 145 626 174 654 q 117 524 117 599 q 122 449 117 472 q 140 415 128 425 q 179 401 153 406 l 294 383 q 356 360 335 376 q 388 304 378 343 q 399 192 399 265 q 355 35 399 82 q 213 -11 311 -11 m 189 838 l 189 844 l 235 1032 l 313 1032 l 313 1025 l 243 838 l 189 838 z "},"ꞌ":{"ha":132,"x_min":28,"x_max":104,"o":"m 28 400 l 28 1032 l 104 1032 l 104 711 l 79 400 l 28 400 z "},"š":{"ha":442,"x_min":43,"x_max":399,"o":"m 213 -11 q 129 -6 174 -11 q 57 6 85 -1 l 57 69 q 125 58 81 63 q 211 54 169 54 q 302 88 278 54 q 326 189 326 122 q 321 272 326 246 q 303 306 315 297 q 261 318 290 314 l 142 338 q 65 387 86 347 q 43 515 43 426 q 90 676 43 632 q 233 719 138 719 q 310 715 271 719 q 374 701 350 710 l 374 638 q 310 649 351 644 q 229 654 269 654 q 145 626 174 654 q 117 524 117 599 q 122 449 117 472 q 140 415 128 425 q 179 401 153 406 l 294 383 q 356 360 335 376 q 388 304 378 343 q 399 192 399 265 q 355 35 399 82 q 213 -11 311 -11 m 182 844 l 89 1024 l 89 1032 l 143 1032 l 224 894 l 307 1032 l 360 1032 l 360 1024 l 267 844 l 182 844 z "},"ş":{"ha":442,"x_min":43,"x_max":399,"o":"m 399 192 q 362 44 399 92 q 243 -10 325 -3 l 188 -264 l 114 -264 l 114 -257 l 189 -11 q 57 6 111 -7 l 57 69 q 125 58 81 63 q 211 54 169 54 q 302 88 278 54 q 326 189 326 122 q 321 272 326 246 q 303 306 315 297 q 261 318 290 314 l 142 338 q 65 387 86 347 q 43 515 43 426 q 90 676 43 632 q 233 719 138 719 q 310 715 271 719 q 374 701 350 710 l 374 638 q 310 649 351 644 q 229 654 269 654 q 145 626 174 654 q 117 524 117 599 q 122 449 117 472 q 140 415 128 425 q 179 401 153 406 l 294 383 q 356 360 335 376 q 388 304 378 343 q 399 192 399 265 z "},"ŝ":{"ha":442,"x_min":43,"x_max":399,"o":"m 213 -11 q 129 -6 174 -11 q 57 6 85 -1 l 57 69 q 125 58 81 63 q 211 54 169 54 q 302 88 278 54 q 326 189 326 122 q 321 272 326 246 q 303 306 315 297 q 261 318 290 314 l 142 338 q 65 387 86 347 q 43 515 43 426 q 90 676 43 632 q 233 719 138 719 q 310 715 271 719 q 374 701 350 710 l 374 638 q 310 649 351 644 q 229 654 269 654 q 145 626 174 654 q 117 524 117 599 q 122 449 117 472 q 140 415 128 425 q 179 401 153 406 l 294 383 q 356 360 335 376 q 388 304 378 343 q 399 192 399 265 q 355 35 399 82 q 213 -11 311 -11 m 85 844 l 85 851 l 178 1032 l 263 1032 l 356 851 l 356 844 l 303 844 l 219 982 l 139 844 l 85 844 z "},"ș":{"ha":442,"x_min":43,"x_max":399,"o":"m 213 -11 q 129 -6 174 -11 q 57 6 85 -1 l 57 69 q 125 58 81 63 q 211 54 169 54 q 302 88 278 54 q 326 189 326 122 q 321 272 326 246 q 303 306 315 297 q 261 318 290 314 l 142 338 q 65 387 86 347 q 43 515 43 426 q 90 676 43 632 q 233 719 138 719 q 310 715 271 719 q 374 701 350 710 l 374 638 q 310 649 351 644 q 229 654 269 654 q 145 626 174 654 q 117 524 117 599 q 122 449 117 472 q 140 415 128 425 q 179 401 153 406 l 294 383 q 356 360 335 376 q 388 304 378 343 q 399 192 399 265 q 355 35 399 82 q 213 -11 311 -11 m 165 -292 q 208 -284 194 -292 q 224 -260 221 -276 q 228 -207 228 -243 l 228 -185 l 192 -185 l 192 -86 l 279 -86 l 279 -186 q 270 -276 279 -246 q 238 -318 261 -306 q 165 -331 214 -331 l 165 -292 z "},"ṣ":{"ha":442,"x_min":43,"x_max":399,"o":"m 213 -11 q 129 -6 174 -11 q 57 6 85 -1 l 57 69 q 125 58 81 63 q 211 54 169 54 q 302 88 278 54 q 326 189 326 122 q 321 272 326 246 q 303 306 315 297 q 261 318 290 314 l 142 338 q 65 387 86 347 q 43 515 43 426 q 90 676 43 632 q 233 719 138 719 q 310 715 271 719 q 374 701 350 710 l 374 638 q 310 649 351 644 q 229 654 269 654 q 145 626 174 654 q 117 524 117 599 q 122 449 117 472 q 140 415 128 425 q 179 401 153 406 l 294 383 q 356 360 335 376 q 388 304 378 343 q 399 192 399 265 q 355 35 399 82 q 213 -11 311 -11 m 178 -194 l 178 -86 l 265 -86 l 265 -194 l 178 -194 z "},"ß":{"ha":550,"x_min":76,"x_max":489,"o":"m 240 0 l 240 65 l 279 65 q 370 83 343 65 q 406 153 397 100 q 415 335 415 207 q 405 490 415 436 q 369 564 394 543 q 296 585 344 585 l 267 585 l 267 650 l 296 650 q 383 688 357 650 q 410 814 410 725 q 381 941 410 906 q 279 976 351 976 q 202 959 231 976 q 161 901 174 942 q 149 786 149 860 l 149 0 l 76 0 l 76 776 q 98 935 76 878 q 163 1017 119 993 q 279 1042 207 1042 q 435 992 386 1042 q 483 818 483 943 q 457 682 483 726 q 371 625 431 638 l 371 619 q 461 542 433 604 q 489 343 489 479 q 475 136 489 207 q 420 33 461 65 q 294 0 379 0 l 240 0 z "},"ſ":{"ha":304,"x_min":25,"x_max":293,"o":"m 111 643 l 25 643 l 25 708 l 111 708 l 111 843 q 129 967 111 928 q 184 1019 147 1007 q 293 1032 221 1032 l 293 974 q 225 965 247 974 q 194 932 203 956 q 185 858 185 908 l 185 0 l 111 0 l 111 643 z "},"t":{"ha":311,"x_min":25,"x_max":286,"o":"m 111 0 l 111 643 l 25 643 l 25 708 l 111 708 l 111 914 l 185 914 l 185 708 l 286 708 l 286 643 l 185 643 l 185 0 l 111 0 z "},"ŧ":{"ha":311,"x_min":25,"x_max":286,"o":"m 286 643 l 185 643 l 185 390 l 279 390 l 279 326 l 185 326 l 185 0 l 111 0 l 111 326 l 39 326 l 39 390 l 111 390 l 111 643 l 25 643 l 25 708 l 111 708 l 111 914 l 185 914 l 185 708 l 286 708 l 286 643 z "},"ť":{"ha":343,"x_min":25,"x_max":418,"o":"m 111 0 l 111 643 l 25 643 l 25 708 l 111 708 l 111 914 l 185 914 l 185 708 l 286 708 l 286 643 l 185 643 l 185 0 l 111 0 m 324 622 l 342 843 l 342 956 l 418 956 l 418 843 l 375 622 l 324 622 z "},"ţ":{"ha":311,"x_min":25,"x_max":286,"o":"m 185 708 l 286 708 l 286 643 l 185 643 l 185 0 l 172 0 l 115 -264 l 42 -264 l 42 -257 l 121 0 l 111 0 l 111 643 l 25 643 l 25 708 l 111 708 l 111 914 l 185 914 l 185 708 z "},"ț":{"ha":311,"x_min":25,"x_max":286,"o":"m 111 0 l 111 643 l 25 643 l 25 708 l 111 708 l 111 914 l 185 914 l 185 708 l 286 708 l 286 643 l 185 643 l 185 0 l 111 0 m 93 -292 q 135 -284 122 -292 q 152 -260 149 -276 q 156 -207 156 -243 l 156 -185 l 119 -185 l 119 -86 l 207 -86 l 207 -186 q 198 -276 207 -246 q 165 -318 189 -306 q 93 -331 142 -331 l 93 -292 z "},"ṭ":{"ha":311,"x_min":25,"x_max":286,"o":"m 111 0 l 111 643 l 25 643 l 25 708 l 111 708 l 111 914 l 185 914 l 185 708 l 286 708 l 286 643 l 185 643 l 185 0 l 111 0 m 106 -194 l 106 -86 l 193 -86 l 193 -194 l 106 -194 z "},"u":{"ha":536,"x_min":71,"x_max":460,"o":"m 392 100 l 385 100 q 337 19 372 49 q 232 -11 301 -11 q 128 15 163 -11 q 83 96 94 40 q 71 257 71 151 l 71 708 l 144 708 l 144 281 q 153 133 144 179 q 185 71 161 86 q 260 56 208 56 q 347 90 319 56 q 380 179 374 124 q 386 344 386 235 l 386 708 l 460 708 l 460 0 l 397 0 l 392 100 z "},"ú":{"ha":536,"x_min":71,"x_max":460,"o":"m 392 100 l 385 100 q 337 19 372 49 q 232 -11 301 -11 q 128 15 163 -11 q 83 96 94 40 q 71 257 71 151 l 71 708 l 144 708 l 144 281 q 153 133 144 179 q 185 71 161 86 q 260 56 208 56 q 347 90 319 56 q 380 179 374 124 q 386 344 386 235 l 386 708 l 460 708 l 460 0 l 397 0 l 392 100 m 238 838 l 238 844 l 283 1032 l 361 1032 l 361 1025 l 292 838 l 238 838 z "},"ŭ":{"ha":536,"x_min":71,"x_max":460,"o":"m 392 100 l 385 100 q 337 19 372 49 q 232 -11 301 -11 q 128 15 163 -11 q 83 96 94 40 q 71 257 71 151 l 71 708 l 144 708 l 144 281 q 153 133 144 179 q 185 71 161 86 q 260 56 208 56 q 347 90 319 56 q 380 179 374 124 q 386 344 386 235 l 386 708 l 460 708 l 460 0 l 397 0 l 392 100 m 403 1032 q 395 925 403 964 q 358 863 388 886 q 267 839 329 839 q 176 863 204 839 q 140 924 147 886 q 132 1032 132 963 l 190 1032 q 194 949 190 976 q 215 906 199 921 q 267 890 231 890 q 319 906 303 890 q 340 949 336 921 q 344 1032 344 976 l 403 1032 z "},"ǔ":{"ha":536,"x_min":71,"x_max":460,"o":"m 392 100 l 385 100 q 337 19 372 49 q 232 -11 301 -11 q 128 15 163 -11 q 83 96 94 40 q 71 257 71 151 l 71 708 l 144 708 l 144 281 q 153 133 144 179 q 185 71 161 86 q 260 56 208 56 q 347 90 319 56 q 380 179 374 124 q 386 344 386 235 l 386 708 l 460 708 l 460 0 l 397 0 l 392 100 m 225 844 l 132 1024 l 132 1032 l 186 1032 l 267 894 l 350 1032 l 403 1032 l 403 1024 l 310 844 l 225 844 z "},"û":{"ha":536,"x_min":71,"x_max":460,"o":"m 392 100 l 385 100 q 337 19 372 49 q 232 -11 301 -11 q 128 15 163 -11 q 83 96 94 40 q 71 257 71 151 l 71 708 l 144 708 l 144 281 q 153 133 144 179 q 185 71 161 86 q 260 56 208 56 q 347 90 319 56 q 380 179 374 124 q 386 344 386 235 l 386 708 l 460 708 l 460 0 l 397 0 l 392 100 m 132 844 l 132 851 l 225 1032 l 310 1032 l 403 851 l 403 844 l 350 844 l 267 982 l 186 844 l 132 844 z "},"ȕ":{"ha":536,"x_min":71,"x_max":460,"o":"m 392 100 l 385 100 q 337 19 372 49 q 232 -11 301 -11 q 128 15 163 -11 q 83 96 94 40 q 71 257 71 151 l 71 708 l 144 708 l 144 281 q 153 133 144 179 q 185 71 161 86 q 260 56 208 56 q 347 90 319 56 q 380 179 374 124 q 386 344 386 235 l 386 708 l 460 708 l 460 0 l 397 0 l 392 100 m 219 849 l 171 849 l 106 1007 l 106 1014 l 178 1014 l 219 856 l 219 849 m 365 849 l 317 849 l 251 1007 l 251 1014 l 324 1014 l 365 856 l 365 849 z "},"ü":{"ha":536,"x_min":71,"x_max":460,"o":"m 392 100 l 385 100 q 337 19 372 49 q 232 -11 301 -11 q 128 15 163 -11 q 83 96 94 40 q 71 257 71 151 l 71 708 l 144 708 l 144 281 q 153 133 144 179 q 185 71 161 86 q 260 56 208 56 q 347 90 319 56 q 380 179 374 124 q 386 344 386 235 l 386 708 l 460 708 l 460 0 l 397 0 l 392 100 m 111 918 l 111 1014 l 186 1014 l 186 918 l 111 918 m 344 918 l 344 1014 l 421 1014 l 421 918 l 344 918 z "},"ǘ":{"ha":536,"x_min":71,"x_max":460,"o":"m 392 100 l 385 100 q 337 19 372 49 q 232 -11 301 -11 q 128 15 163 -11 q 83 96 94 40 q 71 257 71 151 l 71 708 l 144 708 l 144 281 q 153 133 144 179 q 185 71 161 86 q 260 56 208 56 q 347 90 319 56 q 380 179 374 124 q 386 344 386 235 l 386 708 l 460 708 l 460 0 l 397 0 l 392 100 m 113 918 l 113 1014 l 188 1014 l 188 918 l 113 918 m 346 918 l 346 1014 l 422 1014 l 422 918 l 346 918 m 239 1060 l 239 1067 l 285 1254 l 363 1254 l 363 1247 l 293 1060 l 239 1060 z "},"ǚ":{"ha":536,"x_min":71,"x_max":460,"o":"m 392 100 l 385 100 q 337 19 372 49 q 232 -11 301 -11 q 128 15 163 -11 q 83 96 94 40 q 71 257 71 151 l 71 708 l 144 708 l 144 281 q 153 133 144 179 q 185 71 161 86 q 260 56 208 56 q 347 90 319 56 q 380 179 374 124 q 386 344 386 235 l 386 708 l 460 708 l 460 0 l 397 0 l 392 100 m 113 918 l 113 1014 l 188 1014 l 188 918 l 113 918 m 346 918 l 346 1014 l 422 1014 l 422 918 l 346 918 m 228 1067 l 135 1246 l 135 1254 l 189 1254 l 269 1117 l 353 1254 l 406 1254 l 406 1246 l 313 1067 l 228 1067 z "},"ǜ":{"ha":536,"x_min":71,"x_max":460,"o":"m 392 100 l 385 100 q 337 19 372 49 q 232 -11 301 -11 q 128 15 163 -11 q 83 96 94 40 q 71 257 71 151 l 71 708 l 144 708 l 144 281 q 153 133 144 179 q 185 71 161 86 q 260 56 208 56 q 347 90 319 56 q 380 179 374 124 q 386 344 386 235 l 386 708 l 460 708 l 460 0 l 397 0 l 392 100 m 113 918 l 113 1014 l 188 1014 l 188 918 l 113 918 m 346 918 l 346 1014 l 422 1014 l 422 918 l 346 918 m 242 1060 l 172 1247 l 172 1254 l 250 1254 l 296 1067 l 296 1060 l 242 1060 z "},"ǖ":{"ha":536,"x_min":71,"x_max":460,"o":"m 392 100 l 385 100 q 337 19 372 49 q 232 -11 301 -11 q 128 15 163 -11 q 83 96 94 40 q 71 257 71 151 l 71 708 l 144 708 l 144 281 q 153 133 144 179 q 185 71 161 86 q 260 56 208 56 q 347 90 319 56 q 380 179 374 124 q 386 344 386 235 l 386 708 l 460 708 l 460 0 l 397 0 l 392 100 m 113 918 l 113 1014 l 188 1014 l 188 918 l 113 918 m 346 918 l 346 1014 l 422 1014 l 422 918 l 346 918 m 154 1182 l 154 1254 l 386 1254 l 386 1182 l 154 1182 z "},"ụ":{"ha":536,"x_min":71,"x_max":460,"o":"m 392 100 l 385 100 q 337 19 372 49 q 232 -11 301 -11 q 128 15 163 -11 q 83 96 94 40 q 71 257 71 151 l 71 708 l 144 708 l 144 281 q 153 133 144 179 q 185 71 161 86 q 260 56 208 56 q 347 90 319 56 q 380 179 374 124 q 386 344 386 235 l 386 708 l 460 708 l 460 0 l 397 0 l 392 100 m 214 -194 l 214 -86 l 301 -86 l 301 -194 l 214 -194 z "},"ù":{"ha":536,"x_min":71,"x_max":460,"o":"m 392 100 l 385 100 q 337 19 372 49 q 232 -11 301 -11 q 128 15 163 -11 q 83 96 94 40 q 71 257 71 151 l 71 708 l 144 708 l 144 281 q 153 133 144 179 q 185 71 161 86 q 260 56 208 56 q 347 90 319 56 q 380 179 374 124 q 386 344 386 235 l 386 708 l 460 708 l 460 0 l 397 0 l 392 100 m 250 838 l 181 1025 l 181 1032 l 258 1032 l 304 844 l 304 838 l 250 838 z "},"ủ":{"ha":536,"x_min":71,"x_max":460,"o":"m 392 100 l 385 100 q 337 19 372 49 q 232 -11 301 -11 q 128 15 163 -11 q 83 96 94 40 q 71 257 71 151 l 71 708 l 144 708 l 144 281 q 153 133 144 179 q 185 71 161 86 q 260 56 208 56 q 347 90 319 56 q 380 179 374 124 q 386 344 386 235 l 386 708 l 460 708 l 460 0 l 397 0 l 392 100 m 211 865 q 222 904 211 893 q 258 925 232 915 l 274 928 q 318 949 306 939 q 331 986 331 960 q 326 1016 331 1007 q 306 1029 322 1025 q 251 1033 289 1033 l 197 1032 q 144 1029 164 1029 l 144 1076 q 261 1088 228 1088 q 362 1067 335 1088 q 389 999 389 1047 q 380 936 389 956 q 333 903 371 917 l 321 899 q 282 883 293 888 q 268 871 271 878 q 265 850 265 864 l 211 850 l 211 865 z "},"ư":{"ha":536,"x_min":71,"x_max":565,"o":"m 565 842 l 565 799 q 557 716 565 744 q 526 675 549 688 q 460 661 504 663 l 460 0 l 397 0 l 392 100 l 385 100 q 337 19 372 49 q 232 -11 301 -11 q 128 15 163 -11 q 83 96 94 40 q 71 257 71 151 l 71 708 l 144 708 l 144 281 q 153 133 144 179 q 185 71 161 86 q 260 56 208 56 q 347 90 319 56 q 380 179 374 124 q 386 344 386 235 l 386 708 l 446 708 q 497 725 486 708 q 508 786 508 742 l 508 842 l 565 842 z "},"ứ":{"ha":536,"x_min":71,"x_max":565,"o":"m 565 842 l 565 799 q 557 716 565 744 q 526 675 549 688 q 460 661 504 663 l 460 0 l 397 0 l 392 100 l 385 100 q 337 19 372 49 q 232 -11 301 -11 q 128 15 163 -11 q 83 96 94 40 q 71 257 71 151 l 71 708 l 144 708 l 144 281 q 153 133 144 179 q 185 71 161 86 q 260 56 208 56 q 347 90 319 56 q 380 179 374 124 q 386 344 386 235 l 386 708 l 446 708 q 497 725 486 708 q 508 786 508 742 l 508 842 l 565 842 m 236 838 l 236 844 l 282 1032 l 360 1032 l 360 1025 l 290 838 l 236 838 z "}}}
